<?xml version="1.0" encoding="utf-8"?>
<!-- Generator: Adobe Illustrator 22.1.0, SVG Export Plug-In . SVG Version: 6.00 Build 0)  -->
<svg version="1.1" id="Слой_1" xmlns="http://www.w3.org/2000/svg" xmlns:xlink="http://www.w3.org/1999/xlink" x="0px" y="0px"
	 viewBox="0 0 841.9 677.5" style="enable-background:new 0 0 841.9 677.5;" xml:space="preserve">
<style type="text/css">
	.st0{fill:#292F7B;}
	.st1{fill:#3B56A6;}
	.st2{fill:#FCEE21;}
</style>
<g>
	<path class="st0" d="M281.5,248.4c5.4,8,8.4,17.5,8.5,27.2c4.1-5.9,6.1-13.2,5.6-20.3c-7-2.3-14.7,2.5-18.2,9
		c-3.5,6.5-3.8,14.1-4,21.4c-0.4,12.5-0.7,25.5,4.4,36.9c3,6.7,7.7,12.6,11,19.2c3.9,8,5.5,16.8,7.9,25.3
		c6.3,22.1,18.6,44.3,13.4,66.7c-2.1,8.8-6.7,18.3-2.6,26.3c1.8,3.6,5.1,8.2,2.1,10.8c-1.1,1-3,1.3-3.7,2.6
		c-0.6,1.2-0.1,2.6,0.6,3.7c3.6,6.5,10.8,10.8,18.2,11.1c7.4,0.2,14.9-3.6,18.9-9.9"/>
	<g>
		<path class="st0" d="M242.7,271.1c1.9,2.9,3.5,5.8,4.8,9c-1.5-3.6-3-7.2-4.5-10.7c1.7,4.3,2.8,8.6,3.4,13.1c-0.5-4-1.1-8-1.6-12
			c0.2,1.7,0.3,3.4,0.3,5.1c0.6,19.1,13.5,38.9,33,43.4c7.9,1.8,16,1.8,23.9,0c11.3-2.6,20.8-11.3,26.9-20.7
			c8.1-12.3,12.4-28.4,11.7-43c-0.8-19.7-13.4-38.2-33-43.4c-24.5-6.5-48.8,3.1-64,22.8c-12,15.5-14.7,33.7-15.3,52.8
			c-0.4,13.9,0,28.7,4.2,42.1c2.6,8.3,6.3,16.5,10.9,23.9c2.9,4.7,5.8,9.2,7.9,14.2c-1.5-3.6-3-7.2-4.5-10.7
			c4.4,11.3,6.6,23.4,10.6,34.9c4,11.5,8.4,22.9,10,35c-0.5-4-1.1-8-1.6-12c0.5,4.6,0.6,9.1,0.1,13.7c0.5-4,1.1-8,1.6-12
			c-0.5,3.8-1.4,7.4-2.5,11c-2.1,7.2-3.1,13.6-3.9,21.2c-0.7,6.7,0,13.6,1.8,20.1c1.9,6.9,5.4,12.6,8.3,18.9
			c-1.5-3.6-3-7.2-4.5-10.7c0.4,0.8,0.6,1.6,0.7,2.5c-0.5-4-1.1-8-1.6-12c0,0.4,0,0.8,0,1.2c0.5-4,1.1-8,1.6-12
			c-0.1,0.4-0.2,0.7-0.4,1.1c3.9-6.6,7.7-13.2,11.6-19.9c-0.3,0.3-0.5,0.6-0.8,1c3-2.3,6.1-4.7,9.1-7c-9.8,6.7-17.3,12.8-22.1,24.2
			c-6,14.3-5,30.3,2.9,43.8c7.6,13,18.9,22.2,32.5,27.9c13.9,5.8,29.2,7.1,43.8,2.7c16.7-5,28.6-15.5,38.5-29.5
			c6.4-9.1,7.4-24.4,4.5-34.7c-2.9-10.4-10.9-21.8-20.7-26.9c-10.4-5.5-23.1-8.3-34.7-4.5c-11.7,3.8-19.8,10.6-26.9,20.7
			c-0.3,0.4-0.6,0.8-0.9,1.2c2.3-3,4.7-6.1,7-9.1c-1.3,1.6-2.6,2.9-4.2,4.2c3-2.3,6.1-4.7,9.1-7c-1.7,1.2-3.3,2.1-5.2,2.9
			c3.6-1.5,7.2-3,10.7-4.5c-1.9,0.7-3.7,1.2-5.7,1.5c4-0.5,8-1.1,12-1.6c-1.5,0.1-2.9,0.1-4.4,0c4,0.5,8,1.1,12,1.6
			c-2-0.3-3.8-0.7-5.7-1.4c3.6,1.5,7.2,3,10.7,4.5c-1.8-0.8-3.5-1.7-5.2-2.9c3,2.3,6.1,4.7,9.1,7c-1.6-1.3-2.9-2.6-4.2-4.2
			c2.3,3,4.7,6.1,7,9.1c-0.9-1.2-1.6-2.3-2.2-3.7c1.5,3.6,3,7.2,4.5,10.7c-0.1-0.4-0.2-0.8-0.3-1.3c0,8,0,16,0,23.9
			c0.1-0.4,0.2-0.8,0.3-1.2c-3.9,6.6-7.7,13.2-11.6,19.9c0.2-0.3,0.5-0.6,0.7-0.8c-3,2.3-6.1,4.7-9.1,7c4.4-2.8,8.7-5.8,12.4-9.3
			c8.5-8.1,14.4-22,14-34c-0.3-9.8-2.7-17.1-6.8-25.8c-1-2.2-2.3-4.4-3.3-6.6c1.5,3.6,3,7.2,4.5,10.7c-0.4-1-0.6-2.1-0.8-3.1
			c0.5,4,1.1,8,1.6,12c-0.2-2.2-0.1-4.3,0.1-6.5c-0.5,4-1.1,8-1.6,12c1-5.7,3.2-11.2,4.3-16.8c1.7-8.9,3-18.3,2.2-27.4
			c-1.4-15.3-4.9-29.2-10-43.6c-3.9-11-6.7-22.2-10.1-33.3c-2.6-8.7-6.1-17.3-10.7-25.1c-2.9-4.9-6.1-9.6-8.5-14.7
			c1.5,3.6,3,7.2,4.5,10.7c-1.9-4.4-3-8.9-3.8-13.6c0.5,4,1.1,8,1.6,12c-1.4-10.9-1.2-22.6,0.1-33.5c-0.5,4-1.1,8-1.6,12
			c0.5-3.4,1.3-6.6,2.6-9.7c-1.5,3.6-3,7.2-4.5,10.7c0.7-1.4,1.4-2.6,2.2-3.8c-2.3,3-4.7,6.1-7,9.1c1.2-1.5,2.5-2.8,4-3.9
			c-3,2.3-6.1,4.7-9.1,7c1.2-0.8,2.3-1.5,3.6-2.1c-3.6,1.5-7.2,3-10.7,4.5c1.3-0.5,2.5-0.8,3.9-1.1c-4,0.5-8,1.1-12,1.6
			c0.9-0.1,1.8-0.1,2.7-0.1c-4-0.5-8-1.1-12-1.6c0.9,0.1,1.8,0.3,2.6,0.5c-11-14.5-22-28.9-33-43.4c0.1,2.2,0,4.4-0.2,6.6
			c0.5-4,1.1-8,1.6-12c-0.5,2.8-1.2,5.3-2.2,7.9c1.5-3.6,3-7.2,4.5-10.7c-0.9,2-1.9,3.9-3.2,5.8c28,7.6,55.9,15.1,83.9,22.7
			c-0.5-17.5-5-35.2-14.7-49.9c-6.4-9.8-15.4-17.5-26.9-20.7c-10.8-3-25.1-1.6-34.7,4.5c-9.6,6.2-18.1,15.4-20.7,26.9
			C235.5,247.9,236,261,242.7,271.1L242.7,271.1z"/>
	</g>
</g>
<g>
	<path d="M252.8,102.6c-2.8-8.7,6.9-16.6,15.9-18.2c11.5-2,24.3,1.9,31.4,11.2c7.1,9.3,7.2,23.8-1,32.1c-4.7,4.8-11.3,7.1-17.2,10.3
		s-11.8,7.9-12.9,14.5c-0.9,5.5,1.3,12.4-3,15.9c-2,1.6-4.8,1.8-7.3,1.9c-32.2,1.6-64.2,5.9-95.6,12.9c-11.5,2.6-24.2,6.4-30.1,16.6
		c-0.6,1-1.1,2.3-0.8,3.4c0.5,1.5,2.3,2.2,3.9,2.5c26.6,6.4,54.3,6.8,81.7,7.1c34.3,0.4,68.6,0.8,102.8,1.2
		c31.4,0.4,63.6,0.6,93-10.2c6.1-2.2,12.9-6,13.7-12.5c0.6-5.4-3.6-10.4-8.6-12.5c-5-2.1-10.7-2-16.1-1.9
		c-35.9,0.8-71.8,0.2-107.6-1.8c-2-0.1-4.2-0.3-6-1.2c-4.7-2.6-4.7-9.8-1.6-14.2c3.1-4.4,8.3-6.8,12.8-9.7
		c14.8-9.3,25.4-25.1,28.3-42.3c1.6-9.2,0.8-19.5-5.1-26.8c-7-8.7-19.3-11.1-30.4-11.7c-11-0.6-22.4,0-32.5,4.5
		s-18.7,13.5-20.2,24.5c-0.6,4.6,0.4,9.9,4.4,12.2c4,2.3,10.5-1.6,8.7-5.9"/>
	<g>
		<path d="M255.2,101.9c-2.4-9.5,9.5-14.9,17.1-15.4c8.3-0.6,17,2,23.1,7.7c5.7,5.3,8.5,13.5,7.2,21.2c-1.4,8.6-7.6,13.4-14.9,17
			c-6.5,3.2-13.4,6.2-17.8,12.2c-1.7,2.4-2.9,5-3.3,7.9c-0.5,3.6,0.6,7.7-0.5,11.2c-1.6,5.2-8.8,4.2-13.2,4.5
			c-5.1,0.3-10.3,0.7-15.4,1.1c-9.5,0.8-19,1.9-28.5,3.2c-18.3,2.5-37.2,5.2-55,10.5c-6.5,1.9-12.9,4.7-18,9.2
			c-3.2,2.9-8.9,9.1-5.2,13.6c1.9,2.3,5.6,2.7,8.3,3.3c5,1.1,10,2,15,2.7c9,1.3,18.1,2.1,27.3,2.7c20,1.1,40.1,1,60.1,1.3
			c20.1,0.2,40.2,0.5,60.3,0.7c19.2,0.2,38.5,0.8,57.7-0.1c18.2-0.9,36.7-3.4,53.9-9.6c5.6-2,11.9-4.8,14.9-10.4
			c2.7-5.1,1.4-11-2.3-15.2c-4.9-5.4-12.3-6.6-19.3-6.6c-10-0.1-20,0.4-30,0.4c-20.3,0.1-40.5-0.3-60.8-1.2
			c-4.6-0.2-9.3-0.4-13.9-0.7c-4.7-0.2-13.1,0.8-14.1-5.3c-1.4-9,10.3-13.1,16.2-17.2c11.8-8.2,20.7-20.4,25-34.2
			c4.2-13.3,4.6-30.4-6.8-40.3c-11-9.6-28.5-10.2-42.3-9.2c-14.7,1-29.7,6.5-37.8,19.6c-3.3,5.3-5.4,12.1-4,18.3
			c1.1,5,5,9.7,10.6,8.9c4.8-0.7,8.4-4.8,7.2-9.6c-0.8-3.1-5.6-1.8-4.8,1.3c0.3,1.4-1.6,3-2.6,3.3c-1.1,0.3-2.4-0.2-3.2-0.8
			c-1.8-1.2-2.4-3.7-2.6-5.7c-0.4-3.6,0.7-7.5,2.3-10.7c3.3-6.7,9.3-12,16.1-15.2c8-3.7,17-4.7,25.8-4.7c7.7,0,15.6,0.5,22.9,3.1
			c17.2,6.1,19.3,24.1,14.6,39.6c-4.4,14.6-14.3,26.9-27.3,34.7c-5,3-10.8,6.2-13.2,11.9c-1.9,4.5-1.7,10.7,2.3,14.1
			c5,4.3,14.6,3,20.7,3.3c9.3,0.4,18.6,0.8,27.9,1.1c18.9,0.5,37.9,0.6,56.8,0.4c8.2-0.1,18.3-1.8,26,1.4c3.9,1.7,7.6,5.3,7.2,9.9
			c-0.4,4.1-4.1,6.8-7.5,8.6c-7.2,3.8-15.8,5.7-23.7,7.4c-8.8,1.9-17.7,3-26.6,3.7c-17.7,1.3-35.5,1-53.2,0.7
			c-37.1-0.4-74.2-0.6-111.2-1.4c-18.5-0.4-37.2-1.2-55.4-4.6c-2.3-0.4-11.7-1.4-12-3.6c-0.4-3,5.1-6.9,7.2-8.4c6-4.1,13.1-6,20-7.6
			c17.8-4.1,35.9-7.2,54-9.4c9.3-1.2,18.6-2.1,27.9-2.8c4.2-0.3,8.4-0.6,12.5-0.8c3.3-0.2,7-0.1,9.9-2c4.9-3,4.7-8.7,4.7-13.8
			c-0.1-9,5.7-13.9,13.3-17.7c6.1-3.1,12.7-5.7,17.2-10.9c3.7-4.2,5.6-9.6,6-15.2c0.9-12.6-6.7-23.8-18.1-28.8
			c-11.1-4.9-26.2-4.7-35.2,4.5c-3.8,3.9-5.5,8.9-4.1,14.2C251.2,106.4,256.1,105.1,255.2,101.9L255.2,101.9z"/>
	</g>
</g>
<g>
	<path class="st1" d="M267.6,152.5c-24.9-1.9-50-3.8-74.8-0.5s-49.4,12.5-67.2,30c-13.3,13-22.1,30-28.4,47.4
		C84.3,264.9,81.2,303,75.2,340.2S59.5,415.4,36,444.9c-4.3,5.5-9.3,10.8-11.1,17.6c-3,11.4,4.3,23.7,14.8,29.1s23.1,4.8,34.4,1.5
		c-3.7,11.6,1.8,25.4,12.4,31.3s25.2,3.4,33.2-5.7c0.6,14.5,8.6,29.3,21.8,35.3s31.3,1.1,37.4-12.1c7.8,13.3,23,21.8,38.4,21.5
		c15.4-0.3,30.3-9.4,37.6-22.9c5.6,7.5,13.3,13.9,22.4,16.1c9.1,2.3,19.7-0.1,25.8-7.3c8.4-9.9,6.2-24.5,4.5-37.4
		c-2.5-18.9-2.8-38.2-0.9-57.2c1.8-17.5,5.3-35.8-1.4-52.1c-6.7-16.3-22.2-26.9-35.6-38.3c-13.4-11.4-26.2-27-24.3-44.5
		c1.4-12.8,10.4-23.3,15.2-35.3c5.3-13.2,5.2-28.5-0.3-41.6c-3.6-8.7-9.6-17.5-7.3-26.6c2.9-11.5,18-17.5,19.2-29.4
		c1-9.7-7.4-21.6,0-27.8c5.7-4.8,15,0.7,17.5,7.8s1.4,14.9,2.9,22.3c5.2,25.8,40.8,37.2,44.5,63.3c2.3,16.2-8.9,30.8-18.9,43.7
		c-10.1,12.9-20.1,28.9-15.4,44.5c6.1,20.2,32.8,27,42.3,45.8c13.6,26.9-14.6,61.2-1.6,88.3c5,10.4,15.8,19.1,14.5,30.5
		c-1.7,15.1-23.2,21.5-25.5,36.4c-1.6,10.2,7.7,19.9,18,21.1c10.2,1.3,20.4-4.3,27.3-11.9c6.9-7.7,11.2-17.3,15.3-26.7
		c8.5,20.3,36.2,27.9,56.1,18.4c19.8-9.5,31.2-32,32.1-54c6.8,11.8,24.4,14,36.2,7c11.7-7.1,18-20.7,20.1-34.3
		c0.6-3.8,1-7.8,3.5-10.7c2.1-2.4,5.2-3.6,8-5c14.3-7.4,21.9-25.8,17.1-41.1c-10.7,1.5-21.8,3-32.1-0.4c-7.9-2.7-14.6-8.1-20.5-13.9
		c-25.9-25.8-39.3-61.5-48.6-96.9s-15.2-71.9-29.6-105.5c-3.8-8.9-8.3-17.6-15.2-24.3c-16.8-16.3-43-16.4-66.3-15.5
		c-29.8,1.1-59.6,2.3-89.4,3.4"/>
	<g>
		<path class="st1" d="M267.6,150c-36.8-2.8-75.2-5.5-110.1,8.7c-15.3,6.3-29.3,15.6-39.9,28.4c-10.8,13-18.2,28.4-23.7,44.3
			C70.2,299.6,81.4,380.9,35.8,441c-5.2,6.9-11.9,13.4-13.7,22.2c-1.5,7.3,0.8,15,5.2,20.9c11,15,30.8,16,47.4,11.3
			c-1-1-2.1-2.1-3.1-3.1c-3.6,12.6,1.6,27,13,33.8c11.8,7.1,27.6,4.1,36.8-5.8c-1.4-0.6-2.8-1.2-4.3-1.8c1,16.2,9.9,33.1,26,38.7
			c13.9,4.8,31.1-0.7,37.9-14.2c-1.4,0-2.9,0-4.3,0c8.5,13.9,24.1,23.1,40.5,22.8c16.5-0.3,31.7-9.9,39.7-24.2c-1.4,0-2.9,0-4.3,0
			c9.8,12.7,25.6,22.5,42,16.4c16.9-6.4,18-24.6,16.1-40.1c-2.6-21.7-3.8-43.1-1.5-65c2-19.2,5.4-39.5-4.7-57.1
			c-16.9-29.6-72.9-47.8-52.3-89.8c3.9-8,9-15.5,11.7-24c3-9.1,3.5-18.9,1.9-28.3c-1.7-9.7-7.2-17.6-10-26.9
			c-3-10.2,2.4-16.4,9-23.2c4.5-4.7,9.1-9.8,9.7-16.6c0.3-3.7-0.5-7.4-1.4-11c-0.9-3.9-2.9-9.1-1-13c2.7-5.3,8.9-2.9,12.2,0.4
			c4,4,4.3,10.1,4.6,15.5c0.4,7.8,1.3,14.9,5.2,21.8c6.8,12.1,18.6,20.4,28,30.3c4.8,5.1,9.3,10.8,11.3,17.6
			c2.8,9.4,0.2,18.8-4.4,27.1c-9.2,16.9-25.7,30.1-29.6,49.7c-3.1,16.1,5.5,28.2,17.5,37.7c11.8,9.4,25.9,17.8,28.5,33.9
			c2.7,16.3-4.6,32.7-7.2,48.5c-1.2,7.2-1.7,14.6-0.3,21.8c1.7,8.1,6.3,14.4,10.9,21.1c4.9,7.1,8.8,15.1,3.7,23.3
			c-3.7,5.9-9.7,10-14.5,14.9c-4.1,4.2-7.7,9.1-8.5,15.1c-1,7.5,3,14.6,8.9,19c14.4,10.8,32.9,1.9,42.8-10.6
			c5.9-7.4,9.7-16,13.5-24.6c-1.4,0-2.9,0-4.3,0c9,20.2,34.7,28.2,54.8,21.2c23.9-8.3,36.8-34,38-58c-1.6,0.4-3.1,0.8-4.7,1.3
			c6.4,10.3,19.1,14,30.6,11.4c13.2-2.9,22.2-14.3,26.8-26.4c1.2-3.2,2.2-6.6,2.8-10c0.8-3.8,0.7-8.5,2.9-11.9
			c2.3-3.4,7-4.5,10.3-6.6c2.9-1.8,5.5-4.1,7.7-6.7c8.5-9.8,11.7-23.4,8.1-35.9c-0.4-1.4-1.7-1.9-3.1-1.7
			c-8.4,1.2-17.1,2.5-25.5,0.9c-8-1.5-14.9-5.8-20.9-11.2c-10.8-9.7-19.5-21.5-26.7-34c-14.7-25.8-22.6-54.6-29.4-83.3
			c-7.3-30.8-13.7-62.2-26.7-91.1c-5.5-12.3-13.2-23.3-25.3-29.8c-10.9-5.8-23.5-7.7-35.7-8.3c-17.3-0.8-34.8,0.7-52.1,1.3
			c-19.5,0.8-39.1,1.5-58.6,2.3c-3.2,0.1-3.2,5.1,0,5c33.5-1.3,67.2-3.5,100.7-3.7c13.3-0.1,27.2,0.6,39.5,6
			c14.5,6.3,22.5,18.8,28.5,32.9c24.3,56.8,24.6,121.9,57.3,175.5c7.8,12.7,17.4,25.3,29.3,34.5c14.2,10.9,30,10.3,47,7.9
			c-1-0.6-2.1-1.2-3.1-1.7c3.5,11.9-0.2,25-9.2,33.5c-4.5,4.3-11.1,5.6-15.2,10.2c-3.6,4-3.6,9.7-4.6,14.7
			c-2.4,11.9-8.3,24.5-19.5,30.5c-10.4,5.5-25.1,3.8-31.6-6.7c-1.3-2.1-4.5-1.2-4.7,1.3c-1,21.7-12.6,45.6-34.3,53.2
			c-18.2,6.3-41-0.7-49.1-18.9c-0.7-1.6-3.6-1.6-4.3,0c-7.1,16.1-19.2,41.4-41.1,37.3c-9.2-1.7-17.3-11-14.2-20.5
			c2.1-6.5,8.1-11.1,13-15.6c4.4-4.1,8.9-8.6,11-14.4c2.3-6.8,0.4-13.5-3.1-19.5c-4.4-7.4-10.5-13.8-12.7-22.3
			c-2-7.8-1.2-16,0.3-23.7c2.8-14.9,8.7-29.9,7.2-45.2c-1.5-14.5-10.6-24.2-21.7-32.8c-12.2-9.4-27.1-19.3-25.2-36.9
			c2.2-20.5,20.7-34.5,29.8-51.8c7.2-13.6,7.9-28.5-1-41.5c-7.7-11.1-19-19-27.9-29.1c-4.7-5.3-8.7-11.4-10.1-18.5
			c-1.7-8.6,0.4-18.6-4.9-26.2c-3.3-4.7-9.5-8.7-15.4-7.2c-6.4,1.7-8.6,8-7.9,14c0.9,7.9,5.2,15.7,0.9,23.3
			c-3.5,6.1-9.7,10.3-13.8,16.1c-4.5,6.4-4.8,13.8-2.3,21.1c3.3,9.5,8.7,17.8,9.9,28.1c1.2,10.3-0.7,20.6-5.1,30
			c-3.9,8.2-9.2,15.7-12,24.5c-5.3,16.6,2.6,32.4,13.7,44.6c12.3,13.5,29.2,22.5,39.8,37.7c12.2,17.5,8.5,38.6,6.4,58.5
			c-2.2,21.3-1.4,42.3,1.3,63.4c1.1,8.7,2.3,18.6-1.5,26.7c-4.1,8.6-13.4,12.5-22.6,11.6c-10.1-1-18.5-7.9-24.5-15.6
			c-1.1-1.4-3.3-1.8-4.3,0c-7.1,12.7-20.7,21.4-35.4,21.7c-14.7,0.2-28.6-7.8-36.2-20.3c-0.9-1.5-3.4-1.7-4.3,0
			c-5.8,11.5-20.3,16.1-32.2,11.9c-13.9-4.9-21.5-19.9-22.3-33.9c-0.1-2-2.7-3.4-4.3-1.8c-7.7,8.3-20.8,11-30.7,5
			c-9.5-5.7-13.6-17.7-10.7-28.2c0.5-1.8-1.2-3.6-3.1-3.1c-15.6,4.4-35.5,3.5-44-12.6c-8.6-16.3,7.3-28.8,15.6-41.2
			c17.6-26.4,26-57.7,31.4-88.5c6.1-34.4,8.7-69.5,18.4-103.1c9.3-32.4,25.3-62.4,56.5-78.1c35.9-18.1,77.5-15,116.3-12
			C270.8,155.2,270.8,150.2,267.6,150L267.6,150z"/>
	</g>
</g>
<g>
	<path d="M279.2,146.9c-1.5,3.9-1.8,8.3-0.7,12.4c7-4.2,4-9.6,7.5-14.8c2.9-4.3,7.6-3.7,12.8-4.3c1.2-0.1,2.6-0.3,3.7,0.3
		c0.9,0.5,1.6,1.4,2.1,2.4c4.9,8.4,5.3,19.3,1,28.1c-0.8,1.5-1.6,3-2,4.7c-0.3,1.8,0,3.6-0.4,5.4c-0.5,2.6-2.4,4.6-3.6,6.9
		c-3.1,5.6-2.4,13.2,1.8,18.2c1.2,1.4,2.7,3.1,2,4.7c-0.7,1.6-2.8,1.7-4.5,1.6c-13.1-1.1-26.6-5.2-39.1-1.2"/>
	<g>
		<path d="M276.8,146.3c-1.6,4.6-1.8,9-0.7,13.7c0.3,1.5,2.4,2.4,3.7,1.5c3.9-2.7,5.6-5.6,6.5-10.2c0.6-2.7,1.1-5.6,3.7-7.2
			c2.2-1.3,6.2-1.5,8.7-1.4c7.1,0.3,7.7,13.3,7,18.6c-0.4,3.6-1.7,6.6-3.2,9.9c-1.3,2.8-1.3,5-1.7,8c-0.9,5.8-5.6,9.6-5.8,15.8
			c-0.1,2.7,0.4,5.4,1.4,7.9c0.7,1.7,4.3,5.3,2.2,6.9c-1.4,1.1-9.6-1.2-11-1.4c-2.9-0.4-5.8-0.8-8.7-1.1c-6.8-0.7-13.4-0.5-20,1.4
			c-3.1,0.9-1.8,5.7,1.3,4.8c9.5-2.8,19.1-1.3,28.8,0.1c4.3,0.6,13.6,3.6,16.3-1.7c1.1-2.2,0.2-4.3-1.1-6.2
			c-2.4-3.6-4.4-6.3-4.2-10.9c0.2-4.5,3.1-7.3,4.8-11.3c0.7-1.5,0.8-2.9,1-4.5c0.3-2.8,1-5.2,2.2-7.7c2.9-6.3,3.7-13.4,2.3-20.2
			c-1-4.9-3.2-12.9-9.1-13.6c-4.5-0.6-11.7,0.3-15.3,3.2c-5.3,4.4-3,12.4-8.7,16.3c1.2,0.5,2.4,1,3.7,1.5c-0.9-3.8-0.6-7.3,0.7-11.1
			C282.7,144.6,277.8,143.2,276.8,146.3L276.8,146.3z"/>
	</g>
</g>
<g>
	<g>
		<path d="M278.4,144.1c-1.1,4.6-2.1,9.2-3.2,13.9c1.6,0.2,3.3,0.4,4.9,0.7c-0.4-3.2-1.3-6-2.9-8.8c-1.2-2-3.8-1.3-4.6,0.6
			c-1.4,3.3-1.6,6.6-1.1,10.2c0.4,2.8,4.9,2.1,4.9-0.7c0-2.5,0-4.9,0-7.4c0-3.2-5-3.2-5,0c0,2.5,0,4.9,0,7.4
			c1.6-0.2,3.3-0.4,4.9-0.7c-0.4-2.6,0.1-5.1,1.1-7.5c-1.5,0.2-3,0.4-4.6,0.6c1.1,2,1.9,4,2.2,6.2c0.3,2.6,4.2,3.7,4.9,0.7
			c1.1-4.6,2.1-9.2,3.2-13.9C283.9,142.3,279.1,141,278.4,144.1L278.4,144.1z"/>
	</g>
</g>
<g>
	<g>
		<path d="M272.7,146.7c-2.4,5.2-3,10.3-1.6,15.9c0.7,2.9,4.6,2,4.9-0.7c0.5-4.1,2.8-14.4-1.7-17.1c-3.5-2.1-7,1-7.6,4.5
			c-0.6,3.4,0.2,7.2,0.1,10.7c-0.1,3.8-0.4,7.6-0.8,11.3c-1,8.6-2.9,17.1-4.8,25.5c-0.6,2.8,3,4.4,4.6,1.9c7-11.1,11-23.5,12.1-36.5
			c0.3-3.2-4.7-3.2-5,0c-1,12.2-4.9,23.7-11.4,34c1.5,0.6,3,1.3,4.6,1.9c2.2-9.8,4.3-19.7,5.3-29.7c0.5-5,0.6-10.1,0.4-15.1
			c-0.2-3.3-0.2-2.5-0.2,0.3c0,2.8-0.2,5.5-0.6,8.3c1.6-0.2,3.3-0.4,4.9-0.7c-1-4.2-0.7-8.1,1.1-12
			C278.4,146.3,274.1,143.7,272.7,146.7L272.7,146.7z"/>
	</g>
</g>
<g>
	<g>
		<path d="M280.4,154c-3,7.1-6.7,13.8-11.1,20.1c1.5,0.2,3,0.4,4.6,0.6c-1.4-4.5-1.8-9-1.1-13.6c0.5-3.1-4.3-4.5-4.8-1.3
			c-0.9,5.6-0.6,10.9,1.1,16.3c0.7,2.2,3.4,2.3,4.6,0.6c4.4-6.3,8.1-13,11.1-20.1C286,153.6,281.7,151.1,280.4,154L280.4,154z"/>
	</g>
</g>
<g>
	<path class="st2" d="M98.8,390.7c1.5,6.6-0.8,13.6-5.1,18.8c-4.2,5.2-10.2,8.9-16.3,11.6c12-1.2,24.1,8,26.2,19.9
		c4.2-5,3.4-12.8,7.4-18c2.4-3.2,6.3-5,8.7-8.2c0.4-0.5,0.7-1.1,0.7-1.7c0-1.3-1.4-2-2.6-2.4c-7.2-2.8-14.4-7.7-16.2-15.2"/>
	<g>
		<path class="st2" d="M96.4,391.3C98.9,404.9,87,414,76.2,419c-2.2,1-1.1,4.8,1.3,4.7c11.3-0.7,21.4,7,23.7,18.1
			c0.5,2.3,3.4,2.2,4.6,0.6c3.3-4.4,3.6-9.7,5.6-14.6c2.2-5.5,8.7-7.1,11-12.3c1.6-3.5-1-5.6-3.9-7c-6.3-3-12.4-6.3-14.4-13.5
			c-0.9-3.1-5.7-1.8-4.8,1.3c1.3,4.4,3.7,8,7.3,10.9c1.7,1.4,3.5,2.6,5.4,3.6c1,0.6,2.4,0.9,3.3,1.6c1.7,1.2,1.8,1.3,0.7,2.9
			c-1.2,1.9-4.1,3.2-5.7,4.9c-1.5,1.6-2.5,3.3-3.3,5.3c-2,4.8-2.2,10.1-5.4,14.4c1.5,0.2,3,0.4,4.6,0.6
			c-2.7-13.1-15.2-22.6-28.6-21.8c0.4,1.6,0.8,3.1,1.3,4.7c13.2-6.1,25.5-17.4,22.5-33.3C100.7,386.9,95.8,388.2,96.4,391.3
			L96.4,391.3z"/>
	</g>
</g>
<g>
	<path class="st2" d="M176.5,254.3c0.9,7.9-1.8,16.2-7.2,22.1c-0.8,0.8-1.6,1.8-1.5,2.9c0.2,1.3,1.6,1.9,2.9,2
		c1.3,0,2.5-0.4,3.8-0.3c5,0.5,6.1,7.6,10.4,10.1c4.1-8.7,9.4-16.9,15.8-24.1c-8.1-3.7-16.2-7.4-24.3-11.2"/>
	<g>
		<path class="st2" d="M174,254.3c0.5,6.3-0.8,12.4-4.4,17.7c-1.9,2.8-6.1,6-3.4,9.7c2.7,3.6,7.1,0.5,10,2.9c3,2.5,4.1,6.4,7.4,8.7
			c1,0.7,2.9,0.3,3.4-0.9c4.1-8.6,9.2-16.5,15.4-23.6c1-1.1,1.1-3.2-0.5-3.9c-8.1-3.7-16.2-7.4-24.3-11.2c-2.9-1.3-5.4,3-2.5,4.3
			c8.1,3.7,16.2,7.4,24.3,11.2c-0.2-1.3-0.3-2.6-0.5-3.9c-6.5,7.5-11.9,15.7-16.2,24.6c1.1-0.3,2.3-0.6,3.4-0.9c-2.9-2-4-5.6-6.4-8
			c-1-1-2.2-1.8-3.6-2.2c-1-0.3-4.2,0.2-4.7-0.4c-0.4-0.5,4.8-8.2,5.6-10.1c1.7-4.5,2.3-9.2,1.9-14C178.7,251.1,173.7,251,174,254.3
			L174,254.3z"/>
	</g>
</g>
<g>
	<g>
		<path class="st2" d="M225.9,164.5c-0.3,6.1-2,11.8-5.1,17.1c-0.7,1.2-0.2,2.6,0.9,3.4c3.6,2.5,8.5,1,10.9,5.1
			c1.4,2.3,1.6,6,4.9,6.7c3.1,0.6,4.5-2.3,5.7-4.6c2.7-5.3,5.3-10.7,8-16.1c0.9-1.8-0.2-3.5-2.2-3.8c-7.5-0.9-14.4-3.5-20.7-7.6
			c-2.7-1.8-5.2,2.6-2.5,4.3c7.1,4.6,14.8,7.3,23.2,8.3c-0.7-1.3-1.4-2.5-2.2-3.8c-2.1,4.2-4.2,8.4-6.2,12.5
			c-0.2,0.3-2.4,5.4-2.7,5.4c1,0-0.3-2.8-0.5-3.1c-1-2-2.4-3.7-4.4-4.9c-2.8-1.7-6.3-1-8.9-2.8c0.3,1.1,0.6,2.3,0.9,3.4
			c3.5-6.1,5.4-12.6,5.8-19.6C231.1,161.3,226.1,161.3,225.9,164.5L225.9,164.5z"/>
	</g>
</g>
<g>
	<g>
		<path class="st2" d="M249.4,222.5c12.2-0.7,22.6-6.6,33.4-11.9c12.9-6.4,26.7-10.6,40.4-14.7c3.1-0.9,1.8-5.8-1.3-4.8
			c-12.5,3.7-24.9,7.5-36.8,12.9c-11.6,5.2-22.6,12.8-35.7,13.5C246.2,217.7,246.2,222.7,249.4,222.5L249.4,222.5z"/>
	</g>
</g>
<g>
	<g>
		<path class="st2" d="M256.8,200.6c21.3,5.3,42.7,10.1,64.2,14.6c3.1,0.6,4.5-4.2,1.3-4.8c-21.5-4.4-42.9-9.3-64.2-14.6
			C255,195,253.7,199.8,256.8,200.6L256.8,200.6z"/>
	</g>
</g>
<g>
	<path class="st2" d="M135.7,188.4c1.5,8.5-2.5,17.7-9.8,22.4c-1.2,0.8-2.6,1.8-2.4,3.2c0.3,1.6,2.4,1.9,4,2.1
		c6.4,0.7,12,5.8,13.3,12.1c3.6-8.6,7.2-17.1,10.8-25.7c-5.3-2.4-9.2-7.6-10.1-13.3"/>
	<g>
		<path class="st2" d="M133.3,189.1c0.8,5.8-0.9,11.8-4.8,16.2c-2.2,2.5-7.3,4.3-7.4,8.2c-0.1,3.1,2.5,4.4,5.1,4.9
			c6.1,1.3,10.6,4.1,12.2,10.4c0.7,2.6,3.9,2.1,4.8,0c3.6-8.6,7.2-17.1,10.8-25.7c0.4-1-0.3-2.4-1.1-2.8c-4.8-2.5-7.8-6.5-8.9-11.8
			c-0.6-3.2-5.5-1.8-4.8,1.3c1.3,6.5,5.3,11.8,11.2,14.8c-0.4-0.9-0.8-1.9-1.1-2.8c-3.6,8.6-7.2,17.1-10.8,25.7c1.6,0,3.2,0,4.8,0
			c-1.1-4.2-3.4-7.9-6.9-10.5c-1.8-1.3-3.9-2.4-6.1-2.9c-0.9-0.2-1.8-0.2-2.7-0.5c-2-0.6-0.8-0.4,0.8-1.4c7.9-5.2,11-15.4,9.7-24.4
			C137.7,184.6,132.8,185.9,133.3,189.1L133.3,189.1z"/>
	</g>
</g>
<g>
	<path class="st2" d="M209.7,439.9c0.9,7.8-1,16-5.3,22.6c-0.4,0.6-0.9,1.4-0.8,2.1c0.2,1.2,1.6,1.8,2.8,2.2
		c5.5,2.1,9.1,8.3,8.2,14.1c3.5-8.3,8.3-16,14.2-22.8c0.6-0.7,1.3-1.8,0.6-2.5c-0.3-0.3-0.7-0.4-1.1-0.5c-6.3-1.8-11.4-7.2-13-13.5"
		/>
	<g>
		<path class="st2" d="M207.2,439.9c0.4,4.9,0,9.7-1.6,14.3c-1.1,3.1-4.8,7-4.5,10.4c0.2,3.1,3,3.7,5.3,4.9
			c4.3,2.3,6.2,6.7,5.7,11.4c-0.2,2.4,3.7,3.5,4.7,1.3c2-4.6,4.4-9.1,7.1-13.4c1.6-2.4,3.3-4.8,5.1-7c1-1.2,2.6-2.7,3-4.3
			c0.8-3.2-1.6-4.2-4-5.2c-5.1-2.2-8.7-6-10.2-11.4c-0.9-3.1-5.7-1.8-4.8,1.3c2.4,8.4,7.9,11.9,15.2,15.6c-0.4-0.7-0.8-1.4-1.2-2.2
			c0.2,1.5-2.6,4-3.5,5.2c-1.5,2-3,4.1-4.3,6.2c-2.6,4-4.8,8.3-6.7,12.7c1.6,0.4,3.1,0.8,4.7,1.3c0.4-3.4-0.3-6.7-2-9.7
			c-0.9-1.5-2.1-3-3.4-4.1c-1.1-1-3.4-1.6-4.3-2.6c-1.2-1.4,0.4-2.7,1.2-4.5c0.9-2,1.8-4,2.4-6.1c1.3-4.6,1.6-9.3,1.2-14.1
			C211.9,436.8,206.9,436.7,207.2,439.9L207.2,439.9z"/>
	</g>
</g>
<g>
	<path class="st2" d="M111,289.3c1.7,5.3,3.4,10.7,5,16c0.2,0.5,0.3,1,0.3,1.5c-0.3,2-3.1,2.1-5.1,2.2c-7.6,0.2-12.9,7.8-15.5,14.9
		c0.6-4.9-1-10-4.2-13.7c-0.7-0.8-1.5-1.6-1.6-2.7c-0.1-2.2,2.7-3,4.8-3.6c6.2-1.7,11-7.6,11.4-14"/>
	<g>
		<path class="st2" d="M108.6,289.9c0.7,2.4,1.5,4.7,2.2,7.1c0.7,2.1,2.7,5.8,2.5,8c-0.2,2,1.1,0.3-0.4,1.3
			c-0.5,0.3-1.9,0.1-2.5,0.2c-1.5,0.2-3,0.5-4.4,1c-6.6,2.7-10.4,9.4-12.8,15.6c1.6,0.2,3.3,0.4,4.9,0.7c0.3-3.7-0.3-7.2-1.8-10.6
			c-0.7-1.5-2.6-3.3-3.1-4.9c-0.7-2.1,1.9-1.9,3.7-2.6C103.7,303.1,107.8,297,108.6,289.9c0.3-3.2-4.7-3.1-5,0
			c-0.5,4.6-3.4,8.8-7.6,10.8c-2.6,1.3-6.1,1.4-7.8,4.1c-1.3,2.1-0.7,4.1,0.6,6c2.9,4.3,4.8,7.6,4.4,13c-0.2,3,4,3.1,4.9,0.7
			c1.6-4.1,3.9-8.3,7.5-10.9c3.4-2.5,7.3-1.2,10.7-3.1c2.3-1.3,2.8-3.5,2.2-5.9c-1.2-5.4-3.4-10.7-5-16
			C112.4,285.5,107.6,286.8,108.6,289.9L108.6,289.9z"/>
	</g>
</g>
<g>
	<path class="st2" d="M227.6,363.1c-1.5,3.9-3.1,7.8-4.6,11.7c-0.2,0.6-0.4,1.2-0.3,1.7c0.2,0.7,0.8,1.1,1.4,1.6
		c3.5,2.5,6.2,6,7.8,10c2.6-7,6.2-13.7,10.6-19.8c-4.8-0.7-9.5-2.2-13.8-4.4"/>
	<g>
		<path class="st2" d="M225.2,362.5c-1.2,3.1-2.4,6.1-3.6,9.2c-0.7,1.7-1.8,3.7-1.3,5.6c0.5,1.7,2,2.5,3.3,3.6
			c2.7,2.4,4.7,5.2,6.1,8.5c1,2.2,3.9,1.2,4.6-0.6c2.6-6.9,6.1-13.2,10.3-19.2c0.9-1.2,0-3.4-1.5-3.7c-4.7-0.7-9-2.1-13.2-4.2
			c-2.9-1.4-5.4,2.9-2.5,4.3c4.6,2.3,9.3,3.9,14.4,4.7c-0.5-1.2-1-2.4-1.5-3.7c-4.5,6.4-8,13.1-10.8,20.4c1.5-0.2,3-0.4,4.6-0.6
			c-0.9-2-1.9-3.8-3.2-5.5c-1.2-1.7-3.2-2.9-4.3-4.5c-1.5-2-0.4-3.2,0.5-5.5c1-2.5,2-5,2.9-7.5C231.2,360.8,226.4,359.5,225.2,362.5
			L225.2,362.5z"/>
	</g>
</g>
<g>
	<path class="st2" d="M408,302.7c1.2,6.5-0.3,13.5-4,19c-0.5,0.8-1.1,1.6-0.8,2.5c0.2,0.7,0.8,1.1,1.4,1.4c2.6,1.3,5.6,1.4,8.4,2.1
		c2.8,0.7,5.7,2.6,6.1,5.4c-0.5-7.1-0.5-15.6,5.3-19.9c-6.4,0.1-12.8-2-17.9-5.8"/>
	<g>
		<path class="st2" d="M405.6,303.3c0.7,4.8,0.1,9.8-2.1,14.2c-1.1,2.2-3.5,4.6-2.7,7.3c1.9,6.9,14.1,2.1,15.9,9
			c0.7,2.7,5.1,2.2,4.9-0.7c-0.4-6.4-0.8-13.6,4.5-18.1c1.7-1.5,0.3-4.2-1.8-4.3c-6.2-0.1-11.6-2-16.6-5.5c-2.6-1.8-5.1,2.5-2.5,4.3
			c5.7,4,12.2,6,19.2,6.2c-0.6-1.4-1.2-2.8-1.8-4.3c-6.3,5.4-6.5,14-6,21.6c1.6-0.2,3.3-0.4,4.9-0.7c-0.7-2.7-2.4-4.7-4.9-6
			c-2.2-1.2-9.2-1.1-10.1-3c-0.5-1.1,3.3-8.2,3.7-10.2c0.8-3.8,0.7-7.5,0.1-11.2C409.9,298.8,405.1,300.2,405.6,303.3L405.6,303.3z"
			/>
	</g>
</g>
<g>
	<path class="st2" d="M380.2,178.1c1,5.4-1.7,11.3-6.3,14.2c-1.9,1.2-4.4,2.6-3.9,4.8c0.1,0.6,0.5,1.1,0.8,1.5
		c2.5,3.6,5,7.2,7.5,10.8c0.5,0.7,1.2,1.5,2,1.4c0.5-0.1,0.9-0.5,1.2-0.8c3.7-3.9,7.4-7.8,11.1-11.6c0.4-0.4,0.8-0.8,0.8-1.4
		c0-0.6-0.5-1-0.9-1.4c-5-4.2-10.1-8.5-15.1-12.7"/>
	<g>
		<path class="st2" d="M377.7,178.1c0.6,5.3-1.3,9.3-5.7,12.4c-2.2,1.6-4.4,3-4.5,5.9c-0.1,3.8,4.4,8.1,6.4,11.1
			c1.5,2.2,3.3,6,6.6,5.6c2.8-0.3,5.2-4.2,7-6c2.4-2.5,6.7-5.6,7.9-8.8c1-2.7-1-4.3-2.9-5.9c-4.5-3.9-9.1-7.6-13.6-11.4
			c-2.4-2.1-6,1.5-3.5,3.5c3,2.5,6,5.1,9.1,7.6c1.3,1.1,2.5,2.1,3.8,3.2c0.6,0.5,2.6,3.1,2.5,1.2c0.1,1.3-6.3,6.6-7.4,7.8
			c-0.8,0.8-2.1,2.9-3.1,3.2c-0.7,1.1-1,0.8-1-0.9c-0.5-0.8-1.1-1.5-1.6-2.3c-1.6-2.4-6.1-6.3-3.8-9.1c1.3-1.6,3.6-2.4,4.9-4.1
			c3.1-3.7,4.3-8.3,3.8-13C382.4,174.9,377.4,174.9,377.7,178.1L377.7,178.1z"/>
	</g>
</g>
<g>
	<path class="st2" d="M390.5,449.6c2.6,5.6,1.2,12.8-3.3,17.1c-1.3,1.2-2.8,2.2-3.7,3.8c-0.9,1.5-0.8,3.8,0.7,4.7
		c1.3,0.8,3,0.2,4.5,0.5c3.6,0.8,4,5.7,5.8,9c0.3,0.5,0.7,1.1,1.3,1.1c0.9,0.1,1.5-0.9,1.9-1.7c3-6.8,5.9-13.7,8.9-20.5
		c0.3-0.8,0.7-1.6,0.4-2.4c-0.2-0.6-0.7-1.1-1.2-1.5c-4.4-3.5-10.6-5.7-12.1-11.1"/>
	<g>
		<path class="st2" d="M388.1,450.3c2.3,5.9,0.8,11.2-3.7,15.6c-2.3,2.3-4.8,4.8-3.8,8.4c1.3,4.9,6.4,2.3,9,5.3
			c2.1,2.5,1.5,7.5,5.2,8.6c3.6,1.1,5-2.7,6.1-5.3c2.5-5.7,5-11.3,7.4-17.1c1.3-3.2,1.7-5.5-1.1-8c-3.7-3.3-9.4-4.7-11.2-9.8
			c-1.1-3-5.9-1.7-4.8,1.3c1.1,2.9,2.7,5,5.1,7c2.8,2.2,8,3.6,7.3,7.8c-0.3,2.2-2.1,4.8-3,6.8c-1,2.3-2,4.6-3,6.8
			c-0.5,1.1-1,2.3-1.5,3.4c-1.2,1.2-1.1,2,0.4,2.3c-1-0.9-1.4-3.6-2-4.8c-1-2.1-2.1-4-4.3-5c-1-0.4-4.7-0.3-4.8-1.5
			c-0.1-1.2,3.6-3.8,4.4-4.7c4.4-5.1,5.4-12.3,3-18.5C391.7,446,386.9,447.3,388.1,450.3L388.1,450.3z"/>
	</g>
</g>
<g>
	<path class="st2" d="M512.8,411.4c0.8,7.2,0,14.5-2.3,21.4c-0.2,0.7-0.5,1.5-0.2,2.2c0.3,0.5,0.8,0.8,1.3,1c2.5,1,5.3,0.6,8,1
		s5.6,1.7,6.1,4.4c-1.2-6.5,0-13.5,3.4-19.3c-2-1.6-4.9-1.2-7.5-1.1c-2.6,0.1-5.7-0.7-6.4-3.2"/>
	<g>
		<path class="st2" d="M510.3,411.4c0.4,4.6,0.4,9.2-0.4,13.7c-0.5,2.9-2.7,6.8-2.1,9.8c1.5,7.2,13.3,1.1,15.5,7
			c1.2,3,5.3,1.8,4.8-1.3c-0.9-6.1,0.2-11.9,3.1-17.3c0.6-1.2,0.3-2.7-0.9-3.4c-1.8-1-3.5-1.5-5.6-1.6c-2.4-0.1-6.2,1-7.4-1.8
			c-1.3-2.9-5.6-0.4-4.3,2.5c3,6.5,10,2.4,14.8,5.2c-0.3-1.1-0.6-2.3-0.9-3.4c-3.6,6.7-4.8,13.7-3.6,21.2c1.6-0.4,3.2-0.9,4.8-1.3
			c-0.9-2.4-2.3-4.1-4.6-5.2c-1.1-0.5-2.3-0.8-3.6-1c-1.4-0.2-5,0.3-6.1-0.5c-1.6-1-0.3-2.3,0.1-4c0.5-2,0.9-4,1.2-6
			c0.6-4.2,0.6-8.4,0.2-12.6C515,408.2,510,408.2,510.3,411.4L510.3,411.4z"/>
	</g>
</g>
<g>
	<path class="st2" d="M327.9,320.9c0.6,4.3-0.1,8.8-2.1,12.7c-0.5,0.9-1,1.9-0.9,2.9c0.1,1.1,0.9,2,1.7,2.9c1.6,1.6,3.2,3.3,4.8,4.9
		c0.9,0.9,2,1.9,3.2,1.4c0.6-0.2,1.1-0.8,1.5-1.4c2.3-3.3,4.6-6.7,6.9-10c0.7-1.1,1.5-2.3,1.4-3.5c-0.2-1.9-2.2-3-4-3.7
		c-4.2-1.8-8.5-3.6-12.7-5.3"/>
	<g>
		<path class="st2" d="M325.4,320.9c0.6,5.3-1.2,8.6-2.7,13.5c-0.7,2.3-0.1,4.1,1.3,5.9c2.8,3.7,8.7,11.1,13.5,6.2
			c2.6-2.7,4.5-6.4,6.6-9.5c1.5-2.3,3.3-4.6,2.4-7.4c-0.7-2.4-2.8-3.7-5-4.7c-4.3-2-8.9-3.7-13.3-5.6c-3-1.2-4.3,3.6-1.3,4.8
			c2.8,1.2,14.5,4.3,14.5,7.8c0,1.3-2.9,4.3-3.7,5.4c-0.9,1.3-2.2,4.3-3.8,4.7c-1.6,0.4-3.4-1.8-4.5-3.2c-1.7-2.4-1.7-3.4-0.7-6.1
			c1.5-3.8,1.9-7.8,1.5-11.9C330.1,317.7,325.1,317.7,325.4,320.9L325.4,320.9z"/>
	</g>
</g>
<g>
	<path class="st2" d="M272.5,512.9c0.3,3.6-0.8,7.2-2.8,10.1c-0.7,1-1.6,2.1-1.3,3.3c0.1,0.5,0.5,1,0.9,1.4c2.5,2.9,4.9,5.8,7.4,8.6
		c4.4-5.5,8.1-11.6,11.1-18c0.2-0.4,0.4-0.9,0.3-1.4c-0.2-0.6-0.8-0.8-1.4-1c-4.6-1.5-9.4-2.3-14.2-2.4"/>
	<g>
		<path class="st2" d="M270,512.9c0.1,3.7-1,6.2-2.8,9.4c-0.9,1.5-1.6,3-1.2,4.7c0.4,1.5,1.6,2.6,2.6,3.7c2.1,2.5,4.2,4.9,6.4,7.4
			c0.8,0.9,2.8,1,3.5,0c2.6-3.4,5.1-6.9,7.3-10.6c1.6-2.7,4.9-6.9,4.8-10.2c-0.2-6.1-13.9-6.1-18.1-6.2c-3.2-0.1-3.2,4.9,0,5
			c2.7,0.1,5.4,0.3,8.1,0.9c3.3,0.7,5,0.4,3.2,3.8c-2.6,4.9-5.5,9.5-8.9,13.8c1.2,0,2.4,0,3.5,0c-1.6-1.8-3.2-3.7-4.8-5.5
			c-1.6-1.9-3-2.5-1.8-4.7c2-3.7,3.3-7,3.2-11.4C274.9,509.7,269.9,509.7,270,512.9L270,512.9z"/>
	</g>
</g>
<g>
	<path class="st1" d="M566.5,153.8c-14.9-13.1-33.5-22-53.1-25.5c-3-0.5-6.3-0.9-8.9,0.6c-1.9,1.1-3.2,3.1-4.3,5
		c-10.8,19.5-9.3,45.1,3.6,63.3c3,4.2,6.6,8.2,8.4,13c4,11-2.2,22.8-3.9,34.4c-3,20.9,9.7,41.6,26.9,53.8
		c17.2,12.2,38.3,17.5,59,21.6c4.9,1,9.8,1.9,14.1,4.4c4.8,2.7,8.4,7,12.3,10.9c21.3,21.8,52.2,34.6,82.5,31.8
		c30.3-2.8,59.2-22,71.3-50c12-28,5.3-63.6-17.6-83.6c-9.8-8.6-21.9-14.1-34.2-18.6c-1.9-0.7-3.9-1.4-5.4-2.8
		c-3.3-3.3-2.4-8.7-1.2-13.2c8.3-28.6,26.2-54.4,50.1-72.2c7.2-5.3,15.4-10.6,18.3-19.1c3.2-9.5-1.7-20.3-9.4-26.6
		c-7.8-6.3-17.8-9.1-27.6-11c-30.7-6.1-62.6-5.8-93.2,0.8c-12.7,2.7-25.3,6.6-36.3,13.6c-23.6,15-36.2,41.9-47.7,67.4"/>
	<g>
		<path class="st1" d="M568.3,152.1c-13.9-12-30.5-20.8-48.5-25c-7.2-1.7-15.2-3.6-20.2,3.3c-4.7,6.4-7.1,15.2-8.3,23
			c-2.4,16.6,1.8,33.6,11.8,47.1c2.8,3.8,5.9,7.5,7.3,12.2c1.6,5.7,0.3,11.8-1.1,17.4c-2.2,8.9-4.5,17.4-3.4,26.7
			c4.8,38.6,44.3,56,77.6,63.6c9.7,2.2,20.6,2.9,28.4,9.7c6.7,5.9,12.4,12.6,19.5,18c14.7,11.1,32.1,18.5,50.3,21
			c32.8,4.5,66.9-9.1,86.5-36.1c18.9-26.1,19.5-63.4,0.7-89.8c-10.4-14.6-26-23.3-42.5-29.6c-2.3-0.9-5.7-1.5-7.4-3.4
			c-2-2.1-1.7-5.4-1.2-8c0.9-4.5,2.6-9,4.3-13.4c3.4-8.7,7.7-17.1,12.7-25c10.5-16.3,24.1-28.3,39.3-40c6.2-4.8,12.1-10.6,13.5-18.6
			c1.4-7.6-1.5-15.4-6.2-21.4c-11.4-14.5-33.1-17-50.1-19.2c-21.5-2.7-43.2-2.3-64.6,1c-19.4,3-39.5,8-55.3,20
			c-13.9,10.5-23.8,25.3-31.8,40.5c-4.1,7.9-7.8,16-11.5,24.1c-1.3,2.9,3,5.5,4.3,2.5c6.7-15,13.6-30,23.2-43.4
			c10.7-14.9,24.7-25.9,42.1-31.8c18.9-6.4,39.3-9.1,59.2-9.6c19.8-0.5,40.5,1,59.6,6.5c8.9,2.6,17.8,6.9,22.8,15
			c5.1,8.3,4.6,17.6-2,24.8c-5.5,6-12.9,10.2-19.1,15.4c-6.3,5.3-12.1,11.2-17.4,17.6c-10.3,12.4-18.5,26.5-24.1,41.7
			c-2.3,6.2-6.1,14.7-3.3,21.4c2.7,6.6,12,7.9,17.8,10.4c16,6.9,30,17,38.3,32.6c7.2,13.6,9.9,29.8,7.6,45.1
			c-4.8,32.3-31.9,57-62.9,64.2c-34.7,8-69.9-6.8-94-31.7c-5.7-5.9-11.4-10.2-19.6-12.3c-8.8-2.2-17.8-3.7-26.6-6
			c-17.4-4.7-34.9-12-47.5-25.3c-12.1-12.8-18.7-29.9-14.7-47.4c1.9-8.3,5.2-16.8,4-25.5c-1.1-8.3-6.7-13.8-11.1-20.5
			c-9.1-14.1-11.5-32.3-6.7-48.4c1.2-3.9,2.7-7.7,4.7-11.2c3.5-5.8,9.2-4.2,14.9-3c8.7,2,17.1,5,25,9c7.9,4,15.3,9,22.1,14.9
			C567.2,157.7,570.7,154.2,568.3,152.1L568.3,152.1z"/>
	</g>
</g>
<g>
	<path class="st2" d="M541,163.2c1.5,6.6-0.8,13.6-5.1,18.8c-4.2,5.2-10.2,8.9-16.3,11.6c12-1.2,24.1,8,26.2,19.9
		c4.2-5,3.4-12.8,7.4-18c2.4-3.2,6.3-5,8.7-8.2c0.4-0.5,0.7-1.1,0.7-1.7c0-1.3-1.4-2-2.6-2.4c-7.2-2.8-14.4-7.7-16.2-15.2"/>
	<g>
		<path class="st2" d="M538.6,163.9c2.5,13.5-9.4,22.6-20.2,27.6c-2.2,1-1.1,4.8,1.3,4.7c11.3-0.7,21.4,7,23.7,18.1
			c0.5,2.3,3.4,2.2,4.6,0.6c3.3-4.4,3.6-9.7,5.6-14.6c2.2-5.5,8.7-7.1,11-12.3c1.6-3.5-1-5.6-3.9-7c-6.3-3-12.4-6.3-14.4-13.5
			c-0.9-3.1-5.7-1.8-4.8,1.3c1.3,4.4,3.7,8,7.3,10.9c1.7,1.4,3.5,2.6,5.4,3.6c1,0.6,2.4,0.9,3.3,1.6c1.7,1.2,1.8,1.3,0.7,2.9
			c-1.2,1.9-4.1,3.2-5.7,4.9c-1.5,1.6-2.5,3.3-3.3,5.3c-2,4.8-2.2,10.1-5.4,14.4c1.5,0.2,3,0.4,4.6,0.6
			c-2.7-13.1-15.2-22.6-28.6-21.8c0.4,1.6,0.8,3.1,1.3,4.7c13.2-6.1,25.5-17.4,22.5-33.3C542.8,159.4,538,160.7,538.6,163.9
			L538.6,163.9z"/>
	</g>
</g>
<g>
	<path class="st2" d="M602.6,256.2c1.5,6.6-0.8,13.6-5.1,18.8c-4.2,5.2-10.2,8.9-16.3,11.6c12-1.2,24.1,8,26.2,19.9
		c4.2-5,3.4-12.8,7.4-18c2.4-3.2,6.3-5,8.7-8.2c0.4-0.5,0.7-1.1,0.7-1.7c0-1.3-1.4-2-2.6-2.4c-7.2-2.8-14.4-7.7-16.2-15.2"/>
	<g>
		<path class="st2" d="M600.2,256.9c2.5,13.5-9.4,22.6-20.2,27.6c-2.2,1-1.1,4.8,1.3,4.7c11.3-0.7,21.4,7,23.7,18.1
			c0.5,2.3,3.4,2.2,4.6,0.6c3.3-4.4,3.6-9.7,5.6-14.6c2.2-5.5,8.7-7.1,11-12.3c1.6-3.5-1-5.6-3.9-7c-6.3-3-12.4-6.3-14.4-13.5
			c-0.9-3.1-5.7-1.8-4.8,1.3c1.3,4.4,3.7,8,7.3,10.9c1.7,1.4,3.5,2.6,5.4,3.6c1,0.6,2.4,0.9,3.3,1.6c1.7,1.2,1.8,1.3,0.7,2.9
			c-1.2,1.9-4.1,3.2-5.7,4.9c-1.5,1.6-2.5,3.3-3.3,5.3c-2,4.8-2.2,10.1-5.4,14.4c1.5,0.2,3,0.4,4.6,0.6
			c-2.7-13.1-15.2-22.6-28.6-21.8c0.4,1.6,0.8,3.1,1.3,4.7c13.2-6.1,25.5-17.4,22.5-33.3C604.4,252.4,599.6,253.7,600.2,256.9
			L600.2,256.9z"/>
	</g>
</g>
<g>
	<path class="st2" d="M630.4,122.7c1.5,6.6-0.8,13.6-5.1,18.8s-10.2,8.9-16.3,11.6c12-1.2,24.1,8,26.2,19.9c4.2-5,3.4-12.8,7.4-18
		c2.4-3.2,6.3-5,8.7-8.2c0.4-0.5,0.7-1.1,0.7-1.7c0-1.3-1.4-2-2.6-2.4c-7.2-2.8-14.4-7.7-16.2-15.2"/>
	<g>
		<path class="st2" d="M627.9,123.3c2.5,13.5-9.4,22.6-20.2,27.6c-2.2,1-1.1,4.8,1.3,4.7c11.3-0.7,21.4,7,23.7,18.1
			c0.5,2.3,3.4,2.2,4.6,0.6c3.3-4.4,3.6-9.7,5.6-14.6c2.2-5.5,8.7-7.1,11-12.3c1.6-3.5-1-5.6-3.9-7c-6.3-3-12.4-6.3-14.4-13.5
			c-0.9-3.1-5.7-1.8-4.8,1.3c1.3,4.4,3.7,8,7.3,10.9c1.7,1.4,3.5,2.6,5.4,3.6c1,0.6,2.4,0.9,3.3,1.6c1.7,1.2,1.8,1.3,0.7,2.9
			c-1.2,1.9-4.1,3.2-5.7,4.9c-1.5,1.6-2.5,3.3-3.3,5.3c-2,4.8-2.2,10.1-5.4,14.4c1.5,0.2,3,0.4,4.6,0.6
			c-2.7-13.1-15.2-22.6-28.6-21.8c0.4,1.6,0.8,3.1,1.3,4.7c13.2-6.1,25.5-17.4,22.5-33.3C632.2,118.8,627.4,120.2,627.9,123.3
			L627.9,123.3z"/>
	</g>
</g>
<g>
	<path class="st2" d="M720,248.4c1.5,6.6-0.8,13.6-5.1,18.8c-4.2,5.2-10.2,8.9-16.3,11.6c12-1.2,24.1,8,26.2,19.9
		c4.2-5,3.4-12.8,7.4-18c2.4-3.2,6.3-5,8.7-8.2c0.4-0.5,0.7-1.1,0.7-1.7c0-1.3-1.4-2-2.6-2.4c-7.2-2.8-14.4-7.7-16.2-15.2"/>
	<g>
		<path class="st2" d="M717.6,249.1c2.5,13.5-9.4,22.6-20.2,27.6c-2.2,1-1.1,4.8,1.3,4.7c11.3-0.7,21.4,7,23.7,18.1
			c0.5,2.3,3.4,2.2,4.6,0.6c3.3-4.4,3.6-9.7,5.6-14.6c2.2-5.5,8.7-7.1,11-12.3c1.6-3.5-1-5.6-3.9-7c-6.3-3-12.4-6.3-14.4-13.5
			c-0.9-3.1-5.7-1.8-4.8,1.3c1.3,4.4,3.7,8,7.3,10.9c1.7,1.4,3.5,2.6,5.4,3.6c1,0.6,2.4,0.9,3.3,1.6c1.7,1.2,1.8,1.3,0.7,2.9
			c-1.2,1.9-4.1,3.2-5.7,4.9c-1.5,1.6-2.5,3.3-3.3,5.3c-2,4.8-2.2,10.1-5.4,14.4c1.5,0.2,3,0.4,4.6,0.6
			c-2.7-13.1-15.2-22.6-28.6-21.8c0.4,1.6,0.8,3.1,1.3,4.7c13.2-6.1,25.5-17.4,22.5-33.3C721.9,244.6,717,245.9,717.6,249.1
			L717.6,249.1z"/>
	</g>
</g>
<g>
	<path class="st2" d="M713.7,85.9c1.5,6.6-0.8,13.6-5.1,18.8c-4.2,5.2-10.2,8.9-16.3,11.6c12-1.2,24.1,8,26.2,19.9
		c4.2-5,3.4-12.8,7.4-18c2.4-3.2,6.3-5,8.7-8.2c0.4-0.5,0.7-1.1,0.7-1.7c0-1.3-1.4-2-2.6-2.4c-7.2-2.8-14.4-7.7-16.2-15.2"/>
	<g>
		<path class="st2" d="M711.3,86.6c2.5,13.5-9.4,22.6-20.2,27.6c-2.2,1-1.1,4.8,1.3,4.7c11.3-0.7,21.4,7,23.7,18.1
			c0.5,2.3,3.4,2.2,4.6,0.6c3.3-4.4,3.6-9.7,5.6-14.6c2.2-5.5,8.7-7.1,11-12.3c1.6-3.5-1-5.6-3.9-7c-6.3-3-12.4-6.3-14.4-13.5
			c-0.9-3.1-5.7-1.8-4.8,1.3c1.3,4.4,3.7,8,7.3,10.9c1.7,1.4,3.5,2.6,5.4,3.6c1,0.6,2.4,0.9,3.3,1.6c1.7,1.2,1.8,1.3,0.7,2.9
			c-1.2,1.9-4.1,3.2-5.7,4.9c-1.5,1.6-2.5,3.3-3.3,5.3c-2,4.8-2.2,10.1-5.4,14.4c1.5,0.2,3,0.4,4.6,0.6
			c-2.7-13.1-15.2-22.6-28.6-21.8c0.4,1.6,0.8,3.1,1.3,4.7c13.2-6.1,25.5-17.4,22.5-33.3C715.5,82.1,710.7,83.4,711.3,86.6
			L711.3,86.6z"/>
	</g>
</g>
<g>
	<g>
		<path class="st2" d="M157.9,94.8C138,80,117,66.9,94.9,55.6c-2.9-1.5-5.4,2.9-2.5,4.3c22.1,11.3,43.1,24.4,63,39.2
			C157.9,101.1,160.4,96.8,157.9,94.8L157.9,94.8z"/>
	</g>
</g>
<g>
	<g>
		<path class="st2" d="M127,128.3c-6.6-2.2-12.9-4.9-19.1-8.1c-2.8-1.5-5.4,2.8-2.5,4.3c6.5,3.4,13.3,6.3,20.3,8.6
			C128.7,134.1,130,129.3,127,128.3L127,128.3z"/>
	</g>
</g>
<g>
	<g>
		<path class="st2" d="M382.8,83.7c-3.5-14.3-8-28.4-13.5-42.1c-1.2-2.9-6-1.7-4.8,1.3c5.5,13.7,10,27.7,13.5,42.1
			C378.7,88.2,383.6,86.8,382.8,83.7L382.8,83.7z"/>
	</g>
</g>
<g>
	<g>
		<path class="st2" d="M445.8,89.1c4.7-18.9,10.3-37.4,16.9-55.7c1.1-3-3.7-4.3-4.8-1.3c-6.6,18.3-12.3,36.8-16.9,55.7
			C440.2,90.9,445,92.2,445.8,89.1L445.8,89.1z"/>
	</g>
</g>
<g>
	<g>
		<path class="st2" d="M523.1,77.2c7.4-7,14.1-14.6,20.1-22.8c1.9-2.6-2.4-5.1-4.3-2.5c-5.8,7.8-12.3,15.1-19.3,21.8
			C517.2,75.8,520.8,79.4,523.1,77.2L523.1,77.2z"/>
	</g>
</g>
<g>
	<g>
		<path class="st2" d="M566.1,90.8c4-6,9.7-10.4,16.6-12.6c3.1-1,1.7-5.8-1.3-4.8c-8.1,2.6-14.9,7.7-19.6,14.9
			C560,91,564.3,93.5,566.1,90.8L566.1,90.8z"/>
	</g>
</g>
<g>
	<g>
		<path class="st2" d="M678,422.4c21.6,24.8,45.7,47.2,71.8,67.2c2.6,2,5-2.4,2.5-4.3c-25.8-19.7-49.5-42-70.8-66.4
			C679.4,416.4,675.9,420,678,422.4L678,422.4z"/>
	</g>
</g>
<g>
	<g>
		<path class="st2" d="M640,499.2c12.5,20.5,26.2,40.2,41,59.2c2,2.5,5.5-1,3.5-3.5c-14.5-18.6-27.9-38-40.2-58.2
			C642.7,493.9,638.4,496.4,640,499.2L640,499.2z"/>
	</g>
</g>
<g>
	<g>
		<path class="st2" d="M549.4,543.1c0,19.2-1.9,38.4-5.7,57.2c-0.6,3.1,4.2,4.5,4.8,1.3c3.9-19.3,5.9-38.9,5.9-58.6
			C554.4,539.9,549.4,539.9,549.4,543.1L549.4,543.1z"/>
	</g>
</g>
<g>
	<g>
		<path class="st2" d="M436.6,549.6c-4,20.4-15.5,37.9-26.9,54.9c-1.8,2.7,2.5,5.2,4.3,2.5c11.6-17.3,23.3-35.2,27.4-56.1
			C442,547.7,437.2,546.4,436.6,549.6L436.6,549.6z"/>
	</g>
</g>
<g>
	<g>
		<path class="st2" d="M324.4,575.3c-11.9,12.1-26.2,21.2-42.3,26.7c-3,1-1.7,5.9,1.3,4.8c16.9-5.8,32-15.3,44.5-28
			C330.2,576.5,326.7,573,324.4,575.3L324.4,575.3z"/>
	</g>
</g>
<g>
	<g>
		<path class="st2" d="M187.5,597.1c-11.9,0.8-23.8,1-35.7,0.6c-3.2-0.1-3.2,4.9,0,5c11.9,0.4,23.8,0.2,35.7-0.6
			C190.7,601.9,190.7,596.9,187.5,597.1L187.5,597.1z"/>
	</g>
</g>
<g>
	<g>
		<path class="st2" d="M73.5,203.9c-7.2-7-15.4-12.7-24.5-16.9c-2.9-1.4-5.4,2.9-2.5,4.3c8.7,4.1,16.5,9.4,23.4,16.1
			C72.3,209.7,75.8,206.1,73.5,203.9L73.5,203.9z"/>
	</g>
</g>
<g>
	<g>
		<path class="st2" d="M758.9,401.2c8.9,0.1,17.6,1.1,26.3,3.1c3.1,0.7,4.5-4.1,1.3-4.8c-9.1-2.1-18.3-3.1-27.6-3.3
			C755.7,396.1,755.7,401.1,758.9,401.2L758.9,401.2z"/>
	</g>
</g>
</svg>
