<?xml version="1.0" encoding="utf-8"?>
<!-- Generator: Adobe Illustrator 22.1.0, SVG Export Plug-In . SVG Version: 6.00 Build 0)  -->
<svg version="1.1" id="Слой_1" xmlns="http://www.w3.org/2000/svg" xmlns:xlink="http://www.w3.org/1999/xlink" x="0px" y="0px"
	 viewBox="0 0 841.9 677.5" style="enable-background:new 0 0 841.9 677.5;" xml:space="preserve">
<style type="text/css">
	.st0{fill:#303030;}
	.st1{fill:#ED1C24;}
	.st2{fill:#FFFFFF;}
</style>
<g>
	<path class="st0" d="M404.9,495.7c-37,3.2-74.6,6.3-111.1-0.5c-36.5-6.8-72.5-24.9-92.9-56c-10.7-16.4-16.6-35.5-21-54.5
		c-6.9-29.6-10.8-59.9-11.5-90.2c-0.8-34.4,5.2-73.9,34.2-92.4c13.6-8.6,31-11.6,41.6-23.7c4.9-5.6,7.9-12.7,10.7-19.6
		c11.3-27.5,22.6-55,33.9-82.5c0.9-2.2,1.9-4.5,4-5.5c1.9-0.9,4.2-0.5,6.3,0c41.8,10.3,78.5,39.3,98.3,77.6
		c56.1-8.4,113.4-7.9,169.3,1.5c18.7-27.7,40-53.7,63.5-77.6c24.3,23.6,42.7,53.2,53,85.5c1.3,4,2.5,8.1,5.4,11.2
		c4.3,4.6,11.1,5.4,17.2,6.8c32.4,7.3,55.5,35.1,76.1,61.1c15.8,20,32,40.7,39.8,65c6.3,19.7,6.8,40.9,5.2,61.6
		c-3.6,45.4-20.4,94.3-60.1,116.7c-18.9,10.6-40.9,14.1-62.5,16.2c-89.4,8.8-179.3-1.5-268.9-6.9c-13.5-0.8-28.3-1.2-39.2,7"/>
	<g>
		<path d="M404.9,493.2c-52.7,4.5-109.1,9.1-157.6-16.4c-21.1-11.1-39-27.4-50-48.8c-12.6-24.5-17.9-53.1-21.9-80.1
			c-3.8-25.4-6.2-51.9-3.9-77.6c1.8-20.6,7.4-42.7,22.2-57.8c15.2-15.5,40.1-16.8,53.6-34.1c7.9-10.1,11.8-23.6,16.6-35.4
			c5.5-13.4,11-26.9,16.6-40.3c3-7.3,6-14.7,9-22c0.7-1.7,1.2-4.2,2.5-5.6c2.7-3.1,4.7-2.1,7.8-1.4c3.2,0.8,6.3,1.8,9.5,2.8
			c12,4,23.5,9.6,34.2,16.5c21.8,14.1,39.7,33.8,51.7,56.8c0.6,1.1,1.7,1.3,2.8,1.1c55.7-8.2,112.5-7.7,168,1.5
			c1.2,0.2,2.1-0.2,2.8-1.1c18.7-27.5,39.8-53.3,63.1-77.1c-1.2,0-2.4,0-3.5,0c20.4,19.9,36.6,43.9,47.3,70.3
			c4.3,10.6,5.7,25.6,17.5,30.6c5.2,2.2,11,2.8,16.4,4.4c6.6,1.9,12.9,4.8,18.9,8.3c23,13.6,39.7,35.8,55.9,56.5
			c19,24.2,35.9,49.6,39.6,80.9c3.1,26.7,0.2,55.1-7.3,80.9c-6.6,22.8-17.8,45-35.7,60.9c-22.3,19.9-52.1,24.7-80.8,27.3
			c-32.8,3-65.8,3.5-98.8,2.7c-37-0.9-73.9-3.6-110.8-6.2c-18.5-1.3-36.9-2.7-55.4-3.8c-13.8-0.8-28.7-1.1-40.4,7.3
			c-2.6,1.9-0.1,6.2,2.5,4.3c11.9-8.5,27-7.3,40.9-6.5c16.8,1,33.6,2.2,50.4,3.4c34,2.4,67.9,4.9,101.9,6c33.6,1.1,67.3,1,100.8-1.6
			c28.8-2.3,59.5-5.3,83.9-22.2c41.2-28.6,54.5-84.2,54.9-131.7c0.1-15.1-1.4-30.4-6-44.8c-4.4-13.7-11.5-26.4-19.6-38.3
			c-8-11.7-16.9-22.8-25.7-33.9c-8.6-10.7-17.5-21.2-27.6-30.4c-9.3-8.5-19.7-15.9-31.3-20.9c-5.8-2.4-11.7-3.9-17.7-5.3
			c-3.4-0.8-7-1.6-9.9-3.6c-3.5-2.4-4.9-6.3-6.2-10.2c-8.7-26.4-21.6-50.8-39.4-72.2c-4.6-5.6-9.6-10.8-14.7-15.9
			c-1-0.9-2.6-1-3.5,0c-23.6,24.1-44.9,50.2-63.8,78.1c0.9-0.4,1.9-0.8,2.8-1.1c-56.5-9.4-114-9.9-170.7-1.5
			c0.9,0.4,1.9,0.8,2.8,1.1c-11-21.1-26.8-39.3-46-53.4c-9.4-6.9-19.5-12.7-30.2-17.3c-5.1-2.2-10.3-4.1-15.5-5.8
			c-4.7-1.4-11.5-4.5-16.3-2c-4.4,2.2-5.8,8.4-7.4,12.5c-3,7.3-6,14.7-9,22c-6,14.7-12.1,29.3-18.1,44
			c-5.6,13.6-10.1,28.4-23.2,36.7c-9.8,6.2-21.3,9.3-31.2,15.3c-41.2,24.8-38.8,83.9-35,125.3c2.7,29.1,7.5,59,17.1,86.7
			c8.3,23.7,22.1,43.9,42.4,58.9c51.2,37.8,117.9,33.2,177.8,28.1C408.1,497.9,408.1,492.9,404.9,493.2L404.9,493.2z"/>
	</g>
</g>
<g>
	<g>
		<path d="M414.1,392.3c-3.2-1.9-5.3-4.3-6.8-7.7c-1.3,1-2.6,2-3.9,3c2.3,2.5,4.6,5.1,6.8,7.6c1.2,1.4,2.6,3.4,4.6,3.8
			c4.1,0.9,9.9-5,13-7c-1.2-0.9-2.4-1.9-3.7-2.8c-1.1,3.2-5.6,4.4-7.7,6.9c-2.3,2.7-2.1,6-2.1,9.4c0,3.4,1.8,13.2-1.3,15.2
			c-2.2,1.3-6.2,1.4-8.7,2c-2.9,0.7-5.8,1.3-8.7,2c-2.8,0.7-2.1,4.8,0.7,4.9c15.8,0.7,31.7,0.9,47.5,0.5c3.2-0.1,3.2-5.1,0-5
			c-15.8,0.4-31.7,0.2-47.5-0.5c0.2,1.6,0.4,3.3,0.7,4.9c6-1.4,12.6-2.2,18.4-4.3c4.2-1.6,4.1-5,4-9c-0.1-5.2-2-14.5,2.4-18.2
			c2.9-2.5,5.8-3.6,7.2-7.5c0.7-2-1.9-4-3.7-2.8c-1.8,1.2-7.4,6.4-9.6,6.1c-0.6-0.1-3.3-3.7-3.7-4.2c-1.7-1.9-3.3-3.7-5-5.6
			c-2-2.3-5,0.6-3.9,3c1.8,4.1,4.7,7.2,8.6,9.5C414.3,398.2,416.8,393.9,414.1,392.3L414.1,392.3z"/>
	</g>
</g>
<g>
	<g>
		<path class="st1" d="M310.9,370c-4.3-1.6-8.6-3.1-12.9-4.8c0.1,0-4.2-1.8-2.2-0.9c2,0.9-2.2-1-2.1-1c-2.1-1-4.1-2-6.2-3
			c-4-2.1-7.8-4.5-11.5-7.1c-1.7-1.1,1.9,1.7-0.5-0.5c-0.7-0.7-1.5-1.3-2.2-2c-1.8-1.7-3.4-3.5-5.1-5.4c1.1,1.2,0.9,1.3,0-0.1
			c-0.8-1.3-1.6-2.5-2.4-3.8c-1.4-2.3-2.6-4.8-3.7-7.2c-2.4-5.2-4.6-10.5-6.9-15.7c-5-11.6-10-23.1-15-34.7
			c-3.6-8.4-16.7-11-23.9-6.3c-8.8,5.6-10.2,14.9-6.3,23.9c5.3,12.2,10.5,24.3,15.8,36.5c5.2,11.9,10,23.3,18.6,33.3
			c14.7,16.9,36.7,25.1,57.2,32.5c8.6,3.1,19.5-3.5,21.5-12.2C325.3,381.7,320.1,373.4,310.9,370L310.9,370z"/>
	</g>
</g>
<g>
	<g>
		<path class="st1" d="M554.1,409.5c18.1,1.5,36.2,2.4,54.3,2.6c17.1,0.2,34.9,0.4,51.4-4.8c33-10.4,50.7-39.9,60.6-71.2
			c2.8-8.7-3.2-19.5-12.2-21.5c-9.5-2.2-18.6,2.9-21.5,12.2c-1.1,3.4-2.2,6.7-3.5,10c-0.3,0.8-2,4.9-0.5,1.5
			c-0.6,1.4-1.2,2.8-1.9,4.2c-2.7,5.7-6,11.1-9.6,16.2c-0.7,1-0.6,0.8,0.5-0.6c-0.6,0.8-1.3,1.5-1.9,2.3c-1,1.1-2,2.2-3,3.2
			c-1.1,1-2.2,2-3.3,3c-2.9,2.7,1.9-1.1-1.1,0.9c-1.5,0.9-2.9,1.9-4.4,2.8c-0.5,0.3-4.5,2.4-3.1,1.7c1.1-0.4,0.7-0.3-1,0.4
			c-1.1,0.4-2.1,0.8-3.2,1.1c-1.6,0.5-3.2,1-4.9,1.4c-1.7,0.4-3.3,0.7-5,1c-4.1,0.8,1.7,0-2.1,0.3c-3.7,0.4-7.4,0.6-11.2,0.8
			c-7.6,0.3-15.2,0.1-22.8,0c-16.8-0.3-33.7-1.2-50.4-2.6c-9.1-0.8-17.9,8.6-17.5,17.5C537.1,402.2,544.3,408.7,554.1,409.5
			L554.1,409.5z"/>
	</g>
</g>
<g>
	<path class="st2" d="M504.4,348.8c7.2-20.9,25-36.8,44.8-46.5c19.8-9.8,41.8-14.2,63.4-18.6c4.6-0.9,9.3-1.9,14.1-1.6
		c8.9,0.5,16.9,5,24.6,9.5c11.6,6.7,24.1,14.5,28,27.3c3.4,11-0.5,23-5.4,33.5c-3.3,7.2-7.3,14.4-13.8,18.8
		c-6.4,4.3-14.4,5.3-22.1,6.1c-36.8,3.7-75.4,5.3-109.5-9.3c-9.1-3.9-18.6-9.9-21.2-19.5"/>
	<g>
		<path d="M506.8,349.4c8.8-24.4,31.1-40.7,54.5-49.8c13.4-5.2,27.4-8.5,41.4-11.4c6.7-1.4,13.6-3.3,20.4-3.7
			c8.1-0.4,15.3,2.7,22.2,6.5c10.7,5.9,23.4,12.6,29.5,23.7c7.1,13,1.1,28.5-5.1,40.6c-3,5.7-6.6,11.1-12.3,14.5
			c-6.8,4-15.4,4.5-23.1,5.2c-13.8,1.3-27.6,2.3-41.4,2.2c-15.8-0.1-31.7-1.7-47-5.9c-12.9-3.6-31.7-9.2-36.2-23.6
			c-1-3.1-5.8-1.8-4.8,1.3c3.9,12.6,16.3,18.9,27.9,23.2c14.9,5.7,30.8,8.4,46.7,9.5c16.8,1.1,33.7,0.2,50.4-1.3
			c14.2-1.3,29.2-2,38.7-14c8.4-10.6,15.3-27.1,14.4-40.9c-0.9-13.8-10.6-23.4-21.5-30.7c-12.1-8-26-16.8-41.1-15.1
			c-16,1.8-32.5,6-47.8,10.7c-30,9.1-59.6,26.7-70.7,57.6C500.9,351.1,505.7,352.4,506.8,349.4L506.8,349.4z"/>
	</g>
</g>
<g>
	<g>
		<path d="M584.5,317.2c-0.2,4.8-0.2,9.6,0.2,14.4c0.3,3.8,0.4,8.4,1.9,12c2,4.6,6.9,6.5,10.4,2.2c4.2-5.1,6.1-15.2,5.3-21.6
			c-0.8-6.5-5.9-9.7-12-10.3c-5.1-0.5-12.6-0.5-12.6,6.4c0,3.4,2.3,6.1,3.3,9.2c1.4,4.3,0.6,9,2.3,13.3c2.2,5.3,7.9,8.6,13.2,5.1
			c6.2-4.1,5.5-13,5.9-19.5c0.3-4.9-0.5-15.8-8.6-12.8c-3.2,1.2-3.5,4.8-3.8,7.7c-0.7,5.8-0.8,11.6-0.5,17.5
			c0.1,2.7,4.3,3.6,4.9,0.7c1.2-6.1,2.9-12,5.2-17.8c-1.6-0.2-3.3-0.4-4.9-0.7c-0.5,4.2-1.8,8.1-3.6,12c1.3-0.2,2.6-0.3,3.9-0.5
			c-1.4-1.4,0-5.2-0.8-7.2c-0.3-0.7-0.7-1.4-1.2-2c-0.5-0.4-1.1-0.8-1.7-1.2c-1.6-0.5-1.9-1.9-0.9-4.2c3,1.1,4.3-3.7,1.3-4.8
			c-5.3-1.9-10.2,3.3-8.1,8.6c1.2,3.1,5.4,4,6.1,7c0.6,3-0.7,4.9,1.8,7.3c1.1,1,3.2,1,3.9-0.5c2.3-4.7,3.6-9.4,4.3-14.5
			c0.4-3-4-3.1-4.9-0.7c-2.3,5.8-4,11.7-5.2,17.8c1.6,0.2,3.3,0.4,4.9,0.7c-0.1-2.9-0.2-5.8-0.1-8.8c0.1-1.8-0.5-6.3,0.5-7.8
			c-0.2-1.2,0.3-1.4,1.4-0.5c1.4,0.1,1.8,0.8,1.3,2.1c0.2,1-0.1,2.3-0.2,3.3c-0.1,2.2-0.2,4.5-0.4,6.7c-0.2,1.9-0.3,4.2-1.6,5.7
			c-0.4,1.6-1.5,2.1-3.3,1.6c-1.5,0.8-2.5,0.6-3.1-0.6c-2-2-1.9-5.5-2.1-8.1c-0.2-2.3-0.4-4.7-1.2-6.9c-0.7-2-2.4-3.9-2.6-6
			c-0.2-1.8-0.1-2.3,1.8-2.8c0.8-0.2,1.9-0.1,2.7-0.1c2.3,0,5,0.1,7.1,1.4c4.8,3.1,2.4,11.4,1.3,15.9c-0.5,1.8-1.3,6.3-3.4,6.3
			c-2.3,0.1-2.3-6.2-2.5-8c-0.6-5.7-0.7-11.5-0.4-17.3C589.6,314,584.6,314,584.5,317.2L584.5,317.2z"/>
	</g>
</g>
<g>
	<path class="st2" d="M372.4,349.2c-1.6-22.8-12-45.7-30.8-58.7c-14.6-10.1-32.9-13.6-50.6-13.2c-17.7,0.5-35.1,4.7-52.4,8.9
		c-2.2,11.9,2.2,24.2,8.9,34.2c13.9,20.6,36.9,32.9,58.9,44.4c10.9,5.7,23.1,11.6,35.1,8.8c12-2.8,20.3-13.3,27.7-23.2"/>
	<g>
		<path d="M374.9,349.2c-2.1-27.5-16.2-54.7-42.1-66.6c-30.3-13.9-64-6.3-94.9,1.2c-0.8,0.2-1.6,0.9-1.7,1.7
			c-5.3,33.7,27,58.2,52.8,72.7c13.8,7.8,30.1,18.7,46.6,18.5c16.3-0.2,26.9-13.1,35.8-25.1c1.9-2.6-2.4-5.1-4.3-2.5
			c-9.1,12.1-20,24.9-36.9,22.2c-14.1-2.3-27.8-11.3-40.1-18.3c-23-13.1-53.9-35.8-49.1-66.3c-0.6,0.6-1.2,1.2-1.7,1.7
			c28.7-7,60-14.5,88.6-2.8c25.7,10.5,40,36.5,42.1,63.4C370.1,352.4,375.1,352.4,374.9,349.2L374.9,349.2z"/>
	</g>
</g>
<g>
	<g>
		<path d="M303.4,315c-0.8,6.1-0.9,12.3-0.3,18.5c0.3,3.4,0.8,7.7,4.4,9.3c8.3,3.6,11.2-10.4,11.5-15.5c0.4-6.1-1.1-19.6-9.9-18.7
			c-4,0.4-5.2,3.8-5.4,7.3c-0.4,6.5-0.4,13.1-0.7,19.6c-0.1,1.7,2.2,3.3,3.8,2.2c6.6-5,7-13,6.5-20.8c-0.2-3.2-5.2-3.2-5,0
			c0.4,6.9,0.2,13.8-0.5,20.7c-0.3,2.8,4.3,3.4,4.9,0.7c0.7-3,1.3-6,2-9.1c0.7-3.1-4.1-4.5-4.8-1.3c-0.7,3-1.3,6-2,9.1
			c1.6,0.2,3.3,0.4,4.9,0.7c0.7-6.9,0.9-13.7,0.5-20.7c-1.7,0-3.3,0-5,0c0.4,5.5,0.9,12.7-4,16.5c1.3,0.7,2.5,1.4,3.8,2.2
			c0.2-5.6,0.4-11.1,0.6-16.7c0.1-2-0.5-2.8,1.7-3.3c2.2-0.5,2,0.4,2.7,2.3c0.9,2.7,1.2,5.7,1.1,8.5c-0.1,2.6-0.5,5.2-1.4,7.6
			c-0.3,0.7-0.6,1.5-0.9,2.2c-1.1-0.1-2.2-0.2-3.3-0.3c-0.6-0.6-0.4-3.4-0.5-4.3c-0.4-5.6-0.2-11.1,0.5-16.6
			C308.8,311.8,303.8,311.8,303.4,315L303.4,315z"/>
	</g>
</g>
<g>
	<g>
		<path d="M137.2,541.1c4.2,11.5,7.3,23.4,9.2,35.5c0.5,3.2,5.3,1.8,4.8-1.3c-1.9-12.1-5-24-9.2-35.5
			C141,536.8,136.1,538.1,137.2,541.1L137.2,541.1z"/>
	</g>
</g>
<g>
	<g>
		<path d="M137.4,540.7c4.5-1.7,9.1-3.2,13.8-4.4c2.3-0.6,4.7-1.2,7.1-1.7c1.2-0.2,2.4-0.5,3.6-0.7c1.6-0.6,2.4-0.1,2.3,1.7
			c1.3,1.8,1.7,5.2,2.4,7.3c0.8,2.4,1.6,4.9,2.4,7.3c1.6,4.9,3.2,9.7,4.9,14.6c1,3,5.8,1.7,4.8-1.3c-2.1-6.4-4.2-12.8-6.4-19.1
			c-1-3-2-6.1-3-9.1c-0.6-1.9-1.1-4.5-2.9-5.8c-2.9-2.1-8.2,0-11.2,0.7c-6.5,1.5-12.8,3.4-19.1,5.7
			C133.1,537,134.4,541.9,137.4,540.7L137.4,540.7z"/>
	</g>
</g>
<g>
	<g>
		<path d="M183.4,541.1c0.7,9.4-0.2,21.8,5.8,29.7c4.6,6,13.8,8.3,19.2,2.1c5.4-6.1,5.9-19.1,4.2-26.5c-2.5-10.5-14.1-10.5-22.6-9.3
			c-3.2,0.4-1.8,5.3,1.3,4.8c3.8-0.5,8-1.1,11.6,0.4c4.6,1.9,5.2,6.1,5.2,10.6c0,5.1,0.3,14.4-4.5,17.6c-6.8,4.6-12.2-4.4-13.4-9.9
			c-1.3-6.3-1.3-13.1-1.8-19.5C188.2,537.9,183.2,537.9,183.4,541.1L183.4,541.1z"/>
	</g>
</g>
<g>
	<g>
		<path d="M215.1,527.7c-3.2,5.4,0.3,11.3,5.9,13c2.9,0.9,6.8,1.2,9.5-0.2c2.4-1.3,3.4-6.2,5.7-6.8c-1.1-0.8-2.1-1.6-3.2-2.4
			c0.3,12.3,0.3,24.6,0.2,36.9c0,3.2,5,3.2,5,0c0.1-12.3,0.1-24.6-0.2-36.9c0-1.6-1.6-2.8-3.2-2.4c-2.6,0.7-3.6,2.4-4.9,4.6
			c-1.3,2.2-2,2.9-4.8,2.9c-3-0.1-8.3-2.1-5.8-6.2C221.1,527.5,216.8,524.9,215.1,527.7L215.1,527.7z"/>
	</g>
</g>
<g>
	<g>
		<path d="M260.9,534.9c0.4,6.1,0.9,12.1,1.6,18.2c0.6,5.4,0.7,11.6,2.3,16.8c0.8,2.8,2.2,4.1,5.2,3.9c5.2-0.3,10.8-2.3,15.8-3.9
			c3.1-1,1.7-5.8-1.3-4.8c-3.6,1.1-7.2,2.2-10.9,3c-0.8,0.2-1.7,0.4-2.5,0.5c-1.5,0.4-2.1-0.2-1.7-1.9c-0.8-1.8-0.8-5.1-1-6.9
			c-1.1-8.3-1.8-16.5-2.4-24.8C265.7,531.7,260.7,531.7,260.9,534.9L260.9,534.9z"/>
	</g>
</g>
<g>
	<g>
		<path d="M263.5,555.5c4.9-1.2,9.7-2.7,14.3-4.7c2.9-1.2,1.6-6.1-1.3-4.8c-4.6,1.9-9.4,3.5-14.3,4.7
			C259,551.4,260.3,556.3,263.5,555.5L263.5,555.5z"/>
	</g>
</g>
<g>
	<g>
		<path d="M263.4,536.3c4-0.9,8-1.3,12.1-1.3c3.2,0,3.2-5,0-5c-4.5,0-9,0.5-13.4,1.5C259,532.2,260.3,537,263.4,536.3L263.4,536.3z"
			/>
	</g>
</g>
<g>
	<g>
		<path d="M304,533.8c2.5,2.1,3.4,6,4.7,8.9c1.6,3.9,3.3,7.8,4.9,11.6c3.2,7.5,6.3,14.9,9.5,22.4c1.2,3,5.6,0.4,4.3-2.5
			c-3.4-8.1-6.8-16.1-10.2-24.2c-1.6-3.9-3.3-7.8-4.9-11.6c-1.2-2.9-2.2-6-4.7-8.1C305.1,528.2,301.6,531.7,304,533.8L304,533.8z"/>
	</g>
</g>
<g>
	<g>
		<path d="M305.8,533.4c9.1,5.4,19.7,11.6,30.2,14c4,0.9,6.2-0.7,8.6-3.8c3.6-4.6,7.5-8.8,12-12.5c-1.4-0.6-2.8-1.2-4.3-1.8
			c1.5,16.6,4.2,33.1,8.2,49.3c0.8,3.1,5.6,1.8,4.8-1.3c-3.9-15.8-6.6-31.8-8-48c-0.2-2.2-2.6-3.2-4.3-1.8c-3.4,2.8-6.5,5.8-9.4,9.2
			c-0.8,1-1.6,2.1-2.5,3.1c-2.7,2.9-4.8,2.6-8.1,1.4c-8.7-3.2-16.9-7.3-24.9-12.1C305.6,527.4,303,531.7,305.8,533.4L305.8,533.4z"
			/>
	</g>
</g>
<g>
	<g>
		<path d="M385.5,533.9c0.1,0,13.6,17,15,18.7c2,2.5,5.6-1.1,3.5-3.5c-3.9-4.7-7.7-9.5-11.6-14.2c-2.3-2.8-5.3-7.9-9.5-5.3
			C380.2,531.3,382.8,535.6,385.5,533.9L385.5,533.9z"/>
	</g>
</g>
<g>
	<g>
		<path d="M412.9,529.6c-7.2,15.8-14.4,31.7-21.6,47.5c-1.3,2.9,3,5.5,4.3,2.5c7.2-15.8,14.4-31.7,21.6-47.5
			C418.5,529.2,414.2,526.7,412.9,529.6L412.9,529.6z"/>
	</g>
</g>
<g>
	<g>
		<path d="M517.4,532.2c-2.5,11.8-3.4,23.7-2.4,35.7c0.3,3.2,5.3,3.2,5,0c-0.9-11.6-0.2-23,2.2-34.4
			C522.9,530.4,518,529.1,517.4,532.2L517.4,532.2z"/>
	</g>
</g>
<g>
	<g>
		<path d="M518.9,536.1c2.3-7.6-14.1-8.1-18.4-8.5c-7.4-0.7-18-1.3-23.3,5.2c-1.9,2.3-3,5.7-1.8,8.7c1.3,3.3,5,4.2,8.1,5
			c10,2.6,20.5,2,30.2-1.4c2.6-0.9,2.2-4.8-0.7-4.9c-8.1-0.3-13.9,5.4-18.6,11.3c-6.9,8.8-13.6,17.8-20.4,26.7
			c-1.9,2.6,2.4,5.1,4.3,2.5c5.4-7.1,10.8-14.2,16.2-21.4c4.5-6,9.8-14.6,18.4-14.3c-0.2-1.6-0.4-3.3-0.7-4.9
			c-5.3,1.9-10.7,2.9-16.2,2.9c-3.5,0-18.8-0.6-15.1-6.9c2.4-4.1,9.8-3.9,13.8-3.8c1.6,0,19.3,2.3,19.2,2.5
			C513.2,537.9,518,539.2,518.9,536.1L518.9,536.1z"/>
	</g>
</g>
<g>
	<g>
		<path d="M600.9,519.8c-0.4,17.2-0.2,34.4,0.4,51.6c0.1,3.2,5.1,3.2,5,0c-0.6-17.2-0.8-34.4-0.4-51.6
			C605.9,516.6,600.9,516.6,600.9,519.8L600.9,519.8z"/>
	</g>
</g>
<g>
	<g>
		<path d="M604.5,552.9c2.5-1.1,5.1-2.1,7.8-2.7c2.1-0.5,6-1.7,8.1-1c5.1,1.7,2.6,11.2-0.7,13.2c-5.7,3.5-13,0.8-16.9,7.7
			c-1.6,2.8,2.7,5.3,4.3,2.5c3-5.3,11.7-3.1,16.3-6.5c4.5-3.3,4.9-8.9,4.4-14c-0.4-4.1-1.7-7.4-6.3-7.9c-6.6-0.6-13.7,1.7-19.6,4.3
			C599.1,549.9,601.6,554.2,604.5,552.9L604.5,552.9z"/>
	</g>
</g>
<g>
	<g>
		<path d="M646.5,510.4c-2.3,2.6-2.9,5.5-3,9c-0.1,5.5,0.2,11.1,0.1,16.6c-0.2,11.9-1.2,23.7-2.8,35.5c-0.4,3.1,4.4,4.5,4.8,1.3
			c1.3-9.7,2.3-19.4,2.7-29.2c0.2-5.1,0.3-10.2,0.3-15.3c0-4-1.6-11.1,1.3-14.4C652.2,511.6,648.6,508,646.5,510.4L646.5,510.4z"/>
	</g>
</g>
<g>
	<g>
		<path d="M677.8,553.1c4.4-5.4,2.4-14.2-5.2-15.3c-10.2-1.4-14.1,9.5-15.2,17.5c-0.9,6.5-5.2,20.4,5.3,21.2c3.9,0.3,7.1-2,9.4-5
			c3.7-5.1,6.4-11.2,9.4-16.7c-1.6-0.4-3.1-0.8-4.7-1.3c-0.4,7.9,1.8,15.4,6.5,21.8c1.9,2.6,6.2,0.1,4.3-2.5
			c-4.2-5.7-6.1-12.1-5.8-19.2c0.1-2.5-3.5-3.4-4.7-1.3c-2.5,4.5-4.9,9-7.4,13.4c-1.2,2.1-2.9,5.4-5.5,5.7c-4.3,0.4-3.3-5-2.9-7.6
			c0.6-4.7,0.7-9.7,2.3-14.2c1-2.9,3.3-6.3,6.7-6.6c3.7-0.3,6.5,3.4,3.8,6.7C672.2,552,675.8,555.6,677.8,553.1L677.8,553.1z"/>
	</g>
</g>
<g>
	<g>
		<path d="M703.4,550.5c-7.3,2.1-9.3,9.2-9.8,16.1c-0.5,6.2,0.8,14.6,8.9,14.1c3.2-0.2,3.2-5.2,0-5c-5.6,0.4-4-8.6-3.6-11.4
			c0.6-3.8,1.8-7.7,5.9-8.9C707.8,554.4,706.5,549.6,703.4,550.5L703.4,550.5z"/>
	</g>
</g>
<g>
	<g>
		<path d="M715.8,542.8c0.4,10.9,0.1,21.7-0.8,32.5c-0.3,3.2,4.7,3.2,5,0c0.9-10.8,1.2-21.7,0.8-32.5
			C720.7,539.6,715.7,539.6,715.8,542.8L715.8,542.8z"/>
	</g>
</g>
<g>
	<g>
		<path d="M731.1,539.6c0.9,6.9-5.5,9.5-9.7,13.4c-2.2,2.1-3.6,5.2-1.4,7.7c2.3,2.6,7.6,3.1,10.6,4.8c4.8,2.6,8.9,6.2,12.1,10.6
			c1.9,2.6,6.2,0.1,4.3-2.5c-5-6.8-11.5-12-19.4-14.9c-3-1.1-3.8-1.4-0.7-3.8c1.7-1.3,3.4-2.5,4.9-4.1c3-3.1,4.8-6.9,4.2-11.3
			C735.7,536.4,730.7,536.4,731.1,539.6L731.1,539.6z"/>
	</g>
</g>
<g>
	<g>
		<path d="M771.2,517.9c5.1-3.2,13.2-7.6,19-3.5c7.9,5.5,1.7,13.5-3.9,17.2c-8.5,5.8-16.7,13.2-14.6,24.5c0.6,3.2,5.4,1.8,4.8-1.3
			c-3.3-17.4,24.7-18.1,22.1-35.2c-0.9-5.7-5-10.2-10.6-11.4c-6.8-1.5-13.8,1.9-19.4,5.4C765.9,515.3,768.4,519.7,771.2,517.9
			L771.2,517.9z"/>
	</g>
</g>
<g>
	<g>
		<path d="M774.7,575.5c3.2,0,3.2-5,0-5C771.5,570.5,771.5,575.5,774.7,575.5L774.7,575.5z"/>
	</g>
</g>
</svg>
