<?xml version="1.0" encoding="utf-8"?>
<!-- Generator: Adobe Illustrator 22.1.0, SVG Export Plug-In . SVG Version: 6.00 Build 0)  -->
<svg version="1.1" id="Слой_1" xmlns="http://www.w3.org/2000/svg" xmlns:xlink="http://www.w3.org/1999/xlink" x="0px" y="0px"
	 viewBox="0 0 841.9 677.5" style="enable-background:new 0 0 841.9 677.5;" xml:space="preserve">
<style type="text/css">
	.st0{fill:#FDEDF4;}
	.st1{fill:#F9CDE1;}
	.st2{fill:#F48892;}
</style>
<g>
	<path class="st0" d="M124.1,232.9c11.7-8.4,30.1-1.7,41.1-11c3.2-2.7,5.3-6.5,7.4-10.2c23.1-41.8,46.2-83.6,69.4-125.3
		c42,24.2,77,60.3,99.9,103c2.5,4.7,5.1,9.7,9.7,12.4c4.5,2.7,10,2.6,15.2,2.5c31.4-0.7,62.9-1.4,94.3-2.1c4.1-0.1,8.4-0.3,11.7-2.6
		c2.7-1.9,4.4-4.9,5.9-7.8c16.4-30.4,32.8-60.8,49.3-91.3c21.3,25.1,55,35.9,79.7,57.6c30.7,26.9,45.2,68.4,75.1,96.3
		c11.7,10.9,25.5,19.6,36,31.7c10.5,12.1,17,27.1,22.2,42.2c10.9,31.8,16.5,66,11.5,99.2c-11.7,78.5-80.9,138.3-156,163.7
		s-156.4,23-235.8,22c-62.1-0.8-125.9-0.9-183.5-24.1c-19.1-7.7-37.6-18.1-50.7-33.9c-9.4-11.2-15.7-24.6-21.5-37.9
		c-16.2-37-29.6-75.1-40.3-114c-8.9-32.2-15.8-66.3-8.1-98.8s33.6-62.9,66.9-65.6"/>
	<g>
		<path class="st1" d="M130.4,243.7c1.9-1.3,1.7-1.3,3.1-1.8c1.3-0.5,2.7-0.7,4-1c1.5-0.3,1.4-0.2,3.7-0.4c1.4-0.1,2.9-0.2,4.3-0.3
			c7.7-0.6,15.6-1.4,22.5-5.2c7.7-4.2,12.1-11.3,16.2-18.7c4.7-8.4,9.3-16.8,14-25.2c18.1-32.8,36.3-65.6,54.4-98.4
			c-5.7,1.5-11.4,3-17.1,4.5c20.8,12.1,39.7,26.9,56.3,44.4c8,8.4,15.5,17.3,22.2,26.7c7.1,10,12.9,20.7,19.1,31.3
			c3.2,5.4,7.2,10.4,12.7,13.4c6.4,3.5,13.7,4,20.8,3.8c15.1-0.3,30.1-0.7,45.2-1c14.4-0.3,28.8-0.7,43.2-1
			c7.2-0.2,14.6,0.1,21.3-3.1c6.8-3.2,10.6-9,14-15.4c16.1-29.8,32.2-59.7,48.3-89.5c-6.5,0.8-13.1,1.7-19.6,2.5
			c14.9,17.3,35.2,28.4,54.4,40c8.9,5.4,17.7,10.9,25.3,17.6c8.2,7.2,15.5,15.6,21.8,24.4c13.3,18.3,24.4,38,38.5,55.8
			c7.3,9.1,15.5,17.2,24.5,24.6c9.5,7.7,19.6,15,27.4,24.6c14.9,18.5,21.9,44.2,26.6,66.9c5,23.7,6,48.7,0.6,72.4
			c-8.8,39.2-32.6,72.2-63.5,98.2c-33.5,28.1-74.4,45.6-117.3,55.4c-51,11.6-103.7,12.5-155.7,12.1c-26.5-0.2-53-0.5-79.5-1.1
			c-25.1-0.6-50.3-1.7-75.1-5.5c-24.7-3.7-49.8-9.7-72.5-20.1c-21.2-9.7-38.1-23-49.4-43.7c-12.2-22.5-21.2-47.2-29.8-71.3
			c-9.1-25.5-17.3-51.5-23.5-77.9c-5.7-24.4-9.3-50.5-3.1-75.2c4.6-18.2,15.5-35.9,30.8-46c7.5-5,16-8.3,23.8-9
			c6.7-0.6,12.5-5.3,12.5-12.5c0-6.3-5.7-13.1-12.5-12.5c-23.5,2.2-44,14.4-58.5,32.9c-16.1,20.5-23.5,45.3-24.2,71.2
			c-0.7,28.3,6.2,56.4,13.9,83.4c7.8,27.3,16.9,54.2,27.4,80.5c10.1,25.3,19.9,53,38.8,73.3c17.6,18.8,41.9,30.1,65.8,38.2
			c52.2,17.8,108.4,19,163.1,19.7c104.3,1.3,218.1,6.7,310.3-50.5c37.4-23.2,70.7-55.8,89.5-96c10.3-22.1,16.3-45.7,17.2-70.1
			c1-27.8-4.2-55.9-13.1-82.2c-4.3-12.9-9.5-25.9-16.9-37.4c-7.2-11.1-16.4-20.1-26.6-28.4c-9.5-7.7-19-15.2-27.2-24.4
			c-7.7-8.6-14.1-18-20.5-27.7c-12.9-19.6-25.2-40.1-42.4-56.4c-17.4-16.5-39.1-26.9-59-40c-9.1-6-17-12.4-24.2-20.8
			c-5.2-6-16-4.2-19.6,2.5c-13.6,25.2-27.2,50.3-40.7,75.5c-3.2,5.9-6.2,11.9-9.6,17.7c-0.2,0.3-1.8,2.6-0.9,1.5
			c-2.9,3.4-0.7,0.5-0.8,0.6c-1.5,0.3-4.6,0.2-7.2,0.3c-14.1,0.3-28.2,0.6-42.2,1c-13.8,0.3-27.5,0.6-41.3,0.9
			c-4.9,0.1-12.9,1.6-16.9-0.6c1.5,0.8-2-2.5-1.4-1.6c-1.7-2.4-3-5.2-4.4-7.8c-11.2-20.5-25.2-39.6-41.2-56.6
			c-18.2-19.4-39.4-36.1-62.4-49.4c-5.7-3.3-13.8-1.4-17.1,4.5c-17.5,31.6-35,63.2-52.5,94.9c-4.3,7.8-8.7,15.7-13,23.5
			c-2,3.7-3.9,7.6-6.2,11.1c-1.3,1.9-3,3.6-3.7,3.8c0.1,0-2.8,0.9-3.7,1.1c0.1,0-3.8,0.6-2.2,0.4c-3.3,0.4-6.7,0.5-10,0.8
			c-7.8,0.7-15.5,2.1-22.1,6.5c-5.6,3.7-8,11-4.5,17.1C116.6,244.8,124.8,247.5,130.4,243.7L130.4,243.7z"/>
	</g>
</g>
<g>
	<g>
		<path d="M212.1,394.6c53.7-1.6,107.5-3.1,161.2-4.7c6.4-0.2,6.4-10.2,0-10c-53.7,1.6-107.5,3.1-161.2,4.7
			C205.6,384.8,205.6,394.8,212.1,394.6L212.1,394.6z"/>
	</g>
</g>
<g>
	<g>
		<path d="M511.7,382.7c65.8-12,132.7-17.4,199.6-16.2c6.4,0.1,6.4-9.9,0-10c-67.8-1.2-135.6,4.4-202.3,16.6
			C502.7,374.3,505.4,383.9,511.7,382.7L511.7,382.7z"/>
	</g>
</g>
<g>
	<path d="M674.9,360.6c-0.8,4.1,0,8.4,0.1,12.6c0.1,4.2-0.6,8.8-3.8,11.6c-3.1,2.7-7.7,2.9-11.9,2.9c-1.9,0-3.9,0-5.6-1
		c-1.1-0.6-1.9-1.6-2.7-2.5c-4.6-5.7-8.4-12.1-11.1-18.9"/>
	<g>
		<path d="M672.5,359.9c-1.4,9.4,4.2,24.3-9.9,25.2c-2.2,0.1-5.5,0.5-7.5-0.5c-2-1.1-3.6-3.9-4.8-5.7c-3.1-4.4-5.7-9.2-7.8-14.3
			c-1.2-2.9-6.1-1.6-4.8,1.3c2.8,6.7,6.2,13,10.7,18.7c3.9,5,8,5.9,14.2,5.5c5.5-0.4,10.7-2.1,13.3-7.4c3.4-6.8,0.4-14.4,1.5-21.5
			C677.8,358.1,672.9,356.8,672.5,359.9L672.5,359.9z"/>
	</g>
</g>
<g>
	<path d="M359.1,383.5c1.6,8,0.7,17.2-5.3,22.7c-5.3,4.8-13.1,5.4-20.3,5.8c-1.4,0.1-2.9,0.1-4.2-0.6c-1.4-0.8-2.1-2.4-2.6-3.9
		c-1.8-5.4-2.8-11-2.8-16.7"/>
	<g>
		<path d="M356.7,384.2c1.9,10.4-1,21-12.3,24c-3.2,0.8-11.9,3-14.5,0.3c-1.4-1.5-1.8-5.2-2.3-7.1c-0.8-3.5-1.1-7-1.2-10.6
			c-0.1-3.2-5.1-3.2-5,0c0.2,6.3,0.4,16.9,5.2,21.7c4.1,4,13.4,1.9,18.3,0.8c14.5-3.4,19-16.8,16.5-30.3
			C361,379.7,356.1,381,356.7,384.2L356.7,384.2z"/>
	</g>
</g>
<g>
	<g>
		<path d="M439.4,473.4c2.9,4.3,8.4,12.8,14.1,13.3c2.7,0.3,4.6-1.6,6.5-3.3c3.3-2.9,6.6-5.8,10-8.7c2.4-2.1-1.1-5.6-3.5-3.5
			c-3.4,2.9-7.7,8.4-12.2,8.9c-4.5,0.5-8.3-5.8-10.6-9.3C442,468.2,437.6,470.7,439.4,473.4L439.4,473.4z"/>
	</g>
</g>
<g>
	<g>
		<path d="M450.2,485.4c3,13.1,3.9,26.4,2.8,39.8c0.8-0.8,1.7-1.7,2.5-2.5c-21.8,1.6-43.4,5.5-64.4,11.6c-2.6,0.8-2.2,5.2,0.7,4.9
			c36.9-4,73.8-8.1,110.8-12.1c3.2-0.3,3.2-5.4,0-5c-36.9,4-73.8,8.1-110.8,12.1c0.2,1.6,0.4,3.3,0.7,4.9c20.6-6,41.6-9.8,63-11.4
			c1.4-0.1,2.4-1.1,2.5-2.5c1.1-13.8,0.1-27.6-3-41.2C454.3,481,449.5,482.3,450.2,485.4L450.2,485.4z"/>
	</g>
</g>
<g>
	<path class="st1" d="M323.9,325.7c5.6,6,12,11.4,18.9,15.9c1,0.6,2.1,1.3,3.2,0.9c1.4-0.5,1.7-2.2,1.7-3.7
		c0.2-4.3,0.3-9.2-2.9-12.2c-1.2-1.2-2.8-1.8-4.4-2.5c-4.7-2-9.4-3.9-14.1-5.7c0.5,2.3,2,4.4,4.1,5.6"/>
	<g>
		<path class="st1" d="M322.2,327.5c3.7,3.9,24.6,26.5,27.9,13.1c1.1-4.5,0.5-11.1-2.6-14.8c-1.7-2-4-3-6.4-4.1
			c-4.7-2-9.4-3.9-14.1-5.7c-1.8-0.7-3.6,1.4-3.1,3.1c1,3.1,2.6,5.2,5.2,7.1c2.7,1.8,5.2-2.5,2.5-4.3c-1.6-0.9-2.6-2.3-2.9-4.1
			c-1,1-2.1,2.1-3.1,3.1c7.2,2.8,22.6,5.7,19.6,16.7c-0.8,2.9-1.8,1.6-3.9,0.1c-2.1-1.5-4.1-3-6.1-4.6c-3.4-2.8-6.6-5.8-9.6-9
			C323.5,321.6,319.9,325.1,322.2,327.5L322.2,327.5z"/>
	</g>
</g>
<g>
	<path class="st1" d="M513.5,342.8c5.2-2.7,10.5-5.5,15.7-8.2c5-2.7,10.8-6.4,10.7-12.1c0-0.8-0.2-1.7-0.7-2.3
		c-1.1-1.5-3.3-1.4-5.1-1.1c-3.7,0.5-7.4,1.1-10.6,3.1c-3.2,1.9-5.6,5.5-5.1,9.2"/>
	<g>
		<path class="st1" d="M514.8,345c7.2-3.8,15.6-7,21.9-12.2c3.6-2.9,7.6-8.6,4.9-13.3c-2.9-5.2-11.6-2.7-16-1.1
			c-5.6,2.1-10,6.7-9.7,13c0.2,3.2,5.2,3.2,5,0c-0.3-5.4,4.5-7.9,9.1-9c1.8-0.4,6.1-1.9,7.4,0.3c0.9,1.6-1.8,4.5-2.7,5.4
			c-2.6,2.6-6.1,4.2-9.4,5.9c-4.4,2.3-8.7,4.6-13.1,6.9C509.4,342.2,511.9,346.5,514.8,345L514.8,345z"/>
	</g>
</g>
<g>
	<path class="st1" d="M420.7,337.8c-10.6,1.8-21.7-3-28.8-11.1s-10.4-19-10.5-29.8c0-0.8,0-1.7,0.6-2.4c1.1-1.2,3-0.5,4.4,0.3
		c9.2,5.1,18.4,10.2,27.7,15.3c0.4-11.9,4.3-23.6,11-33.3c1-1.4,2.3-2.9,4-2.8c1.6,0.2,2.6,1.8,3.4,3.2c4.7,9.1,8.5,18.6,11.3,28.4
		c4.7-10.7,13.5-21.7,25.2-21.1c1,0,2,0.2,2.7,0.9c0.7,0.7,0.8,1.8,1,2.7c1.3,12.2,0.4,26.4-9.2,34.2c-3.2,2.6-7.2,4.2-11,5.8
		c-9.8,4-19.7,7.9-29.5,11.9"/>
	<g>
		<path class="st1" d="M420.1,335.4c-15.8,2.2-29.2-9.6-33.8-24c-1.2-3.6-1.9-7.4-2.2-11.2c-0.1-1.9-0.9-2.9,1.1-3.2
			c1.1-0.2,4.3,2.4,5.2,2.9c7.5,4.1,15,8.3,22.5,12.4c1.7,0.9,3.7-0.3,3.8-2.2c0.3-5.4,1.2-10.8,2.8-16c1.5-4.7,3.7-11.9,7.4-15.4
			c3-2.9,3.8,0.3,5.1,3c1.3,2.6,2.5,5.2,3.6,7.9c2.3,5.4,4.2,11,5.8,16.7c0.6,1.9,3.6,2.6,4.6,0.6c3.3-7.1,7.9-14.7,15.2-18.2
			c1.5-0.7,4.7-2.1,6.5-1.7c3,0.8,2.8,4.5,2.9,6.9c0.2,4.4,0,8.8-1,13c-2.2,9.6-8.2,14.8-17.1,18.5c-10.1,4.2-20.2,8.1-30.3,12.2
			c-2.9,1.2-1.7,6,1.3,4.8c7.4-3,14.8-6,22.2-8.9c5.7-2.3,12-4.2,17.1-7.7c8.8-5.8,12.1-15.9,12.7-26.1c0.2-4.2,1-11.2-1.3-15
			c-2.3-3.7-7.6-3-11.2-2.1c-10.3,2.7-17.1,12.6-21.3,21.7c1.5,0.2,3,0.4,4.6,0.6c-2.2-7.7-5-15.2-8.4-22.5
			c-1.8-4-4.7-12.9-10.9-10.5c-5.2,2-8.4,10.8-10.3,15.3c-3,7.3-4.6,15-5,22.9c1.3-0.7,2.5-1.4,3.8-2.2c-5.8-3.2-11.5-6.4-17.3-9.6
			c-4-2.2-9-6.3-13.6-6.9c-8.9-1.1-4.9,14.4-3.7,18.9c4.9,18.3,21.1,32.5,40.7,29.8C424.6,339.8,423.2,335,420.1,335.4L420.1,335.4z
			"/>
	</g>
</g>
<g>
	<path class="st1" d="M427.2,361.4c0.6,3.9-1.4,8.2,0.5,11.7c1.8,3.4,7.1,3.9,9.9,1.3c2.8-2.6,3-7.4,0.6-10.5
		c-2.3-3.1-6.6-4.3-10.3-3.5"/>
	<g>
		<path class="st1" d="M424.7,361.4c0.6,5.3-2.1,11.5,3,15.3c3.6,2.7,9.1,2.3,12.2-1.1c3.1-3.4,3.2-8.9,0.7-12.7
			c-2.9-4.4-8.4-5.8-13.4-4.9c-3.2,0.6-1.8,5.4,1.3,4.8c2.8-0.5,5.9,0.2,7.7,2.6c1.5,2,1.7,5.5-0.4,7.2c-1.7,1.4-4.9,1.2-6-0.8
			c-1.6-2.8,0.1-7.3-0.2-10.4C429.4,358.2,424.4,358.2,424.7,361.4L424.7,361.4z"/>
	</g>
</g>
<g>
	<path class="st2" d="M279.5,536.1c-15.8-6.4-32.9-10.2-46.6-20.3c-13.7-10.1-22.9-29.4-14.8-44.4c6.6-12.1,21.4-16.7,34.9-19.3
		c30.8-5.9,62.4-6.9,93.5-3.2c8.1,1,16.5,2.4,23,7.3c6,4.5,9.7,11.4,12.5,18.3c3.8,9.2,6.5,18.8,8,28.7c1,6.7,1.3,14.2-2.6,19.7
		c-4.2,5.9-12,7.9-19.2,9.2c-35.5,6.6-72.1,7-107.8,1.4"/>
	<g>
		<path class="st2" d="M280.2,533.7c-23.2-9.3-57.6-16-62.2-45.7c-4.9-31,38.7-34.8,59.7-37c15.9-1.7,31.9-2.1,47.9-1.3
			c7,0.4,14,0.9,21,1.8c7.8,1,16.2,2.4,22.5,7.6c10.7,9,15.1,26.3,17.7,39.3c1.4,6.9,3.1,15.5-0.6,22c-3.4,6-10.8,7.9-17.1,9.1
			c-35.3,7.1-72.4,7.2-107.9,1.7c-3.1-0.5-4.5,4.3-1.3,4.8c36.1,5.6,73.2,5.4,109.2-1.4c6.3-1.2,13-2.8,17.9-7.2
			c5-4.5,6.6-11.2,6.4-17.8c-0.3-8.2-2.3-16.5-4.7-24.3c-2.3-7.5-5.1-15.4-9.4-22.1c-8.8-13.6-23.3-15.9-38.3-17.4
			c-18.4-1.9-37.1-2.1-55.5-0.6c-16,1.3-33.2,2.9-48.4,8.6c-11.5,4.3-22.1,12.5-24,25.4c-2.1,14.3,6.1,28.7,17,37.5
			c14.1,11.3,32.4,15.3,48.8,21.9C281.8,539.7,283.1,534.9,280.2,533.7L280.2,533.7z"/>
	</g>
</g>
<g>
	<path class="st2" d="M673.3,508.3c-3,3.1-7.8,3.6-12.1,3.9c-33.6,2.1-67.4,2.8-101,2c-5.5-0.1-11.5-0.5-15.7-4.1
		c-3.3-2.9-4.8-7.3-5.9-11.6c-1.8-7.1-2.7-14.3-2.9-21.6c-0.1-6.5,0.5-13.4,4-18.9c2.9-4.5,7.5-7.7,12.3-10.1
		c12.6-6.3,26.8-8.4,40.9-9.6c30.1-2.6,61-1.7,89.7,7.9c10.3,3.4,20.7,8.4,26.8,17.4c6.1,9,6,22.9-2.7,29.4
		c-3.8,2.8-8.6,3.9-13.1,5.2c-9.1,2.6-17.8,6.5-25.9,11.5"/>
	<g>
		<path class="st2" d="M671.6,506.5c-5,4.4-14,3.4-20.2,3.8c-7.9,0.4-15.8,0.8-23.8,1.1c-15.2,0.5-30.4,0.7-45.6,0.7
			c-7.3,0-14.5-0.1-21.8-0.3c-6.7-0.2-13.6-0.8-17-7.5c-3-5.9-3.9-13.5-4.5-20.1c-0.7-6.9-1.1-14.6,1.3-21.2
			c5.1-13.4,23.5-17.8,36.1-20.1c13.4-2.4,27.3-3.2,40.9-3.3c14.6-0.2,29.2,0.7,43.5,3.5c12.8,2.4,26.8,5.8,37.8,13.2
			c10,6.8,18.9,22.6,8.6,33.3c-5.1,5.3-14.1,6.1-20.7,8.5c-6.9,2.5-13.5,5.7-19.7,9.5c-2.7,1.7-0.2,6,2.5,4.3
			c7.4-4.5,15.3-8.2,23.6-10.7c6.1-1.9,12.7-3.1,17.4-7.6c8-7.7,7.7-21,2.3-30c-7.2-12-21.5-17.5-34.3-21.3
			c-15.9-4.7-32.4-6.9-48.9-7.4c-16.3-0.5-32.9,0.2-49.1,2.6c-13.8,2-31.2,5.8-40.6,17c-9.1,11-6.7,28.5-4,41.4
			c1.3,6,2.9,12.6,7.9,16.7c5,4.1,11.7,4.3,17.9,4.4c20.5,0.5,41,0.4,61.4-0.2c10.2-0.3,20.5-0.8,30.7-1.3
			c7.4-0.4,15.9,0.2,21.8-5.1C677.5,507.9,674,504.4,671.6,506.5L671.6,506.5z"/>
	</g>
</g>
<g>
	<path class="st1" d="M246.5,213.6c-3.9-6.8-9.8-12.2-13.6-19.1c-3.7-6.7-5.1-14.6-4-22.1c0.2-1,0.4-2.2,1.2-2.9
		c1.4-1.3,3.7-0.6,5.5,0.3c3.8,2,7.4,4.5,10.6,7.4c0.6,0.5,1.2,1.1,2,1.1c1.3,0,2-1.3,2.6-2.4c2.2-4.4,5.6-8.2,9.6-11
		c1.7-1.2,3.7-2.2,5.8-2.2c4.5,0.2,7.2,5.2,7.8,9.6c1.2,8.6-1.7,17.4-6.6,24.5c-4.9,7.1-11.8,12.7-19,17.4"/>
	<g>
		<path class="st1" d="M248.7,212.3c-6.7-11.2-17-19.4-17.6-33.4c-0.1-1.6,0-3.3,0.1-4.9c0.3-2.5,1.2-2.6,3.8-1.7
			c2.9,1.1,5.8,3.6,8.2,5.5c2.9,2.4,5.7,4.3,8.7,0.9c1.7-1.9,2.6-4.6,4.3-6.6c2.1-2.5,6.8-7.8,10.6-6.9c6.5,1.5,5.3,13.1,4.3,17.6
			c-3,12.9-13.3,22.1-23.9,29.2c-2.7,1.8-0.2,6.1,2.5,4.3c12.7-8.5,24.9-20,26.8-36c0.8-6.2,0.2-14.2-5.3-18.3
			c-5.4-4.1-11.5-0.3-15.8,3.6c-1.4,1.3-2.7,2.7-3.8,4.3c-0.7,1-2,4.2-3,4.7c-0.5,1.2-1.2,1.1-1.9-0.3c-0.6-0.5-1.2-1-1.8-1.4
			c-1.7-1.3-3.5-2.6-5.3-3.7c-4.6-2.8-11.3-5.1-13,2c-1.7,6.9-0.1,15.2,2.7,21.6c3.6,8.2,10.4,14.4,15,22
			C246,217.6,250.4,215.1,248.7,212.3L248.7,212.3z"/>
	</g>
</g>
<g>
	<path class="st1" d="M560.5,209.4c-7.7,0.5-14.9-4.1-19.6-10.3c-4.6-6.1-7.1-13.6-9.5-20.9c-0.6-1.9-1.3-3.9-1-5.9
		c0.3-2,1.7-3.9,3.7-4.1c1.9-0.2,3.6,1.3,4.9,2.8c4.6,4.9,8.9,10.2,12.9,15.7c2.4-2.3,3.5-5.5,5.6-8.1c2.1-2.6,6.1-4.2,8.6-2.1
		c1.7,1.5,1.8,4,1.8,6.2c-0.1,9.1-1.1,18.1-2.8,27"/>
	<g>
		<path class="st1" d="M560.5,206.9c-12.6,0.3-20-11-24-21.5c-0.9-2.3-1.7-4.7-2.4-7c-0.3-0.8-1.3-3-1.1-3.7c1.1-1,2.1-1.9,3.2-2.9
			c0.4,0.3,0.7,0.7,1.1,1c2.2,1.2,4.5,5,6.1,6.9c2.2,2.7,4.3,5.5,6.4,8.3c0.9,1.2,2.7,1.8,3.9,0.5c1.8-1.9,2.9-4.1,4.4-6.3
			c0.9-1.4,2.4-3.9,4.2-4c3.7-0.3,3,4.6,3,6.5c-0.2,8.2-1.2,16.3-2.7,24.4c-0.6,3.1,4.2,4.5,4.8,1.3c1.2-6.6,2.1-13.2,2.6-19.9
			c0.3-4.4,1.5-10.9-1.4-14.7c-2.3-3-6.2-3.3-9.4-1.7c-4.5,2.3-5.8,7.3-9,10.8c1.3,0.2,2.6,0.3,3.9,0.5c-2.8-3.9-5.8-7.8-8.9-11.4
			c-2.4-2.7-5.2-7-8.9-8.1c-7.6-2.2-8.9,7.1-7.4,12.1c4.5,15.1,13.1,34.2,31.7,33.7C563.7,211.9,563.7,206.9,560.5,206.9
			L560.5,206.9z"/>
	</g>
</g>
<g>
	<g>
		<path class="st1" d="M327.2,70.3c28.3,0.9,56.7,1.8,85,2.7c-0.8-1.1-1.6-2.1-2.4-3.2c-0.9,2.8-2.2,5-4.2,7.2
			c-2.2,2.3,1.3,5.9,3.5,3.5c2.6-2.8,4.4-5.8,5.5-9.4c0.5-1.6-0.9-3.1-2.4-3.2c-28.3-0.9-56.7-1.8-85-2.7
			C324,65.2,324,70.2,327.2,70.3L327.2,70.3z"/>
	</g>
</g>
<g>
	<g>
		<path class="st1" d="M325.2,70.6c2.7,1.7,5,3.8,6.9,6.3c0.8,1.1,2.2,1.6,3.4,0.9c1.1-0.6,1.7-2.3,0.9-3.4
			c-2.5-3.2-5.3-5.9-8.7-8.1C325,64.6,322.4,68.9,325.2,70.6L325.2,70.6z"/>
	</g>
</g>
<g>
	<g>
		<path class="st1" d="M358.7,42.1c-5.7,5.8-10.3,12.3-13.9,19.5c-1.4,2.9,2.9,5.4,4.3,2.5c3.4-6.9,7.7-13.1,13.1-18.5
			C364.5,43.4,361,39.8,358.7,42.1L358.7,42.1z"/>
	</g>
</g>
<g>
	<g>
		<path class="st1" d="M358,43.7c3.2,6.9,7.2,13.3,11.9,19.3c2,2.5,5.5-1,3.5-3.5c-4.4-5.7-8.1-11.8-11.2-18.3
			C361,38.3,356.7,40.8,358,43.7L358,43.7z"/>
	</g>
</g>
<g>
	<g>
		<path class="st1" d="M447.2,40.1c-3.4,9.4-7.2,18.7-11.3,27.8c-1.3,2.9,3,5.5,4.3,2.5c4.3-9.5,8.2-19.2,11.8-29
			C453.1,38.4,448.3,37.1,447.2,40.1L447.2,40.1z"/>
	</g>
</g>
<g>
	<g>
		<path class="st1" d="M449.3,41.4c5.8,9.8,11.7,19.6,17.5,29.3c1.6,2.8,6,0.2,4.3-2.5c-5.8-9.8-11.7-19.6-17.5-29.3
			C452,36.1,447.7,38.6,449.3,41.4L449.3,41.4z"/>
	</g>
</g>
<g>
	<g>
		<path class="st1" d="M440.6,66.8c7.1-0.8,14.3-1.7,21.4-2.5c3.2-0.4,3.2-5.4,0-5c-7.1,0.8-14.3,1.7-21.4,2.5
			C437.5,62.2,437.4,67.2,440.6,66.8L440.6,66.8z"/>
	</g>
</g>
<g>
	<g>
		<path class="st1" d="M525.8,39.9c0.9,8.5,1.9,17,2.8,25.4c0.4,3.2,5.4,3.2,5,0c-0.9-8.5-1.9-17-2.8-25.4
			C530.4,36.7,525.4,36.7,525.8,39.9L525.8,39.9z"/>
	</g>
</g>
<g>
	<g>
		<path class="st1" d="M528.6,57.2c4.8-0.8,9.6-1.4,14.5-1.8c3.2-0.2,3.2-5.2,0-5c-5.3,0.4-10.6,1.1-15.8,2
			C524.1,52.9,525.4,57.7,528.6,57.2L528.6,57.2z"/>
	</g>
</g>
<g>
	<g>
		<path class="st1" d="M547,34.4c0.1,8.7-0.9,17.2-3,25.6c-0.8,3.1,4,4.5,4.8,1.3c2.2-8.8,3.3-17.8,3.1-26.9
			C551.9,31.2,546.9,31.2,547,34.4L547,34.4z"/>
	</g>
</g>
<g>
	<g>
		<path class="st1" d="M565.9,42.2c2.7,7.7,6.3,15,10.8,21.9c1.8,2.7,6.1,0.2,4.3-2.5c-4.3-6.5-7.7-13.4-10.3-20.7
			C569.6,37.9,564.8,39.2,565.9,42.2L565.9,42.2z"/>
	</g>
</g>
<g>
	<g>
		<path class="st1" d="M593,39.9c-1.4,16.8-6.2,33-14,47.9c-1.5,2.8,2.8,5.4,4.3,2.5c8.3-15.8,13.2-32.7,14.7-50.5
			C598.3,36.7,593.3,36.8,593,39.9L593,39.9z"/>
	</g>
</g>
<g>
	<g>
		<path class="st1" d="M617.5,42.2c3,10.1,7.3,19.6,13.1,28.3c1.8,2.7,6.1,0.2,4.3-2.5c-5.5-8.4-9.7-17.5-12.6-27.1
			C621.4,37.8,616.6,39.1,617.5,42.2L617.5,42.2z"/>
	</g>
</g>
<g>
	<g>
		<path class="st1" d="M645.1,40.8c2.4,18.7-1.2,37.4-10.3,53.9c-1.6,2.8,2.8,5.3,4.3,2.5c9.6-17.2,13.5-36.9,11-56.4
			C649.7,37.6,644.7,37.6,645.1,40.8L645.1,40.8z"/>
	</g>
</g>
<g>
	<g>
		<path class="st1" d="M676.8,43.1c2.1,8.9,5.1,17.5,8.7,25.8c1.3,2.9,5.6,0.4,4.3-2.5c-3.5-8-6.2-16.2-8.2-24.6
			C680.8,38.6,676,39.9,676.8,43.1L676.8,43.1z"/>
	</g>
</g>
<g>
	<g>
		<path class="st1" d="M699.2,43.1c-0.6,16.3-4.2,34.2-19.5,42.9c-2.8,1.6-0.3,5.9,2.5,4.3c16.9-9.6,21.4-29.2,22-47.2
			C704.4,39.9,699.4,39.9,699.2,43.1L699.2,43.1z"/>
	</g>
</g>
<g>
	<g>
		<path class="st1" d="M719.2,75c3.2,0,3.2-5,0-5C716,70,716,75,719.2,75L719.2,75z"/>
	</g>
</g>
<g>
	<g>
		<path class="st1" d="M732.7,74.2c3.2,0,3.2-5,0-5C729.5,69.2,729.5,74.2,732.7,74.2L732.7,74.2z"/>
	</g>
</g>
<g>
	<g>
		<path class="st1" d="M754.2,71.8c3.2,0,3.2-5,0-5C750.9,66.8,750.9,71.8,754.2,71.8L754.2,71.8z"/>
	</g>
</g>
<g>
	<g>
		<path class="st1" d="M674.8,152c3.2,0,3.2-5,0-5C671.6,147,671.6,152,674.8,152L674.8,152z"/>
	</g>
</g>
<g>
	<g>
		<path class="st1" d="M386.7,131.3c3.2,0,3.2-5,0-5C383.5,126.3,383.5,131.3,386.7,131.3L386.7,131.3z"/>
	</g>
</g>
<g>
	<g>
		<path class="st1" d="M386.7,179.7c3.2,0,3.2-5,0-5C383.5,174.7,383.5,179.7,386.7,179.7L386.7,179.7z"/>
	</g>
</g>
<g>
	<g>
		<path class="st1" d="M150.2,105.9c3.2,0,3.2-5,0-5C147,100.9,147,105.9,150.2,105.9L150.2,105.9z"/>
	</g>
</g>
<g>
	<g>
		<path class="st1" d="M105.7,186.9c3.2,0,3.2-5,0-5C102.5,181.9,102.5,186.9,105.7,186.9L105.7,186.9z"/>
	</g>
</g>
<g>
	<g>
		<path class="st1" d="M82.7,142.4c3.2,0,3.2-5,0-5C79.5,137.4,79.5,142.4,82.7,142.4L82.7,142.4z"/>
	</g>
</g>
<g>
	<g>
		<path class="st1" d="M136.7,177.4c3.2,0,3.2-5,0-5C133.5,172.4,133.5,177.4,136.7,177.4L136.7,177.4z"/>
	</g>
</g>
<g>
	<g>
		<path class="st1" d="M762.9,612.3c3.2,0,3.2-5,0-5C759.7,607.3,759.7,612.3,762.9,612.3L762.9,612.3z"/>
	</g>
</g>
<g>
	<g>
		<path class="st1" d="M695.4,644.8c3.2,0,3.2-5,0-5C692.2,639.8,692.2,644.8,695.4,644.8L695.4,644.8z"/>
	</g>
</g>
<g>
	<g>
		<path class="st1" d="M750.2,523.4c3.2,0,3.2-5,0-5C747,518.4,747,523.4,750.2,523.4L750.2,523.4z"/>
	</g>
</g>
<g>
	<g>
		<path class="st1" d="M786.7,540.8c3.2,0,3.2-5,0-5C783.5,535.8,783.5,540.8,786.7,540.8L786.7,540.8z"/>
	</g>
</g>
<g>
	<g>
		<path class="st1" d="M633.5,603.5c3.2,0,3.2-5,0-5C630.3,598.5,630.3,603.5,633.5,603.5L633.5,603.5z"/>
	</g>
</g>
<g>
	<g>
		<path class="st1" d="M117.7,606.7c3.2,0,3.2-5,0-5C114.4,601.7,114.4,606.7,117.7,606.7L117.7,606.7z"/>
	</g>
</g>
<g>
	<g>
		<path class="st1" d="M69.2,578.2c3.2,0,3.2-5,0-5C66,573.2,66,578.2,69.2,578.2L69.2,578.2z"/>
	</g>
</g>
<g>
	<g>
		<path class="st1" d="M77.2,509.1c3.2,0,3.2-5,0-5C74,504.1,74,509.1,77.2,509.1L77.2,509.1z"/>
	</g>
</g>
<g>
	<g>
		<path class="st1" d="M39.1,475.8c3.2,0,3.2-5,0-5C35.9,470.8,35.9,475.8,39.1,475.8L39.1,475.8z"/>
	</g>
</g>
<g>
	<g>
		<path class="st1" d="M46.2,625c0.5,0,1.1,0,1.6,0c1.3,0,2.6-1.1,2.5-2.5c-0.1-1.4-1.1-2.5-2.5-2.5c-0.5,0-1.1,0-1.6,0
			c-1.3,0-2.6,1.1-2.5,2.5C43.8,623.8,44.8,625,46.2,625L46.2,625z"/>
	</g>
</g>
<g>
	<g>
		<path class="st1" d="M248.6,642.4c3.2,0,3.2-5,0-5C245.4,637.4,245.4,642.4,248.6,642.4L248.6,642.4z"/>
	</g>
</g>
<g>
	<g>
		<path class="st1" d="M743,195.6c3.2,0,3.2-5,0-5C739.8,190.6,739.8,195.6,743,195.6L743,195.6z"/>
	</g>
</g>
<g>
	<g>
		<path class="st1" d="M715.3,265.5c3.2,0,3.2-5,0-5C712.1,260.5,712,265.5,715.3,265.5L715.3,265.5z"/>
	</g>
</g>
<g>
	<g>
		<path class="st1" d="M676.4,186.1c3.2,0,3.2-5,0-5C673.2,181.1,673.2,186.1,676.4,186.1L676.4,186.1z"/>
	</g>
</g>
<g>
	<g>
		<path class="st1" d="M767.7,140.1c3.2,0,3.2-5,0-5C764.4,135.1,764.4,140.1,767.7,140.1L767.7,140.1z"/>
	</g>
</g>
<g>
	<g>
		<path class="st1" d="M797.8,285.3c3.2,0,3.2-5,0-5C794.6,280.3,794.6,285.3,797.8,285.3L797.8,285.3z"/>
	</g>
</g>
<g>
	<g>
		<path class="st1" d="M211.4,358c2.8,8.5,5.5,17,8.3,25.5c1,3,5.8,1.7,4.8-1.3c-2.8-8.5-5.5-17-8.3-25.5
			C215.2,353.6,210.4,355,211.4,358L211.4,358z"/>
	</g>
</g>
<g>
	<g>
		<path class="st1" d="M229.9,361.1c1.5,6.4,2.6,12.8,3.2,19.3c0.3,3.2,5.3,3.2,5,0c-0.6-7-1.7-13.8-3.3-20.6
			C234,356.7,229.2,358,229.9,361.1L229.9,361.1z"/>
	</g>
</g>
<g>
	<g>
		<path class="st1" d="M248.6,356.6c-0.3,7.4-0.5,14.8-0.8,22.2c-0.1,3.2,4.9,3.2,5,0c0.3-7.4,0.5-14.8,0.8-22.2
			C253.7,353.4,248.7,353.4,248.6,356.6L248.6,356.6z"/>
	</g>
</g>
<g>
	<g>
		<path class="st1" d="M530.2,345.4c1.4,5,2.8,10,4.2,15c0.9,3.1,5.7,1.8,4.8-1.3c-1.4-5-2.8-10-4.2-15
			C534.2,341,529.3,342.3,530.2,345.4L530.2,345.4z"/>
	</g>
</g>
<g>
	<g>
		<path class="st1" d="M542.2,343.8c1.1,6.6,2.2,13.2,3.3,19.8c0.5,3.2,5.3,1.8,4.8-1.3c-1.1-6.6-2.2-13.2-3.3-19.8
			C546.5,339.3,541.7,340.6,542.2,343.8L542.2,343.8z"/>
	</g>
</g>
<g>
	<g>
		<path class="st1" d="M555.7,342.3c-0.3,5-0.5,10.1-0.8,15.1c-0.2,3.2,4.8,3.2,5,0c0.3-5,0.5-10.1,0.8-15.1
			C560.9,339.1,555.9,339.1,555.7,342.3L555.7,342.3z"/>
	</g>
</g>
<g>
	<g>
		<path class="st1" d="M474.9,468.7c1.1-7.4,6.5-12.7,9.7-19.2c3.4-6.8,5.3-14,6-21.6c1.4-15.1-3.1-30.3-10.4-43.4
			c-6.2-11.3-23.5-1.2-17.3,10.1c5.6,10.2,9.1,22.1,7.6,33.8c-1.6,13.2-12.9,22-15,35c-0.8,5.3,1.4,10.8,7,12.3
			C467.3,477,474,474.1,474.9,468.7L474.9,468.7z"/>
	</g>
</g>
</svg>
