<?xml version="1.0" encoding="utf-8"?>
<!-- Generator: Adobe Illustrator 22.1.0, SVG Export Plug-In . SVG Version: 6.00 Build 0)  -->
<svg version="1.1" id="Слой_1" xmlns="http://www.w3.org/2000/svg" xmlns:xlink="http://www.w3.org/1999/xlink" x="0px" y="0px"
	 viewBox="0 0 841.9 677.5" style="enable-background:new 0 0 841.9 677.5;" xml:space="preserve">
<style type="text/css">
	.st0{fill:#FDEEF4;}
	.st1{fill:#F9CEE1;}
	.st2{fill:#AAD8B5;}
	.st3{fill:#9ED18F;}
	.st4{fill:#EE2F52;}
	.st5{fill:#EFA8B7;}
</style>
<g>
	<path class="st0" d="M300.2,77.8c22.2-0.1,44.4-0.3,66.7-0.4c21-0.1,42-0.3,62.8,2.3c23.2,2.9,45.8,9.2,68.3,15.3
		c40.4,11,80.9,21.6,121.5,31.7c4.2,1,8.6,2.1,12.7,0.7c4-1.3,6.8-4.7,9.7-7.8c17.5-19.2,41.7-32.1,67.4-36.2
		c10.7,27.5,17.4,56.5,19.8,85.8c0.5,6.3,1.1,13.3,5.7,17.7c2.9,2.8,7,4.1,10.8,5.6c20.2,8,35.6,25.6,44.9,45.2s13.2,41.4,15.9,63
		c2.9,23.5,4.5,47.7-1.3,70.7c-12.1,48-53.9,82.7-97.3,106.2c-48.6,26.3-102,43-156.3,52.9c-17.2,3.1-34.7,5.6-52.1,3.8
		c-14.4-1.5-28.2-5.8-42-10.1c-23.3-7.3-46.5-14.6-69.8-21.8"/>
	<g>
		<path class="st1" d="M300.2,90.3c29.8-0.2,59.5-0.8,89.3-0.5c14.2,0.2,28.5,0.6,42.5,2.7c14.4,2.1,28.5,5.5,42.6,9.1
			c28.2,7.4,56.4,15.2,84.6,22.6c13.9,3.6,27.9,7.2,41.8,10.7c15.5,3.9,31.8,10.2,45.3-1.9c5.1-4.6,9.4-10,14.7-14.5
			c4.4-3.7,9.3-7,14.3-10c11.5-6.7,23.9-10.9,37.2-13.1c-5.1-2.9-10.3-5.8-15.4-8.7c9.8,25.6,16.6,52.4,19.1,79.7
			c1.3,14,3.2,27.7,17.2,34.6c5,2.5,9.2,3.6,13.9,6.2c5.2,2.9,9,5.7,13.2,9.7c17,16.3,25.2,39,29.9,62c5,25.1,8.6,52.7,4.9,78.2
			c-6.4,44.2-40,76.9-76.7,99.8c-44.3,27.7-94.7,45.2-145.5,56.6c-29.2,6.5-59.3,12.8-88.9,5.6c-15.6-3.8-30.9-9.1-46.2-13.9
			c-15.7-4.9-31.4-9.8-47.2-14.8c-15.4-4.8-22,19.3-6.6,24.1c28.6,9,57.1,18.7,86,26.7c14.5,4,29.5,6.6,44.6,6.2
			c15.2-0.4,30.4-3,45.3-5.8c54.4-10.4,108-27.8,156.6-54.6c41.6-23,81.2-56,97.4-102.2c9.2-26.4,8.3-54.9,5-82.2
			c-3.4-27.8-8.3-56.2-22.9-80.6c-7.4-12.3-17-23.1-28.6-31.5c-5.6-4.1-11.6-7.2-18.1-9.8c-2.2-0.9-4.5-1.6-6-2.7
			c1,0.7-1-1.8-0.5-0.5c-0.6-1.3-0.8-2.9-1.1-4.3c-1.1-5.8-1.5-15.3-2.5-22.4c-1.1-8.1-2.5-16.1-4.2-24.1c-3.4-16-8.2-31.6-14-46.8
			c-2.6-6.8-8.1-9.9-15.4-8.7c-24.6,4.1-47.8,15.8-66.1,32.7c-2.1,2-4.2,4-6.2,6.2c-1.4,1.5-3.3,4.4-4.9,5.1
			c-3.4,1.6-12.2-2.2-16.3-3.2c-14.3-3.6-28.5-7.2-42.8-10.9c-28.3-7.3-56.5-15.1-84.7-22.6c-27.8-7.4-55.7-12.6-84.6-13.5
			c-33.3-1-66.8,0-100.1,0.2C284.1,65.4,284.1,90.4,300.2,90.3L300.2,90.3z"/>
	</g>
</g>
<g>
	<path class="st0" d="M212.8,474.2c-22.3,12.4-50.2,8.1-74.3-0.3c-19.6-6.8-38.9-16.5-51.9-32.6c-10.5-13-16.2-29.1-21.5-44.9
		c-6.7-20-13.2-40.3-15.3-61.3c-3.7-37,6.5-73.9,19.4-108.8c6.7-18.1,14.1-36,24.9-51.9c15.1-22.2,36.5-40.1,61-50.9
		c2.1-0.9,4.4-1.9,5.4-3.9c0.8-1.5,0.8-3.2,0.7-4.9c-0.4-21.6-0.9-43.3-1.3-64.9c26.7,7.8,52.4,19.2,76.2,33.7
		c1.5,0.9,3.1,1.9,4.8,2c1.6,0.1,3.1-0.5,4.6-1c18.4-6.7,38.1-9.4,57.6-8.1"/>
	<g>
		<path class="st1" d="M206.5,463.4c-14.1,7.6-30.7,7.1-46,3.8c-16.4-3.6-32.7-9.6-46.8-18.6c-13.8-8.7-23-21.1-29.4-36
			c-7.3-17-12.9-35.5-17.5-53.4c-4.8-18.8-6.3-37.6-4.4-56.9c1.9-19.3,7.1-38.2,13.2-56.5c11.2-33.8,25-66.9,52.5-90.7
			c6.7-5.8,14.1-10.8,21.9-15.1c9.5-5.3,21.3-8,23.5-20.4c1-5.5,0.3-11.3,0.2-16.8c-0.1-5.9-0.2-11.8-0.4-17.7
			c-0.2-11.8-0.5-23.6-0.7-35.4c-5.3,4-10.5,8-15.8,12.1C181,69.1,204.2,79.1,226,92c6.9,4.1,13.2,7.3,21.5,5.1
			c6.1-1.6,12-4,18.2-5.4c12.4-2.8,25-3.5,37.6-2.8c6.7,0.4,12.5-6,12.5-12.5c0-7.1-5.7-12.1-12.5-12.5c-13.3-0.8-26.7,0.2-39.8,2.7
			c-6,1.2-11.9,2.7-17.7,4.6c-1.2,0.4-3.2,0.7-4.2,1.5c-1.8,0.5-1,0.8,2.5,0.9c-0.5-0.3-1-0.6-1.5-0.9c-2.6-1.9-5.8-3.5-8.6-5.1
			c-22.2-12.6-46-22.6-70.6-29.9c-7.7-2.3-16,4-15.8,12.1c0.2,10.8,0.4,21.6,0.7,32.5c0.1,5.2,0.2,10.5,0.3,15.7
			c0.1,2.6,0.1,5.2,0.2,7.9c0.1,2.7-0.5,6.3,0.2,8.9c0,0.3,0,0.6,0,0.8c-0.1,2.6,0.7,1.3,2.5-4c-0.3,0-2.4,1.2-2.5,1.2
			c-1.9,0.9-3.9,1.8-5.8,2.7c-4.1,2-8.1,4.3-11.9,6.7c-8,4.9-15.5,10.7-22.5,16.9c-29.8,26.6-45.1,63.9-57.4,101
			c-6.7,20.3-11.7,41-13.8,62.3c-2,20.8-0.1,41.5,4.9,61.8c4.7,19.2,11,38.6,18.6,56.8c7.9,19,19.2,34.7,36.2,46.6
			c16.8,11.8,37.7,19.7,57.7,24c21.8,4.6,44.5,4.2,64.5-6.5c5.9-3.2,7.8-11.4,4.5-17.1C220.1,461.9,212.5,460.2,206.5,463.4
			L206.5,463.4z"/>
	</g>
</g>
<g>
	<path class="st2" d="M151.8,374.5c-5.9,4.8-2.1,15.1,4.6,18.9c6.7,3.7,14.7,3.5,22.1,5.4c21.9,5.5,34.8,28.3,40.9,50.1
		c6,21.8,8,45.2,19.6,64.6c11.4,19.2,32.1,32.5,54.3,35.1c15.5,1.8,31.2-1.4,46.5-4.7c11.8-2.5,24-5.1,33.5-12.5
		c12.6-9.8,18.4-26.9,16.6-42.8c-2.5-22.4-17.9-44-11.5-65.6c3.1-10.3,10.9-18.6,19.6-24.8c8.7-6.2,18.6-10.8,27.8-16.3
		c5-3,10-6.3,13.1-11.3c3.1-4.9,3.9-11.7,0.5-16.4c-4.5-6.2-13.9-6.2-21.2-4c-16.6,5.1-30.9,18.3-48.2,18.6
		c-6.5,0.1-12.8-1.6-19.1-3.1c-9.1-2.2-18.5-3.9-27.8-2.6s-18.4,6.3-22.7,14.7c-2.5,4.8-3.6,11-8.3,13.7c-1.9,1.1-4.2,1.5-6.5,1.8
		c-11.5,1.5-23.4,2.9-34.4-0.8c-7-2.4-13.2-6.7-20.1-9.3c-6.9-2.6-15.3-3.3-21.1,1.3c-2.2,1.7-3.9,4.1-6.5,4.9
		c-4.4,1.5-8.8-1.8-12.5-4.5c-11.6-8.4-26.3-12.4-40.6-11.2"/>
	<g>
		<path class="st2" d="M150,372.8c-8.1,7.7-1.4,20.1,7.3,23.8c6.7,3,14.2,2.9,21.2,4.8c6.5,1.8,12.3,5.2,17.2,9.8
			c22.3,20.7,23.2,53.2,31.3,80.5c8,27,26.5,49.1,54.3,57c15.9,4.5,32.4,2.8,48.4-0.3c14.6-2.8,30.9-5.1,43.4-13.9
			c10.7-7.6,17.1-19.7,18.9-32.5c2-14.5-2.6-28-7.1-41.6c-5-15.1-9.3-31.4,0.1-45.8c8.9-13.7,24.4-20.6,38.2-28.4
			c10.3-5.8,24.2-14.9,20.5-28.9c-3.3-12.6-18.5-12.3-28.3-8.8c-13.6,4.8-25.4,14.5-39.8,17.2c-8.8,1.6-17.3-1-25.8-2.9
			c-8.1-1.9-16.4-3.3-24.7-2.5c-12.7,1.3-23.4,8-28.3,19.9c-1.3,3.2-2.5,7.1-5.7,9.1c-3.8,2.3-9.9,2.1-14.3,2.5
			c-8.8,0.8-17.8,0.8-26.2-2.4c-12.2-4.7-24.8-15.3-38.5-9c-2.7,1.2-4.5,3.2-6.7,5c-4.8,3.9-9.6-0.5-13.6-3.2
			c-5.8-4-12.4-7.1-19.2-9c-7.2-2-14.6-2.6-22-2.1c-3.2,0.2-3.2,5.2,0,5c15.4-1.1,28.8,3.6,41.3,12.2c4.5,3.1,9.8,5.4,14.9,2.2
			c2.4-1.5,4.1-3.8,6.5-5.2c3.5-2,7.8-2.1,11.6-1.5c7.4,1.3,13.8,5.7,20.6,8.7c6.2,2.8,12.6,4.3,19.4,4.6c7.5,0.3,15.1-0.5,22.5-1.7
			c5.7-0.9,9.6-3.6,12.1-8.8c3.1-6.4,5-12.2,11.2-16.3c6.5-4.3,14.3-5.5,21.9-5.2c14.7,0.6,28.8,8,43.6,5.5
			c13.1-2.2,24.1-10.3,36-15.5c6-2.6,13.2-5.2,19.8-3.2c9.7,2.9,8.3,13.8,2.9,20c-4.9,5.6-12.4,9.1-18.8,12.6
			c-6.5,3.6-13.2,7.1-19.2,11.4c-9.8,7.1-18.6,16.6-21.4,28.7c-6.3,27.7,17.4,52.5,11.1,80.4c-3.4,14.9-13.2,25.8-27.5,31.1
			c-6.4,2.4-13.2,3.8-19.9,5.2c-8.7,1.8-17.5,3.7-26.4,4.6c-29,2.8-57.7-9.3-72.4-35.3c-13.9-24.4-13-54-24.6-79.4
			c-4.7-10.4-11.4-20.2-20.6-27.2c-4.6-3.4-9.7-6.1-15.2-7.6c-6.8-1.8-14.3-1.6-20.8-4.6c-5.3-2.5-10.9-10.6-5.5-15.7
			C155.9,374.1,152.3,370.6,150,372.8L150,372.8z"/>
	</g>
</g>
<g>
	<g>
		<path class="st3" d="M199.1,390.3C211,410,234,416,254,424c12.2,4.8,24,11.1,31.8,22c7,9.7,10.7,21.3,12.9,32.9
			c2.6,13.8,3.1,28,5,41.9c1.3,9.5,3.4,23.7,15.3,25.2c9.9,1.2,16.6-11.2,20-18.7c4.5-10.1,6.1-21.4,4.6-32.3
			c-3.2-22.7-20.7-37.8-33.2-55.6c-7.3-10.3-11.6-21.3-12-34c-0.1-3.1,0-6.1,0.1-9.2c0.1-2.9-0.4-8.8,1.1-11.3
			c2.9-4.7,16.9,7.2,19.6,9c5.6,3.7,11.5,7.1,16.6,11.4c5.8,4.9,9.3,10.9,11.7,18c4.5,12.9,8.4,26.3,10.6,39.8
			c2.5,15.1,0.1,29.3-1,44.4c-0.5,6.9-1.5,21.2,8.1,23c11.9,2.2,13.7-17.9,14.4-25.3c1.4-15.1-1-30.4-4.4-45.1
			c-3.5-15.2-8.1-30.1-10.6-45.4c-2.3-13.6-2.9-29.6,7-40.5c2.2-2.4-1.4-5.9-3.5-3.5c-15.6,17.2-9.3,43.4-4.4,63.6
			c6.4,26.3,15.7,54,9.3,81.3c-0.6,2.6-1.2,5.8-2.9,8c-3.4,4.4-6.6,0.6-7.6-3.1c-1.7-6.3-0.3-14,0.4-20.4
			c1.5-13.3,2.2-25.9-0.1-39.2c-2.3-13.1-6.1-26.2-10.4-38.8c-3.9-11.2-10.3-18.7-20-25.3c-5.1-3.5-10.3-6.8-15.4-10.2
			c-4.3-2.8-9.8-7.9-15.3-8c-4.1,0-6.4,2.8-7.2,6.5c-1.2,6-1.2,12.5-1.1,18.6c0.2,11.5,2.9,22.4,8.8,32.3c5.3,9,12.3,16.9,18.9,25
			c6.7,8.4,13.2,17.4,16.2,27.9c3.4,11.8,2.4,24.8-2.5,36c-2.1,4.9-5,10-8.9,13.7c-8.5,8.1-14.5-3.8-15.9-10.8
			c-2.7-13.3-3.1-26.9-4.9-40.3c-3.3-25.4-12.4-49.1-36-61.9c-21.9-11.8-51.7-14.6-65.6-37.6C201.8,385,197.5,387.5,199.1,390.3
			L199.1,390.3z"/>
	</g>
</g>
<g>
	<path class="st3" d="M427.2,380.5c18.5-9.9,40.1-18.8,60-12.2c22.1,7.3,34.6,33.1,31.1,56.1c-3.5,23-20.2,42.4-40.3,54.1
		s-43.4,16.5-66.5,19.7c-5.8,0.8-12.3,1.3-17-2.2c-4.5-3.4-5.8-9.5-6.8-15c7.2-1.7,14.6-1.9,21.9-2.7c15.7-1.9,31.3-7.2,43.6-17.1
		c12.3-10,20.9-25,21-40.9c0-6.2-1.3-12.7-5.1-17.6c-4.9-6.3-13-9.2-20.9-10.5c-17.6-2.8-35.6,1.3-52.6,6.8"/>
	<g>
		<path class="st3" d="M428.5,382.7c18.1-9.6,40.9-19.7,61.3-10.7c15.3,6.8,24.8,23.2,26.4,39.5c4,40.4-35.1,67.5-69.3,77.2
			c-10.7,3-21.6,5.1-32.5,6.6c-5.4,0.8-12.3,2.3-17.3-0.7c-4.9-2.9-5.9-9.2-6.9-14.3c-0.6,1-1.2,2.1-1.7,3.1
			c8.1-1.7,16.3-1.9,24.5-3.1c7.9-1.1,15.6-3.1,22.9-6.1c12.6-5.2,23.8-13.4,31.5-24.8c7.3-10.8,11.4-24.7,8.6-37.6
			c-2.9-13.4-14.3-20-27-22.1c-18.2-2.9-36.6,1.2-53.9,6.8c-3,1-1.7,5.8,1.3,4.8c17.2-5.6,36.1-10.1,54.2-6.3
			c8.7,1.9,16.8,6.1,19.8,15c2.5,7.3,1.7,15.7-0.6,23c-4.9,15.8-17.3,27.9-32,34.8c-7.5,3.5-15.5,5.8-23.7,7.2
			c-9,1.5-18.1,1.6-27,3.5c-1.4,0.3-2,1.8-1.7,3.1c1.7,9,5,17.7,15.2,19.4c4.8,0.8,9.6-0.1,14.3-0.7c6.1-0.9,12.1-1.9,18.1-3.1
			c22.3-4.5,44.4-12.4,61.7-27.5c15-13,26.4-31.7,26.8-52c0.3-18.2-8.3-37.1-23.8-47.1c-22.7-14.6-50.2-3.5-71.6,7.8
			C423.1,379.8,425.6,384.2,428.5,382.7L428.5,382.7z"/>
	</g>
</g>
<g>
	<g>
		<path d="M477.7,314.1c10-10.3,25.1-11.5,38.6-11.7c17.4-0.3,34.8,0.6,52,2.6c17.4,2,34.7,5.3,51.7,9.7c8.4,2.2,16.8,4.6,25,7.4
			c3.8,1.3,7.6,2.6,11.4,4c2,0.7,4.1,1.5,6.1,2.3c1,0.4,5.3,1.4,5.8,2.2c0-1.7,0-3.4,0-5c-0.1,0.2-0.3,0.4-0.4,0.7
			c1-0.8,2-1.5,3-2.3c-0.3,0-0.5,0.1-0.8,0.1c1.9,0.8,3.8,1.5,5.6,2.3c-0.1-0.2-0.2-0.3-0.4-0.5c-3.6-5.3-12.3-0.3-8.6,5
			c0.1,0.2,0.2,0.3,0.4,0.5c1.4,2,3.3,2.7,5.6,2.3c2-0.4,3.2-1.4,4.2-3.1c0.9-1.5,0.9-3.5,0-5c-2.2-3.7-6.2-4.6-10-6.1
			c-4.6-1.8-9.3-3.5-14-5.2c-8.8-3.1-17.7-5.8-26.7-8.2c-18.7-5-37.8-8.6-57.1-10.9c-18.7-2.2-37.8-3.3-56.7-2.6
			c-15.1,0.6-31,3.3-42,14.6C466.1,311.7,473.2,318.8,477.7,314.1L477.7,314.1z"/>
	</g>
</g>
<g>
	<path d="M575.3,302.7c-5.8,15.1-7.7,31.7-5.3,47.6c0.5,3.3,2.3,7.5,5.6,7.2c1.8-0.2,3.1-1.7,4.2-3.2c10.2-14.2,12.5-32.7,11.6-50.1
		"/>
	<g>
		<path d="M570.4,301.4c-4.4,11.6-6.7,24-6.5,36.4c0.1,7.6-0.1,24.4,11.1,24.7c9.9,0.2,15.3-16,17.7-23.5
			c3.5-11.2,4.1-23.1,3.6-34.7c-0.3-6.4-10.3-6.4-10,0c0.4,8.3,0.2,16.8-1.4,25c-1.5,7.3-3.9,16.3-9,22c-0.6,0.4-0.7,0.8-0.2,1.1
			c-0.3-0.7-0.6-1.4-0.7-2.1c-0.6-2.2-0.7-4.7-0.8-6.9c-0.3-4.2-0.3-8.4-0.1-12.6c0.6-9.1,2.7-18,5.9-26.6
			C582.4,298,572.7,295.4,570.4,301.4L570.4,301.4z"/>
	</g>
</g>
<g>
	<g>
		<path d="M134,237.8c17.2-2.7,34.8-2.7,52,0.3c15.3,2.7,32.8,6.6,44,18.1c4.5,4.6,11.6-2.5,7.1-7.1c-12.5-12.8-31.4-17.7-48.4-20.7
			c-19-3.3-38.2-3.3-57.3-0.3C125,229.2,127.6,238.8,134,237.8L134,237.8z"/>
	</g>
</g>
<g>
	<path d="M177.6,233.6c-1.9,11.6-0.6,23.6,3.6,34.5c0.7,1.8,1.6,3.7,3.2,4.8s4.2,0.9,5.2-0.8c6.1-11.2,8.6-24.4,6.8-37.1
		c-0.1-0.5-0.1-1.2,0.2-1.6"/>
	<g>
		<path d="M172.8,232.3c-1.3,9.1-1.3,18.1,0.6,27.1c1.5,6.9,3.9,18.5,12.6,19.2c8.6,0.7,11.5-10.6,13.4-17.1c1.3-4.3,2-8.8,2.4-13.3
			c0.2-2.3,0.2-4.6,0.2-7c-0.1-1.7-1-4.7-0.5-6.4c1.7-6.2-7.9-8.9-9.6-2.7c-0.6,2.2-0.1,4.2,0,6.4c0.3,3.2,0.2,6.4,0,9.6
			c-0.6,6.7-3.1,12.1-4.9,18.4c-0.3,0.5-0.5,1-0.8,1.6c0.9,0.4,1,0.2,0.3-0.6c-0.6-1.3-1.1-2.7-1.6-4c-0.9-2.8-1.6-5.6-2.2-8.5
			c-1.2-6.6-1.3-13.4-0.3-20C183.4,228.7,173.7,226,172.8,232.3L172.8,232.3z"/>
	</g>
</g>
<g>
	<g>
		<path class="st1" d="M472.8,273.9c1.3-6.2,8.8-8.7,14-10.6c2.8-1.1,5.6-2,8.5-2.7c2.8-0.7,7.1-2.4,10.1-2c9.7,1.4-6,10.9-9.5,12.1
			c-2.7,0.9-5.6,1.4-8.4,1.6c-0.9,0-9-0.8-9-0.8c1.4-2.9-2.9-5.4-4.3-2.5c-4.3,9.1,13.2,8.6,17.8,7.9c7.6-1.3,21.2-6.6,22-15.8
			c1-11.7-15.8-6.4-21.7-4.7c-8.5,2.4-22.2,6.3-24.3,16.4C467.4,275.7,472.2,277.1,472.8,273.9L472.8,273.9z"/>
	</g>
</g>
<g>
	<path class="st1" d="M389.4,248.6c17.7-7,34.2-17,48.6-29.5c5.4-4.7,10.7-9.9,13.4-16.5c0.3-0.6,0.5-1.3,0.3-1.9
		c-0.4-1.4-2.3-1.6-3.8-1.4c-11.6,1.1-23,3.7-33.8,7.8c0.5-4.2,1.1-8.3,1.6-12.5c0.8-6,1-13.4-4.1-16.7c-4.3,9.9-8.6,19.9-12.9,29.8
		c-4-6.7-7.5-13.8-10.4-21.1c-2.3,1.1-3.5,4.1-2.6,6.5"/>
	<g>
		<path class="st1" d="M390,251c10.9-4.4,21.4-9.7,31.3-16.2c9.2-6.1,18.9-13,26.1-21.5c3.2-3.8,12-15.9,1.6-16.7
			c-5.2-0.4-11.3,1.3-16.3,2.3c-6.6,1.4-13,3.3-19.3,5.6c1.1,0.8,2.1,1.6,3.2,2.4c1.3-9.8,5.7-24.2-3.7-31.3c-1-0.7-2.9-0.2-3.4,0.9
			c-4.3,9.9-8.6,19.9-12.9,29.8c1.4,0,2.9,0,4.3,0c-3.9-6.6-7.3-13.4-10.2-20.5c-0.6-1.4-2.2-2.5-3.7-1.5c-3.4,2.2-4.7,5.4-3.7,9.3
			c0.8,3.1,5.6,1.8,4.8-1.3c0.5-1.2,0.9-2.5,1.4-3.7c-1.2-0.5-2.4-1-3.7-1.5c3,7.5,6.5,14.8,10.7,21.7c0.9,1.5,3.5,1.8,4.3,0
			c4.3-9.9,8.6-19.9,12.9-29.8c-1.1,0.3-2.3,0.6-3.4,0.9c6.8,5.1,2.2,20.1,1.3,27c-0.2,1.6,1.8,2.9,3.2,2.4
			c8.6-3.2,17.5-5.6,26.6-6.9c1.6-0.2,6.6-1.9,7.3,0.3c0.3,1.2-3.5,5.6-4.1,6.3c-2.6,3.2-5.7,6-8.9,8.7
			c-13.9,11.9-29.8,21.4-46.8,28.3C385.8,247.4,387.1,252.2,390,251L390,251z"/>
	</g>
</g>
<g>
	<path class="st1" d="M391.4,248.8c-6.2-1.5-11.6-5.5-14.8-11c-3.2-5.4-4.1-12.2-2.4-18.3c0.5,0.4,1.1,0.9,1.6,1.3"/>
	<g>
		<path class="st1" d="M392,246.4c-11.7-3.2-18.3-14.4-15.4-26.2c-1.4,0.4-2.8,0.7-4.2,1.1c0.5,0.4,1.1,0.9,1.6,1.3
			c2.5,2,6-1.5,3.5-3.5c-0.5-0.4-1.1-0.9-1.6-1.3c-1.4-1.1-3.7-0.9-4.2,1.1c-3.5,14.4,4.6,28.4,18.9,32.3
			C393.8,252.1,395.1,247.2,392,246.4L392,246.4z"/>
	</g>
</g>
<g>
	<g>
		<path class="st1" d="M643.6,316.7c0.8-4.9,1.7-9.9,2.8-14.7c0.6-2.4,1.2-4.9,1.8-7.3c0.3-0.9,1.1-6.2,1.8-6.6c-1-0.1-2-0.3-3-0.4
			c-0.2-0.4-0.3-0.8-0.5-1.2c0.6-0.8,1.2-1.6,1.8-2.4c-0.1,0-0.2,0-0.3,0c-3.2,0.5-1.8,5.4,1.3,4.8c0.1,0,0.2,0,0.3,0
			c1.2-0.2,1.7-1.4,1.8-2.4c0.1-1-0.2-1.7-1-2.4c-0.8-0.7-2-1-3-0.4c-3.5,2-3.9,8.9-4.8,12.4c-1.6,6.4-2.9,12.8-3.9,19.3
			C638.3,318.6,643.1,319.9,643.6,316.7L643.6,316.7z"/>
	</g>
</g>
<g>
	<g>
		<path class="st1" d="M651.9,325.5c3.2-11,7.9-21.4,14.2-31c1.8-2.7-2.6-5.2-4.3-2.5c-6.5,10-11.4,20.7-14.7,32.2
			C646.2,327.3,651,328.6,651.9,325.5L651.9,325.5z"/>
	</g>
</g>
<g>
	<g>
		<path class="st1" d="M660.2,330c6.6-10.6,15-19.7,25-27.1c2.6-1.9,0.1-6.2-2.5-4.3c-10.8,7.9-19.8,17.5-26.8,28.9
			C654.1,330.2,658.5,332.7,660.2,330L660.2,330z"/>
	</g>
</g>
<g>
	<g>
		<path class="st1" d="M130,199.3c2.4,13.8,4.7,27.6,7.1,41.4c0.5,3.2,5.4,1.8,4.8-1.3c-2.4-13.8-4.7-27.6-7.1-41.4
			C134.2,194.8,129.4,196.1,130,199.3L130,199.3z"/>
	</g>
</g>
<g>
	<g>
		<path class="st1" d="M147.8,193.1c-1.1,13-1.3,25.9-0.6,38.9c0.2,3.2,5.2,3.2,5,0c-0.7-13-0.5-25.9,0.6-38.9
			C153.1,189.9,148.1,189.9,147.8,193.1L147.8,193.1z"/>
	</g>
</g>
<g>
	<g>
		<path class="st1" d="M163.5,193.1c-0.4,13-1.5,26-3.3,39c-0.4,3.1,4.4,4.5,4.8,1.3c1.8-13.4,3-26.8,3.5-40.3
			C168.6,189.9,163.6,189.9,163.5,193.1L163.5,193.1z"/>
	</g>
</g>
<g>
	<g>
		<path class="st3" d="M152.5,378.7c2.7-12.3,12.2-21.8,24.6-24.4c3.1-0.7,1.8-5.5-1.3-4.8c-13.9,3-25,14-28.1,27.9
			C147,380.5,151.8,381.8,152.5,378.7L152.5,378.7z"/>
	</g>
</g>
<g>
	<g>
		<path class="st3" d="M416.9,339.5c5.8,2.2,10.7,6.2,14.2,11.4c1.8,2.7,6.1,0.2,4.3-2.5c-4.2-6.4-10-11-17.2-13.7
			C415.2,333.5,413.9,338.3,416.9,339.5L416.9,339.5z"/>
	</g>
</g>
<g>
	<path class="st0" d="M142.2,477.3c-5.6-0.5-10.1,4.4-13.5,8.9c-5.2,6.8-10.1,13.8-14.8,20.9c-9.3,13.9-17.9,28.9-20.5,45.4
		c-2.7,16.5,1.7,35.1,14.7,45.7c12.2,10,29.4,11.2,45.1,9.8c46.8-4.3,91.4-29,119.8-66.4c5.9-7.8,11.3-18.2,6.9-26.9
		c-2.8-5.4-8.7-8.5-14.6-10.1c-15-4.2-31.4-1.1-45.3,5.9c-13.9,7-25.7,17.7-36.3,29c-1.7-9.3,3-18.5,5.2-27.7
		c2.6-10.4,2.1-21.6-1.4-31.8"/>
	<g>
		<path class="st1" d="M142.2,464.8c-10.9-0.1-18.2,7-24.3,15.1c-5.7,7.5-11.1,15.2-16.3,23c-10.5,16-19.2,33.3-21.2,52.5
			c-1.8,16.9,3.1,34.7,14.5,47.5c12.1,13.6,31.1,18.1,48.6,18c33.8-0.2,68.2-12.3,96-31.2c13.8-9.4,26.6-20.5,37.3-33.3
			c12.3-14.7,25.4-36.1,9.8-53.6c-14.1-15.8-41.3-15-59.7-8.9c-20.7,6.8-37.5,21-52.2,36.6c7,1.8,13.9,3.7,20.9,5.5
			c-0.5-3.7,1.3-8.1,2.4-11.6c1.5-4.9,3.1-9.7,3.9-14.8c1.7-11.2,1.1-22.4-2.4-33.2c-2.1-6.4-8.6-10.6-15.4-8.7
			c-6.3,1.7-10.8,8.9-8.7,15.4c2.9,8.9,3.4,17.8,0.9,26.9c-3.1,11.2-6.5,20.8-4.8,32.6c1.4,9.5,15,11.8,20.9,5.5
			c17.3-18.4,44.7-41.6,72.1-30.9c3.2,1.3,4.9,2.5,4.1,6.2c-1.3,5.8-5.8,10.9-9.5,15.3c-8.3,10-18,19.2-28.4,26.7
			c-21.7,15.6-46.6,26-73.3,29.5c-11,1.4-25,2.1-35.4-2.6c-10.6-4.8-15.7-15-16.8-25c-1.7-15.1,4.4-29.5,12.3-42.9
			c4.4-7.4,9.2-14.6,14.2-21.6c2.1-3,4.2-6,6.5-8.9c1.2-1.5,2.5-3.1,4-4.3c-0.3,0.2-0.7,0.5,0.3-0.1c1.5-0.9-0.3,0.3-0.5,0.3
			C158.2,490,158.3,465,142.2,464.8L142.2,464.8z"/>
	</g>
</g>
<g>
	<path class="st0" d="M533.5,530.4c6.5,10.2,1.4,23.8-5.5,33.7c-16.4,23.4-43.4,39.7-71.9,41.2c-13.5,0.7-27-1.8-40.1-4.9
		c-16.6-3.9-33.1-8.9-47.7-17.8c-22.7-13.8-39.7-36.8-46-62.6c-0.9-3.7-1.6-7.8,0-11.4c1.9-4.2,6.7-6.5,11.2-7.3
		c15-2.6,29.3,6.5,41.9,15.2c19.8,13.7,39.6,27.5,59.3,41.2c9.3-13.1,22-23.8,36.6-30.6"/>
	<g>
		<path class="st1" d="M522.7,536.7c2.1,3.6,1.5,7.8-0.6,12.7c-2.1,4.9-5.4,9.4-8.6,13.2c-7.5,8.8-15.8,15.6-25.9,21.1
			c-9.3,5-20.7,8.5-30.8,9.1c-14.5,0.9-28.7-2.1-42.7-5.7c-24.6-6.2-46.8-15.9-62.9-35.9c-6.6-8.2-12.1-18.6-15.3-28.7
			c-0.8-2.5-1.5-5-2-7.5c-0.5-2.4,0.2-1.6-0.8-0.6c0.9-1,3.2-1,5.3-1.1c2.9-0.1,5.2,0.4,8,1.3c14.1,4.3,26.7,15.5,38.6,23.8
			c14.4,10,28.9,20,43.3,30.1c5.9,4.1,13.4,0.6,17.1-4.5c8.2-11.4,19.5-20.1,32.1-26.1c6.1-2.9,7.7-11.6,4.5-17.1
			c-3.6-6.2-11-7.4-17.1-4.5c-16.6,8-30.4,20.2-41.1,35.1c5.7-1.5,11.4-3,17.1-4.5c-15-10.4-29.9-20.8-44.9-31.2
			c-13.7-9.5-27.4-20.7-43.7-25.4c-15.9-4.5-39.2-1.2-43,18.1c-1.7,8.4,1.1,17.3,4,25.1c2.6,7.2,5.9,14.3,9.9,20.9
			c16.8,27.7,43.5,44.8,74.1,53.9c17,5.1,35.2,9.3,53,9.5c15.7,0.2,31-3.6,45.2-10.3c14.7-6.9,28.1-17.6,38.2-30.4
			c11.8-14.9,21.4-35,10.7-53.2C536.1,510.2,514.5,522.8,522.7,536.7L522.7,536.7z"/>
	</g>
</g>
<g>
	<g>
		<path d="M395,428.2c10.1-3.5,20.3-6.9,30.4-10.4c2.6-0.9,2.3-5-0.7-4.9c-7.1,0.2-12.7,2.7-18.3,6.8c-2.8,2-5.9,4.6-9.5,4.4
			c-5.8-0.2-5.3-6.4-4.9-10.5c0.4-3.2-4.6-3.1-5,0c-0.8,6.6,1.4,16.8,10.4,14.2c-1.1-0.8-2.1-1.6-3.2-2.4c0.6,8.3,3.4,16.2,8.4,22.9
			c2.3,3,4.8,5.6,7.8,7.8c4,3,8.9,5.1,11.9,9.2c1.9,2.5,6.3,0.1,4.3-2.5c-4.6-6.1-11.9-8.8-17.2-14.2c-6.1-6.3-9.7-14.6-10.3-23.3
			c-0.1-1.6-1.5-2.9-3.2-2.4c-3.1,0.9-4.2-2.9-4.4-5.1c-0.1-1.4,0.2-2.9,0.3-4.3c-1.7,0-3.3,0-5,0c-0.8,7.1,1.2,15.4,9.9,15.5
			c4,0,7.5-1.9,10.7-4.1c5.4-3.8,10.2-6.8,17.1-7c-0.2-1.6-0.4-3.3-0.7-4.9c-10.1,3.5-20.3,6.9-30.4,10.4
			C390.7,424.4,392,429.3,395,428.2L395,428.2z"/>
	</g>
</g>
<g>
	<g>
		<path d="M396.9,423.3c-4.1,5.4-8.5,10.4-13.3,15.2c-2.3,2.3,1.3,5.8,3.5,3.5c5-5.1,9.7-10.5,14-16.2
			C403.2,423.2,398.8,420.7,396.9,423.3L396.9,423.3z"/>
	</g>
</g>
<g>
	<g>
		<path class="st1" d="M393.3,236c-0.2-4-0.4-8-0.6-12c-0.1-2.5-3.3-3.4-4.7-1.3c-3.5,5.3-5.2,11.1-5.2,17.4c0,3.2,4.9,3.2,5,0
			c0.2-4.7,0.4-9.4,0.7-14.1c-1.7,0-3.3,0-5,0c-0.1,4.2-0.3,8.5-0.4,12.7c1.6-0.2,3.3-0.4,4.9-0.7c-2.4-5.6-2.8-11.2-1.2-17.1
			c-1.6-0.2-3.3-0.4-4.9-0.7c-0.1,1.5-0.7,2.7-2,3.6c1.4,0.4,2.8,0.7,4.2,1.1c-0.8-2.4,2.9-4.2,4.2-5.7c1.1-1.2,1.7-2.4,2-4
			c0.5-2.6-2.2-4-4.2-2.4c-3.3,2.6-6.5,5.4-9.5,8.3c1.3,1,2.6,2,3.9,3c3.7-5.2,7.5-10.4,11.2-15.6c1.5-2.1-1.4-4.5-3.4-3.4
			c-2.9,1.6-5,3.8-6.7,6.6c-1.4,2.4-3.8,6.5-3.7,9.3c0.1,3.1,3,6.4,4.3,9.2c2.2,4.6,4,9.3,5.5,14.2c1,3.1,5.8,1.8,4.8-1.3
			c-1.9-6.1-4.3-12-7.2-17.7c-1.9-3.7-2.6-4.7-0.8-8.6c1.5-3.1,3.2-5.7,6.3-7.3c-1.1-1.1-2.3-2.3-3.4-3.4
			c-3.7,5.2-7.5,10.4-11.2,15.6c-1.7,2.4,1.9,4.9,3.9,3c3.1-2.9,6.2-5.7,9.5-8.3c-1.4-0.8-2.8-1.6-4.2-2.4c-0.6,3.1-4.2,4.2-5.7,6.7
			c-1.1,1.8-1.3,3.6-0.6,5.6c0.6,1.8,2.7,2.4,4.2,1.1c2.2-2,3.2-4.2,3.4-7.1c0.3-2.9-4.2-3.3-4.9-0.7c-1.9,6.7-1.5,13.3,1.2,19.7
			c1,2.5,4.8,2.4,4.9-0.7c0.1-4.2,0.3-8.5,0.4-12.7c0.1-3.2-4.9-3.2-5,0c-0.2,4.7-0.4,9.4-0.7,14.1c1.7,0,3.3,0,5,0
			c0-5.5,1.5-10.3,4.6-14.9c-1.6-0.4-3.1-0.8-4.7-1.3c0.2,4,0.4,8,0.6,12C388.5,239.2,393.5,239.2,393.3,236L393.3,236z"/>
	</g>
</g>
<g>
	<g>
		<path class="st1" d="M386.3,230c3.6-7,8.7-12.8,15.3-17.1c2.7-1.8,0.2-6.1-2.5-4.3c-7.3,4.8-13.1,11.1-17.1,18.9
			C380.5,230.3,384.8,232.9,386.3,230L386.3,230z"/>
	</g>
</g>
<g>
	<g>
		<path class="st1" d="M484.1,270c4.4-1.2,8.7-2.1,13.2-2.7c3.1-0.4,3.3-4.9,0-5c-7-0.2-13.5,1.7-19.2,5.6c-1.8,1.2-1.5,3.9,0.6,4.6
			c10.1,3.1,20.9-1,26.4-10c1.4-2.3-1.3-4.4-3.4-3.4c-3.6,1.6-7.2,3.1-11.2,3.3c0.4,1.6,0.8,3.1,1.3,4.7c4.3-2.9,8.9-4.6,14-5.1
			c-0.7-1.3-1.4-2.5-2.2-3.8c-1.2,1.9-2.3,3.8-3.5,5.7c-1.7,2.8,2.6,5.3,4.3,2.5c1.2-1.9,2.3-3.8,3.5-5.7c0.9-1.5-0.2-3.9-2.2-3.8
			c-6.1,0.6-11.5,2.4-16.5,5.8c-1.9,1.3-1.4,4.8,1.3,4.7c4.9-0.3,9.3-2,13.7-4c-1.1-1.1-2.3-2.3-3.4-3.4
			c-4.4,7.1-12.8,10.2-20.7,7.7c0.2,1.5,0.4,3,0.6,4.6c5.1-3.5,10.5-5.1,16.7-4.9c0-1.7,0-3.3,0-5c-4.9,0.6-9.8,1.5-14.6,2.8
			C479.7,266,481,270.9,484.1,270L484.1,270z"/>
	</g>
</g>
<g>
	<g>
		<path class="st1" d="M684.9,137.3c-1.7-5.8-1.9-11.6-0.5-17.6c-1.5,0.2-3,0.4-4.6,0.6c2.2,4.3,7.6,6.4,12,4.1
			c0.7-0.3,2.9-2.4,3.4-1.1c0.3,0.9-3.2,3.8-3.8,4.3c-3.1,2.8-6.3,5.4-9.7,7.8c1.3,0.7,2.5,1.4,3.8,2.2c-0.1-3.4,0.4-6.5,1.8-9.6
			c-1.1,0.3-2.3,0.6-3.4,0.9c5,2.9,11,1.4,14.3-3.2c1.9-2.6-2.5-5.1-4.3-2.5c-1.8,2.5-5,2.9-7.5,1.4c-1.1-0.6-2.8-0.3-3.4,0.9
			c-1.8,3.9-2.7,7.9-2.5,12.2c0.1,1.7,2.1,3.3,3.8,2.2c3.8-2.6,7.4-5.5,10.7-8.6c2.6-2.4,5.7-5.2,5.2-9c-0.4-2.9-2.8-4.9-5.7-4.6
			c-3.7,0.5-7.6,5.6-10.3,0.1c-1-1.9-4.1-1.4-4.6,0.6c-1.6,6.8-1.5,13.5,0.5,20.2C681,141.7,685.8,140.4,684.9,137.3L684.9,137.3z"
			/>
	</g>
</g>
<g>
	<g>
		<path class="st1" d="M190.7,88.1c-6.3,0.7-11.6-4.6-10.8-10.9c-0.8,0.8-1.7,1.7-2.5,2.5c1.4-0.1,2.5,2,3.5,2.9
			c1.3,1.1,2.7,1.8,4.4,1.6c1.7-0.2,3-1.1,4-2.5c0.5-0.7,2.2-5.8,3-5.7c-0.6-0.8-1.2-1.6-1.8-2.4c0.4,4.1,0,8.2-1.5,12.2
			c-0.2,0.5-0.5,1.1-0.7,1.6c0-0.2,0-0.4,0-0.6c-0.7-0.3-1.7-1.5-2.3-2c-1.7-1.5-3.4-3-5.1-4.5c-0.4,1.4-0.7,2.8-1.1,4.2
			c1.5-0.4,3.3,1.4,4.6,1.9c1,0.4,2.2,0.6,3.3,0.5c2.2-0.1,3.6-1.4,4.4-3.4c1.1-3-3.7-4.3-4.8-1.3c0,0-4-2.1-4.3-2.2
			c-1.5-0.6-2.8-0.7-4.4-0.3c-1.7,0.4-2.5,2.9-1.1,4.2c2.8,2.4,5.5,5,8.4,7.3c1.7,1.4,3.8,2,5.6,0.5c1.9-1.6,2.8-5,3.4-7.3
			c0.9-3.5,1.1-7.1,0.8-10.7c-0.1-1-0.7-2.2-1.8-2.4c-2.2-0.4-3.9,0.1-5.4,1.7c-1.4,1.5-1.5,3.7-2.6,5.3c-1.4,1.8-2.5-0.6-3.7-1.7
			c-1.3-1.2-2.8-2-4.6-1.8c-1.5,0.1-2.3,1.1-2.5,2.5c-1.1,8.8,7,16.9,15.8,15.9C193.8,92.8,193.9,87.7,190.7,88.1L190.7,88.1z"/>
	</g>
</g>
<g>
	<g>
		<path class="st0" d="M301,123.9c1.7-4.8,2.7-9.7,3.1-14.8c0.2-2.8-4.2-3.3-4.9-0.7c-1.8,6.6-3.6,13.3-8.3,18.5
			c1.4,0.8,2.8,1.6,4.2,2.4c1.9-5.7,5.9-10.1,11.5-12.4c-0.9-1.2-1.9-2.4-2.8-3.7c-1.3,2.5-2.9,4.6-5,6.5c-2.4,2.2,1.1,5.5,3.5,3.5
			c3.7-2.9,14.6-11.6,9.8-17.3c-5.1-6-17,5.8-20.5,9.1c1.3,1,2.6,2,3.9,3c1.8-3.4,4.1-6.2,7-8.8c-1.4-0.8-2.8-1.6-4.2-2.4
			c-0.4,1.7-0.7,3.3-1.1,5c1.6,0.2,3.3,0.4,4.9,0.7c0-7.3,0.3-14.7,0.7-22c0.2-3.3-4.7-3.1-5,0c-0.5,5-0.2,9.8,1,14.6
			c0.7,2.7,5.1,2.2,4.9-0.7c-0.3-5.2-0.9-10.4-1.9-15.6c-1.5,0.6-3,1.3-4.6,1.9c2.6,3.8,5.3,7.6,7.9,11.5c1.8,2.6,6.2,0.1,4.3-2.5
			c-2.6-3.8-5.3-7.6-7.9-11.5c-1.6-2.4-5.1-0.9-4.6,1.9c0.9,4.7,1.4,9.4,1.7,14.2c1.6-0.2,3.3-0.4,4.9-0.7
			c-1.1-4.5-1.3-8.7-0.8-13.3c-1.7,0-3.3,0-5,0c-0.4,7.3-0.7,14.7-0.7,22c0,2.8,4.3,3.5,4.9,0.7c0.4-1.7,0.7-3.3,1.1-5
			c0.6-2.5-2.3-4.1-4.2-2.4c-3.2,2.8-5.7,6.1-7.7,9.8c-1.3,2.5,1.8,5,3.9,3c1.5-1.4,10.8-9.9,12.4-8.5c1.4,1.2-7.5,8.7-8.7,9.6
			c1.2,1.2,2.4,2.4,3.5,3.5c2.4-2.2,4.2-4.6,5.7-7.5c0.9-1.7-0.6-4.6-2.8-3.7c-7.3,3-12.5,8.4-15,15.9c-0.8,2.4,2.5,4.3,4.2,2.4
			c5.3-5.9,7.6-13.1,9.6-20.7c-1.6-0.2-3.3-0.4-4.9-0.7c-0.4,4.7-1.4,9.1-3,13.5C295.1,125.6,299.9,126.9,301,123.9L301,123.9z"/>
	</g>
</g>
<g>
	<g>
		<path class="st0" d="M307.8,97.3c-3.3-2.4-6.8,0-8.1,3.3c-1.8,4.5-1.5,9.9-0.3,14.5c0.6,2.4,4.2,2.4,4.8,0c1.5-6,2-12.1,1.6-18.3
			c-1.6,0.2-3.3,0.4-4.9,0.7c1.3,5.6,2.7,11.3,4,16.9c0.7,3.1,5.6,1.8,4.8-1.3c-1.3-5.6-2.7-11.3-4-16.9c-0.6-2.7-5.1-2.2-4.9,0.7
			c0.4,5.7-0.1,11.3-1.4,16.9c1.6,0,3.2,0,4.8,0c-0.6-2.2-0.9-4.3-0.7-6.6c0-0.6,0.8-6.4,1.9-5.6C307.9,103.5,310.4,99.2,307.8,97.3
			L307.8,97.3z"/>
	</g>
</g>
<g>
	<path class="st4" d="M198.6,366.5c-17.6,0-34.6-12.5-39.9-29.3c-5.3-16.8,1.5-36.7,15.9-46.9c12.3-8.6,28.2-10.1,41.3-17.2
		c8.3-4.5,15.3-11.2,20.2-19.2c3.6-5.9,6-13.5,2.6-19.5c-4.3-7.5-14.6-8.1-22.2-12.3c-10.7-5.9-15.6-19.5-13.7-31.6
		c1.9-12.1,9.2-22.7,17.9-31.3c5.7-5.6,12.1-10.7,19.2-14.3c22.6-11.5,52-8.8,71.1-25.5c2.8-2.5,5.5-5.5,5.9-9.3
		c0.5-3.7-1.4-7.3-3.2-10.7c-7.2-13.5-14.4-27-21.6-40.5c9.4,4,11.3,16.3,16.8,24.8c7,10.8,20,15.6,31.3,21.7
		c18.5,10,34.6,25.4,42.8,44.7s7.9,42.8-3.3,60.6c-4.9,7.8-11.7,14.4-15.8,22.7c-4.2,8.2-5,19.3,1.5,25.8c3.1,3.2,7.4,4.8,11.8,5.8
		c13.2,3.2,27.8,1.6,39.5,8.5c11.9,7,17.7,21.3,19,35.1c0.6,6.4,0.3,13.3-3.6,18.4c-2.5,3.3-6.3,5.4-10,7.5
		c-12.8,7.1-27.3,14.3-41.3,10.3c-6-1.7-11.9-5.6-18.1-4.5c-3.5,0.6-6.6,2.7-9.9,4.2c-9,4.1-19.4,3.3-29.3,3.8
		c-13.1,0.6-26.1,3.4-38.3,8.3c-4.3,1.8-8.9,4.1-10.7,8.5c-1.5,3.7-0.8,8.5-3.7,11.3c-1.7,1.6-4.1,2.1-6.4,2.2
		c-24.3,1.9-47.5-19.6-71-13.1"/>
	<g>
		<path class="st4" d="M198.6,356.5c-12.3-0.3-24.1-7.9-29.2-19.2c-5-11.2-2.2-25.3,5.9-34.3c10.2-11.3,27.3-13,40.7-18.9
			c14.6-6.4,28.6-19.3,33.2-35c2.4-8.4,1.1-18-5.2-24.4c-5.1-5.2-12-7.3-18.7-9.7c-11.4-4.2-14.8-16.3-11.5-27.3
			c4.2-14.2,17.2-26.5,29.8-33.4c12.8-7,27.9-8.4,41.9-12c15-3.8,37.1-11.8,41.2-28.8c2.5-10.6-4.9-20.7-9.7-29.6
			c-5.3-10-10.7-20-16-30c-4.6,4.6-9.1,9.1-13.7,13.7c6.3,3,8.2,12.1,11.6,18.4c4.9,9.1,13,15.5,21.9,20.5c8.4,4.7,17.3,8.5,25.2,14
			c7.4,5.1,14.2,11.5,19.6,18.7c11.7,15.7,16.8,35.9,11.1,54.9c-6,20-27.9,32.5-25.5,55.5c1.2,11.6,8.5,19.9,19.3,23.8
			c9.7,3.5,20.2,3.1,30.2,5c9.4,1.8,16.2,5.9,20.7,14.5c3.5,6.8,6.8,18.3,4.1,25.8c-1.3,3.7-5,5.3-8.2,7.1c-4.9,2.7-10,5.5-15.3,7.4
			c-4.6,1.6-9.3,3-14.2,2.6c-5.5-0.4-10.3-3.5-15.5-4.8c-5.9-1.5-11.7-1.1-17.3,1.4c-4.6,2-8.5,4.3-13.6,5
			c-5.5,0.8-11.2,0.5-16.7,0.7c-6.3,0.2-12.5,1-18.7,2c-11.5,2-26,5.3-35,13.3c-4,3.5-7.6,9.9-7.4,15.4c-0.1,0.2-0.1,0.4-0.2,0.6
			c-0.5,1.4,0,1,1.4-1.2c0,0.2-4.9-0.5-1.7,0.1c-2.2-0.4-4.7,0-7-0.3c-10.8-1.6-20.9-6.6-31.2-10c-11.1-3.7-22.6-5.4-34-2.5
			c-12.5,3.1-7.2,22.4,5.3,19.3c9-2.3,17.8,0.6,26.3,3.5c9.8,3.4,19.4,7.6,29.8,9.2c11.4,1.7,25.7,1.4,30-11.6c1-3.1,0.5-6.4,3-8.5
			c4.1-3.4,11.3-4.7,16.3-6c11.5-3.1,22.7-3.2,34.4-3.7c5.5-0.3,11.2-0.8,16.4-2.5c4.5-1.5,9.6-6,14.4-5c5.6,1.1,10.4,4.1,16.1,5
			c6.4,1,12.9,0.5,19.2-1.2c10.9-2.9,22.7-8.5,31.7-15.2c18.8-13.9,13.4-44.9,1.1-61.7c-6.8-9.3-16.3-15.3-27.6-17.8
			c-10.2-2.2-22.1-1.1-31.8-5.3c-7.1-3.1-5.2-11.6-2.2-17.2c5.4-10,14-17.8,18.8-28.2c9.7-21.4,8.1-46.1-2.1-67.1
			c-10.5-21.6-29.7-37.2-50.8-47.9c-9.1-4.6-18.8-8.9-23.7-18.4c-4.9-9.4-8.1-20.1-18.5-25c-8.9-4.3-18.6,4.5-13.7,13.7
			c4.7,8.8,9.4,17.6,14.1,26.4c2.4,4.4,4.7,8.8,7.1,13.2c1.3,2.4,3.1,4.3,1.4,6.7c-3.4,4.8-10.9,7.9-16.2,9.8
			c-7.1,2.5-14.4,4.1-21.8,5.7c-16.1,3.5-31.5,7.8-44.8,18c-13.3,10.2-25.7,24.3-29.6,41c-3.5,14.8,0.2,32.2,12.3,42.2
			c6.1,5,13.1,6.5,20.1,9.7c1.6,0.7,3.5,1.7,4,3c1,2.7-0.9,6.2-2.2,8.5c-8,14-22,18.8-36.4,23.6c-15.9,5.2-30.5,13-38.4,28.5
			c-8,15.8-8.5,35,0.8,50.4c9.4,15.6,26.5,25.5,44.7,25.9C211.5,376.8,211.5,356.8,198.6,356.5L198.6,356.5z"/>
	</g>
</g>
<g>
	<g>
		<path class="st4" d="M267.8,384.7c5.9,4,13.4,7,20.6,4.9c7.8-2.4,9.5-10,14.9-15.1c9.5-9.1,24-9.6,36.3-9.1
			c16,0.7,31.8,3.1,47.7-0.6c7.2-1.7,14.2-4.7,20-9.1c6.8-5.1,11.1-14.7,4-21.7c-6-5.9-16.9-4-24.5-4c-8.5,0-16.9,0-25.4,0
			c-8.8,0-17.6,0-26.3,0c-8.2,0-16.7-0.5-24.3,3.3c-7,3.5-11.9,10.4-16.4,16.6c-4.6,6.5-8.4,13.4-11.7,20.6
			c-1.2,2.7-1.3,3.6-4.1,4.3c-3.6,0.9-7.3,1-11,0.7c-7.5-0.6-15-3.5-21.9-6.4c-8.2-3.3-16.2-7.1-24.7-9.5
			c-4.9-1.4-10.3-2.8-15.2-0.6c-2.4,1-4.4,2.8-5.8,5c0.1-0.2-1.9,3.4-0.9,2.5c-2.5,2.5-9.7-0.5-13.4-2.1c-8.7-3.8-18.5-7.3-27.8-3.4
			c4.1,4.1,8.2,8.2,12.3,12.3c3.6-13.7,5.1-27.8,4.5-42c-0.6-12.8-20.6-12.9-20,0c0.6,12.5-0.6,24.6-3.7,36.7
			c-1.7,6.6,4.9,15.4,12.3,12.3c4.7-2,8.7-0.1,13.2,1.7c5.3,2.2,10.1,4.2,15.8,4.9c4.7,0.6,9.4,0.2,13.8-1.6c2.5-1,4.7-2.4,6.6-4.3
			c1.6-1.6,2.6-4.4,4.2-5.8c-1.5,0.9-2.9,1.7-4.4,2.6c0.1,0,4.2,1.4,5.1,1.6c2.3,0.7,4.6,1.5,6.9,2.4c4,1.5,7.9,3.2,11.8,4.9
			c8.2,3.5,16.5,6.7,25.3,8.1c9.3,1.4,19.2,1.4,27.9-2.7c9-4.2,11.2-13.7,15.7-21.8c3.4-6.1,8.1-15.4,14.4-19.1
			c3.2-1.9,7.2-1.3,10.8-1.3c4.9,0,9.8,0,14.6,0c9.8,0,19.5,0,29.3,0.1c4.9,0,9.8,0,14.6,0c3.8,0,9.9-0.7,12.4,0.3
			c-1.5-0.9-2.9-1.7-4.4-2.6c0.3,0.3,0.5,0.5,0.8,0.8c-0.9-1.5-1.7-2.9-2.6-4.4c0.1,0.4,0.3,0.7,0.4,1.1c0-1.8,0-3.5,0-5.3
			c1.2-1.2,1.4-1.4,0.5-0.6c-0.3,0.3-0.6,0.6-1,0.8c-1.1,0.7-2.2,1.4-3.4,2c-2.3,1.2-4.7,2.1-7.2,2.8c-5.2,1.4-10.4,1.9-15.8,2
			c-13.5,0.2-26.9-2.3-40.4-1.6c-11.1,0.6-22.6,3.2-32,9.4c-5,3.3-9.3,7.4-12.7,12.3c-0.6,0.8-1.8,2.2-1.9,3.1
			c-0.6,0.8-0.5,0.9,0.3,0.5c0.5-0.1,0.9-0.3,1.4-0.4c-0.1,0.3-5.4-2.9-5.4-2.9C267.2,360.3,257.1,377.6,267.8,384.7L267.8,384.7z"
			/>
	</g>
</g>
<g>
	<g>
		<path class="st4" d="M235.7,111.2c9.2,1.4,19.5,1.1,24.5-8.2c4.8-8.8,2.3-21-2.3-29.3c-4.6-8.4-12.6-12.6-19.5-18.8
			c-1.7-1.5-4.8-4.3-4.7-6.9c0.1-2.9,4.9-6.9,6.5-9.1c3.2-4.4,0.7-11.1-3.6-13.7c-5.1-3-10.5-0.8-13.7,3.6c-4.9,6.7-9.8,11.9-9,20.8
			c0.7,8.1,5.5,15.4,11.7,20.5c5.2,4.4,12.5,8,15.5,14.4c0.5,1.2,1,2.4,1.2,3.6c0.1,0.6,0.3,5.3,0.4,5.3c-0.3,0.7-0.1,0.6,0.5-0.4
			c0.4-0.2,0.6-0.5,0.7-0.9c0,0-2.7-0.2-2.8-0.2c-5.3-0.8-10.8,1.4-12.3,7C227.5,103.6,230.4,110.4,235.7,111.2L235.7,111.2z"/>
	</g>
</g>
<g>
	<g>
		<path class="st4" d="M356.6,13.2c-8.6,0-14.6,6.3-16.2,14.5c-1.3,7.2-2.7,17.2,0.9,24c3.3,6.1,10.6,10,16,14.1
			c4.4,3.3,10.3,7,9.8,13.1c-0.4,5.4,4.9,10,10,10c5.7,0,9.6-4.6,10-10c0.9-12.5-7.8-21.3-17-28.3c-3.6-2.7-8.6-5.4-11.5-8.8
			c1.3,1.5,0.1,1.2,0.6,0c0.4-1,0-3.9,0.1-4.9c0.1-1.3,0.1-2.6,0.3-3.9c0.1-0.5,0.2-0.9,0.3-1.4c0.6-2-0.5-1.4-3.4,1.6
			C369.4,33.1,369.5,13.1,356.6,13.2L356.6,13.2z"/>
	</g>
</g>
<g>
	<g>
		<path class="st4" d="M412.9,143.1c9,8.6,21.6,26.5,9.4,38c-2.8,2.7-6.4,4.6-9.5,7.1c-3.8,3.2-6.5,7.4-8.2,12
			c-3.3,9-1.7,18.9,0,28.1c1,5.3,7.4,8.3,12.3,7c5.6-1.5,8-7,7-12.3c-1.2-6.6-3.2-15.4,2.7-20.3c3.6-2.9,7.7-5,10.9-8.5
			c3.4-3.8,5.9-8.1,7.5-12.9c6.8-19.5-4.1-39.2-18-52.4C417.8,120,403.6,134.2,412.9,143.1L412.9,143.1z"/>
	</g>
</g>
<g>
	<g>
		<path class="st5" d="M427.8,27.3c-2.6,6.2-4.8,15.9-3,22.5c1.3,4.9,6.7,9,11.8,6.6c5.4-2.6,6.6-12.2,6.6-17.4c0-6.2-3-11.8-9-13.8
			c-3.1-1-4.4,3.8-1.3,4.8c4.8,1.6,5.7,6.7,5.2,11.1c-0.3,2.4-1.1,10.4-4.4,10.9c-8.2,1.2-2.3-20.3-1-23.6
			C433.8,25.7,429,24.4,427.8,27.3L427.8,27.3z"/>
	</g>
</g>
<g>
	<g>
		<path class="st5" d="M450,30c3.3,8.1,4.5,16.3,3.7,25c-0.3,3.2,4.7,3.2,5,0c0.8-9.1-0.5-17.9-3.9-26.3C453.6,25.7,448.8,27,450,30
			L450,30z"/>
	</g>
</g>
<g>
	<g>
		<path class="st5" d="M459.4,50.9c2.1-1,4.3-2,6.4-3c1.2-0.6,1.5-2.3,0.9-3.4c-0.7-1.3-2.2-1.5-3.4-0.9c-2.1,1-4.3,2-6.4,3
			c-1.2,0.6-1.5,2.3-0.9,3.4C456.7,51.2,458.2,51.5,459.4,50.9L459.4,50.9z"/>
	</g>
</g>
<g>
	<g>
		<path class="st5" d="M463.1,26.5c-0.4,10.1,0.4,20.2,2.4,30.1c0.6,3.2,5.4,1.8,4.8-1.3c-1.9-9.5-2.6-19.1-2.2-28.8
			C468.2,23.2,463.2,23.2,463.1,26.5L463.1,26.5z"/>
	</g>
</g>
<g>
	<g>
		<path class="st5" d="M486.1,36.1c-1.3,10.4,1.2,23.9,14.8,22.2c5.4-0.7,10.7-3.1,12.8-8.4c1.9-5,3.3-11.9,1.3-17.1
			c-2.4-5.9-8.8-7.8-14.5-9.1c-5.6-1.3-13-3-18.5-0.3c-10.2,5.2-5.9,19.3,4.7,20.2c3.2,0.3,3.2-4.7,0-5c-4.8-0.4-7.6-6-4-9.6
			c3.1-3.1,9.1-1.8,12.7-1.2c7.5,1.3,16.3,3.1,15.3,12.5c-0.3,2.7-0.8,6.6-2.3,9c-2.2,3.5-8.4,5-12.2,3.8c-7-2.2-5.9-11.5-5.2-17.1
			C491.5,32.9,486.5,32.9,486.1,36.1L486.1,36.1z"/>
	</g>
</g>
<g>
	<g>
		<path class="st5" d="M545.6,28.8c0.6,7.7,1.1,15.4,1.7,23.1c0.2,3.2,5.2,3.2,5,0c-0.6-7.7-1.1-15.4-1.7-23.1
			C550.4,25.6,545.4,25.6,545.6,28.8L545.6,28.8z"/>
	</g>
</g>
<g>
	<g>
		<path class="st5" d="M538.3,31.3c8.8,0.4,17.5,0.1,26.2-0.8c3.2-0.3,3.2-5.3,0-5c-8.7,0.9-17.4,1.1-26.2,0.8
			C535.1,26.1,535.1,31.1,538.3,31.3L538.3,31.3z"/>
	</g>
</g>
<g>
	<g>
		<path class="st5" d="M579.6,31.4c-4.6,5.5-9.3,13.9-3.7,20.5c4.5,5.2,12.8,4.2,17.1-0.6c4.5-5,5.3-13.5,1.8-19.2
			c-3.4-5.7-11.3-6.6-15.3-1.1c-1.9,2.6,2.4,5.1,4.3,2.5c3.2-4.4,7.4,1.6,7.9,4.7c0.6,3.6-0.3,8-3.1,10.4c-3.1,2.7-8.7,2.6-10.1-2
			c-1.3-4.4,1.9-8.5,4.5-11.7C585.1,32.4,581.6,28.9,579.6,31.4L579.6,31.4z"/>
	</g>
</g>
<g>
	<g>
		<path class="st5" d="M605.3,29.3c-4.4,4.1-2.7,11.4,2.8,13.6c7.8,3.2,12.5-4,17.7-8.2c-1.4-0.6-2.8-1.2-4.3-1.8
			c0,6.3,0,12.6,0.1,18.9c0,3.2,5,3.2,5,0c0-6.3,0-12.6-0.1-18.9c0-2.3-2.7-3.1-4.3-1.8c-2.4,2-4.3,4.9-7.1,6.5
			c-1.6,0.9-4,1.4-5.7,0.4c-2.1-1.2-2.4-3.7-0.7-5.3C611.1,30.6,607.6,27.1,605.3,29.3L605.3,29.3z"/>
	</g>
</g>
<g>
	<g>
		<path class="st5" d="M643.9,24.1c0.4,8.2,0.7,16.4,1.1,24.6c0.1,3.2,5.1,3.2,5,0c-0.4-8.2-0.7-16.4-1.1-24.6
			C648.7,20.9,643.7,20.8,643.9,24.1L643.9,24.1z"/>
	</g>
</g>
<g>
	<g>
		<path class="st5" d="M647.8,44.8c5.7,0.4,10.8-2.3,14.1-6.8c1.9-2.6-2.4-5.1-4.3-2.5c-2.3,3.1-6,4.6-9.8,4.3
			C644.6,39.6,644.6,44.6,647.8,44.8L647.8,44.8z"/>
	</g>
</g>
<g>
	<g>
		<path class="st5" d="M655.6,27.2c0.7,6.7,2,13.3,3.9,19.7c0.9,3.1,5.8,1.8,4.8-1.3c-1.8-6-3.1-12.1-3.8-18.4
			C660.3,24.1,655.3,24,655.6,27.2L655.6,27.2z"/>
	</g>
</g>
<g>
	<g>
		<path class="st5" d="M669.9,32.7c1,6.4,2.8,13.9,8.8,17.5c5.9,3.5,13.9,1.3,17.6-4.4c3.7-5.5,3.8-14.4-1.1-19.3
			c-6-6-18.2-4-25.3-1.7c-3,1-1.7,5.8,1.3,4.8c5.2-1.7,11.3-2.7,16.7-1.3c6.6,1.8,7.7,10.6,3.5,15.5c-3.7,4.3-10.1,3.7-13.2-0.9
			c-2.2-3.4-3-7.7-3.6-11.6C674.2,28.2,669.3,29.6,669.9,32.7L669.9,32.7z"/>
	</g>
</g>
<g>
	<g>
		<path class="st5" d="M521.2,70.5c2.5,6,4.5,12.2,5.9,18.5c0.7,3.1,5.5,1.8,4.8-1.3c-1.5-6.8-3.7-13.3-6.4-19.7
			C524.3,65,520,67.6,521.2,70.5L521.2,70.5z"/>
	</g>
</g>
<g>
	<g>
		<path class="st5" d="M548.3,79.8c-3-2.1-6.4-3.3-10-3.4c-3.2-0.2-3.2,4.8,0,5c2.8,0.1,5.3,1.1,7.5,2.8
			C548.4,86,550.9,81.7,548.3,79.8L548.3,79.8z"/>
	</g>
</g>
<g>
	<g>
		<path class="st5" d="M551,67.6c-1.9,5.3-3.4,10.7-4.6,16.2c-0.6,3.1,4.2,4.5,4.8,1.3c1.1-5.5,2.6-10.9,4.6-16.2
			C556.9,65.9,552.1,64.6,551,67.6L551,67.6z"/>
	</g>
</g>
<g>
	<g>
		<path class="st5" d="M564.1,71.7c-2.8,4.7-6.2,12-4.7,17.6c1.2,4.6,6.3,6.4,10.6,5.1c10.7-3.3,8.5-21.1-1-24.4
			c-3-1.1-4.4,3.8-1.3,4.8c5.2,1.8,6.6,13.9,0.1,14.9c-7.9,1.3-1-13,0.6-15.6C570.1,71.4,565.8,68.9,564.1,71.7L564.1,71.7z"/>
	</g>
</g>
<g>
	<g>
		<path class="st5" d="M583.2,73.3c0.8,6.3,1.7,12.7,2.5,19c0.4,3.1,5.4,3.2,5,0c-0.8-6.3-1.7-12.7-2.5-19
			C587.8,70.2,582.8,70.1,583.2,73.3L583.2,73.3z"/>
	</g>
</g>
<g>
	<g>
		<path class="st5" d="M589.1,79.1c2-3.1,8.4-3.6,11.7-2.4c3.8,1.4-0.9,4-2.6,4.4c-2.5,0.6-5,0.7-7.4,1.7c-2.9,1.2-1.6,6,1.3,4.8
			c4.1-1.7,9.2-1,12.6-4.4c2.5-2.5,3.6-6.6,1-9.5c-2.5-2.8-8-2.7-11.5-2.4c-3.9,0.3-7.4,1.7-9.6,5.1
			C583.1,79.3,587.4,81.8,589.1,79.1L589.1,79.1z"/>
	</g>
</g>
<g>
	<g>
		<path class="st5" d="M618.3,72.5c0,6.1,0,12.2,0,18.3c0,3.2,5,3.2,5,0c0-6.1,0-12.2,0-18.3C623.3,69.3,618.3,69.3,618.3,72.5
			L618.3,72.5z"/>
	</g>
</g>
<g>
	<g>
		<path class="st5" d="M618.9,77.8c5.8-1.1,5,11,11.7,8.3c2.1-0.8,3-3.1,3.8-5c1.7-3.6,3.2-7.4,4.7-11c-1.5-0.2-3-0.4-4.6-0.6
			c1.7,6.1,3.4,12.1,5.2,18.2c0.9,3.1,5.7,1.8,4.8-1.3c-1.7-6.1-3.4-12.1-5.2-18.2c-0.5-1.9-3.7-2.7-4.6-0.6
			c-1.4,3.2-2.7,6.3-4.1,9.5c-0.3,0.8-1,3.4-1.4,3.7c0,1.1-0.3,0.8-0.8-0.8c-0.3-0.7-0.7-1.4-1.1-2.1c-2.3-3.6-5.5-5.7-9.8-4.9
			C614.5,73.6,615.8,78.4,618.9,77.8L618.9,77.8z"/>
	</g>
</g>
<g>
	<g>
		<path class="st5" d="M527.9,82.6c3.7-0.5,7.4-0.9,11.1-1.4c3.1-0.4,3.2-5.4,0-5c-3.7,0.5-7.4,0.9-11.1,1.4
			C524.8,78,524.7,83,527.9,82.6L527.9,82.6z"/>
	</g>
</g>
<g>
	<g>
		<path class="st5" d="M545.3,80.4c0,3.4,0,6.9,0,10.3c0,3.2,5,3.2,5,0c0-3.4,0-6.9,0-10.3C550.3,77.2,545.3,77.2,545.3,80.4
			L545.3,80.4z"/>
	</g>
</g>
<g>
	<g>
		<path class="st5" d="M650.6,61.4c4.5-0.6,3.7,5.7,2.6,7.9c-1,1.9-2.6,3.5-3.4,5.5c-1.2,2.7-0.5,5.7,2.2,7c2.9,1.4,5.4-2.9,2.5-4.3
			c-0.4-0.2,3.4-6.4,3.8-7.4c0.9-2.3,1.3-4.9,0.6-7.3c-1.2-4.4-5.2-6.9-9.6-6.3C646.1,57,647.4,61.8,650.6,61.4L650.6,61.4z"/>
	</g>
</g>
<g>
	<g>
		<path class="st5" d="M656.7,89.5c3.2,0,3.2-5,0-5C653.5,84.5,653.5,89.5,656.7,89.5L656.7,89.5z"/>
	</g>
</g>
<g>
	<g>
		<path class="st5" d="M596.2,388.7c10.8,0.9,24.7,2.3,31.1,12.3c3.5,5.4,4.3,12.6,4.9,18.9c0.8,8-1,14.2-8.2,18.4
			c-11.6,6.7-26.5,9.8-39.7,11.8c-7.1,1-14.2,1.5-21.4,1.5c-6.8,0-14.5,0.2-21-2.1c-12.7-4.5-13.8-22.2-10.4-33.2
			c4.5-14.5,21.4-17,34.6-17.7c12.5-0.7,30.4,4.3,30.5,19.8c0.1,16.2-21.8,17-33.6,17.4c-7.2,0.2-15.6,0.4-22.5-2.2
			c-3.2-1.2-6.7-3.4-6.7-7.3c0-4.3,3.9-8.5,6.7-11.3c5.1-5.1,12.2-9.6,19.5-10.4c3.4-0.4,7.4,0.1,9.9,2.8c2.3,2.6,3,7.4-0.1,9.6
			c-2.6,1.9-0.1,6.2,2.5,4.3c4.6-3.3,5.6-9,3.3-14.1c-3-6.7-10.7-8.5-17.4-7.4c-7.8,1.2-15.1,5.7-20.7,11.1c-5,4.9-11,12.5-7.7,19.9
			c2.7,6,9.8,8.2,15.8,9.1c9.7,1.4,19.6,1.2,29.2-0.2c8-1.2,18-2.5,23.1-9.5c4.1-5.6,4.7-13.3,2.1-19.7c-7-17.2-28.3-18.3-43.8-15.7
			c-8.2,1.4-17.3,3.1-23.3,9.3c-5.2,5.3-7.3,12.9-7.7,20.1c-0.5,7.4,0.5,15.8,4.8,22.1c4.4,6.5,11.5,8.9,18.9,9.7
			c20.3,2.3,41.6-0.5,61-6.6c8.2-2.6,18.7-5.6,24-12.9c5.5-7.5,3.6-18.2,1.9-26.8c-1.7-8.6-6-15.7-13.8-19.9
			c-7.8-4.2-17-5.2-25.7-5.9C593,383.4,593,388.4,596.2,388.7L596.2,388.7z"/>
	</g>
</g>
<g>
	<g>
		<path class="st5" d="M90.3,313.3c4.5-6.2,12.2-11.4,18.3-3.7c3.9,5,6.8,11,8.7,17c1.9,5.9,3,12.1,2.9,18.2
			c-0.1,7.5-3.4,12.6-10.7,14.7c-5.8,1.6-12.2,1.8-18.1,1.5c-2.2-0.1-5.2,0-6.7-1.9c-0.8-1-0.9-3-1.1-4.2c-0.4-2.6-0.3-5.3,0.2-7.9
			c1-5.2,3.6-10.2,7.4-14c1.2-1.2,5.8-5.6,7.9-3.7c0.6,0.5,0.9,4.1,1.1,4.7c0.1,0.6,0.3,1.2,0.4,1.8c0.8,1.8,0.6,3.5-0.7,5
			c0.9-3.1-3.9-4.4-4.8-1.3c-1.6,5.3,5,8.7,8.8,4.8c2.2-2.2,2.3-5.3,1.9-8.1c-0.5-3.3-0.9-8.5-3.3-11.1c-4.7-5.1-12.9,2.4-16.1,6
			c-4.6,5.2-7.4,11.8-7.8,18.7c-0.4,6,0.6,14.2,7.5,15.8c7.8,1.8,18.1,0.8,25.7-1.5c17.7-5.3,14.9-26.5,10.1-40.4
			c-2.6-7.4-7-18.6-14.7-22c-8.5-3.8-16.1,2.8-20.8,9.2C84.1,313.4,88.4,315.9,90.3,313.3L90.3,313.3z"/>
	</g>
</g>
</svg>
