<?xml version="1.0" encoding="utf-8"?>
<!-- Generator: Adobe Illustrator 22.1.0, SVG Export Plug-In . SVG Version: 6.00 Build 0)  -->
<svg version="1.1" xmlns="http://www.w3.org/2000/svg" xmlns:xlink="http://www.w3.org/1999/xlink" x="0px" y="0px"
	 viewBox="0 0 841.9 677.5" style="enable-background:new 0 0 841.9 677.5;" xml:space="preserve">
<style type="text/css">
	.st0{display:none;}
	.st1{display:inline;}
	.st2{fill:#754C29;}
	.st3{fill:#8B5E3C;}
	.st4{fill:url(#SVGID_1_);}
	.st5{fill:url(#SVGID_2_);}
	.st6{fill:url(#SVGID_3_);}
	.st7{fill:url(#SVGID_4_);}
	.st8{fill:url(#SVGID_5_);}
	.st9{fill:url(#SVGID_6_);}
	.st10{fill:url(#SVGID_7_);}
	.st11{fill:url(#SVGID_8_);}
	.st12{fill:#00A79D;}
	.st13{fill:url(#SVGID_9_);}
	.st14{fill:url(#SVGID_10_);}
	.st15{fill:url(#SVGID_11_);}
	.st16{fill:url(#SVGID_12_);}
	.st17{fill:url(#SVGID_13_);}
	.st18{fill:url(#SVGID_14_);}
	.st19{fill:url(#SVGID_15_);}
	.st20{fill:url(#SVGID_16_);}
	.st21{fill:url(#SVGID_17_);}
	.st22{fill:url(#SVGID_18_);}
	.st23{fill:url(#SVGID_19_);}
	.st24{fill:url(#SVGID_20_);}
	.st25{fill:url(#SVGID_21_);}
	.st26{fill:url(#SVGID_22_);}
</style>
<g id="Слой_2" class="st0">
	<g class="st1">
		<g>
			<path class="st2" d="M136.6,97.5c3.9,15.2,7.8,30.5,11.6,45.7c0.3,1.2,0.6,2.4,0.9,3.6c1.4,5.8,0.2-5.3-0.2,0.6
				c0.4-6.8,0-1.5-0.4,0.2c-0.4,1.7-0.9,3.4-1.2,5.1c-2,10.4-1.3,20.5,1.5,30.7c1.8,6.4,4.3,12.6,6.1,19.1c0.8,3,1.6,6.1,2.2,9.1
				c0.4,1.8,0.7,3.7,1,5.5c0.2,1.2,0.4,2.5,0.6,3.7c-0.5-3.5-0.5-3.9-0.2-1.1c1.4,14.5,2,29,2.9,43.5c2.1,31.1,6.1,62.1,10.3,93
				c2,15,4.2,30,6.3,45c0.5,3.5,1,7,1.4,10.5c0.9,6.6-0.7-5.6,0.1,1c0.3,1.9,0.5,3.8,0.8,5.7c1,7.6,2,15.3,2.8,23
				c3.9,33.1,6.5,66.5,6.2,99.9c16.7,0,33.3,0,50,0c-2.7-30.5-6.7-61-12.2-91.2c-2.6-14.3-5.5-28.5-8.8-42.7
				c-1.5-6.5-2.9-13.1-4.1-19.6c-1.1-6.4,0.3,5.5-0.1-0.9c-0.1-1.9-0.3-3.8-0.4-5.7c-0.1-3.8,0-7.5,0.1-11.3
				c0.7-13.9,1.9-27.6,0.7-41.5c-1.4-16.1-4.3-32.1-7.3-48c-1.2-6.3-2.3-12.5-3.4-18.8c-0.6-3.8-1.3-7.6-1.7-11.4
				c0.7,5.9,0.3,2.2,0.1,0.9c-0.3-2.5-0.6-5.1-0.9-7.6c-1.5-14-2.5-28-3.4-42.1c-2.2-34.1-4.3-68.3-11.4-101.8
				C183.8,86.7,168.1,78,155.8,82c-13.5,4.4-20.4,17-17.5,30.8c1.5,6.9,2.7,13.8,3.8,20.7c0.3,1.9,0.6,3.8,0.8,5.7
				c-0.6-5.9-0.3-2.2-0.1-1c0.5,4.4,1,8.9,1.5,13.3c1.4,14,2.3,28.1,3.2,42.1c1.9,29.7,4.2,59.3,9.5,88.6c1.2,6.9,2.6,13.8,3.8,20.7
				c0.6,3.1,1.1,6.3,1.6,9.4c0.3,1.9,0.6,3.8,0.9,5.6c0.2,1.2,1.5,7.5,0.2,0.9c2.9,13.7,1.8,28.7,0.9,42.5
				c-1.1,16.1-0.3,31.3,3,47.2c2.9,13.9,6.2,27.6,9,41.5c3.1,15.9,5.8,31.8,8.1,47.8c0.2,1.3,0.4,2.6,0.5,3.8
				c0.4,2.9,0.4,2.6-0.1-0.9c0.2,1.3,0.3,2.6,0.5,3.8c0.5,3.8,1,7.7,1.4,11.5c1,8.3,1.8,16.7,2.5,25.1c1.1,13,10.7,25.6,25,25
				c13.7-0.6,24.9-11,25-25c0.6-62.1-9-123.6-17.5-184.9c-0.4-3.2-0.9-6.4-1.3-9.6c-0.3-1.9-0.5-3.8-0.8-5.7c0.8,6.7,0,0.2-0.1-1
				c-1-7.7-2-15.3-2.9-23c-1.8-15-3.4-30-4.5-45.1c-2.4-30.6-1.7-62-11.7-91.4c-1.4-4-2.8-8-3.8-12.1c-0.1-0.6-0.3-1.2-0.4-1.7
				c-0.5-2.8-0.5-2.3,0,1.4c-0.5-0.4-0.2-5.2-0.2-5.2c-0.2,1-0.3,2.1-0.5,3.1c0.2-1.1,0.5-2.3,0.8-3.4c0.6-2.3,1.2-4.5,1.6-6.8
				c1.3-7.2,1.1-13.3-0.2-20.5c-3.1-17.1-8.5-34.2-12.8-51.1c-3.2-12.7-18.1-21.6-30.8-17.5C140.9,71,133.1,83.9,136.6,97.5
				L136.6,97.5z"/>
		</g>
	</g>
	<g class="st1">
		<g>
			<path class="st2" d="M603.1,555.1c-3-34.8-9.2-69.1-14.3-103.6c-0.6-3.8-1.2-7.6-1.6-11.4c0.8,6.8,0-0.5-0.2-1.9
				c-0.3-2.2-0.5-4.4-0.8-6.6c-1-8.2-1.8-16.4-2.3-24.7c-1.1-16.5-1.3-33-0.1-49.5c-16.4,2.2-32.7,4.4-49.1,6.6
				c1.6,6.1,3,12.2,4.1,18.3c0.5,2.8,1,5.6,1.4,8.3c0.1,0.9,0.3,1.9,0.4,2.8c-0.1-1-0.3-1.9-0.4-2.9c0.4,1.5,0.4,3.2,0.6,4.7
				c1.4,12.2,2.1,24.4,2.7,36.7c1.3,25.3,2.4,50.7,3.6,76.1c0.6,12.5,9.1,22.9,21.7,24.6c11.1,1.5,25.6-5.6,27.4-17.9
				c5.5-36.5,6.3-73,3.9-109.8c-2.3-35.3-6.9-70.4-10.7-105.6c-2.2-20-4.1-40-5.2-60.1c-0.7-13-11-25.6-25-25
				c-13.2,0.6-25.5,11-25,25c1.5,42.9,0.9,85.9-1.8,128.8c16.4-2.2,32.7-4.4,49.1-6.6c-0.8-2.3-1.4-4.6-1.9-7
				c-0.2-0.9-0.3-1.8-0.5-2.7c-0.8-3.5,0.3,4.8,0.2,1.3c-0.2-4.9-0.5-9.7-0.3-14.6c0.3-9.8,1.1-19.6,1.7-29.4c1.1-20,1.7-40,1.8-60
				c0.3-40.3-1.1-80.6-4.4-120.8c-1.9-22.9-4.3-45.7-7.3-68.4c-0.9-6.9-2.2-12.5-7.3-17.7c-4.3-4.3-11.5-7.6-17.7-7.3
				c-12.2,0.5-26.7,11.1-25,25c6.5,53.5,10.4,107.4,11.6,161.3c0.3,13.1,11.3,25.6,25,25c13.3-0.6,25.3-11,25-25
				c-1.2-53.9-5.1-107.7-11.6-161.3c-16.7,0-33.3,0-50,0c10.7,80.9,14.1,162.8,10.1,244.3c-1.1,23.3-5,47.9,2.4,70.6
				c3.9,11.9,14.8,19.6,27.4,17.9c12.7-1.7,20.9-12,21.7-24.6c2.7-42.9,3.3-85.9,1.8-128.8c-16.7,0-33.3,0-50,0
				c4,69.6,17.6,138.4,17.3,208.2c0,9.6-0.3,19.3-1,28.9c-0.3,4.8-0.7,9.6-1.2,14.4c-0.3,2.6-0.6,5.1-0.9,7.7
				c-0.1,0.6-0.5,3.9-0.1,0.5c0.5-3.9-0.4,2.2-0.4,2.4c16.4,2.2,32.7,4.4,49.1,6.6c-1.2-26-2.3-52-3.6-77.9
				c-1.4-26.6-3.5-53.5-10.4-79.3c-3.2-12.1-15.4-19.5-27.4-17.9c-12.8,1.7-20.8,12-21.7,24.6c-2.5,34.7,1.4,69.3,6.3,103.6
				c2.4,16.5,5.1,32.9,7.6,49.4c0.6,3.8,1.1,7.6,1.7,11.4c0.3,1.9,0.6,3.8,0.8,5.7c-0.8-7.1,0.2,1.5,0.4,2.9
				c1,8.2,1.9,16.5,2.6,24.8c1.1,13,10.7,25.6,25,25C590.7,579.5,604.3,569,603.1,555.1L603.1,555.1z"/>
		</g>
	</g>
	<g class="st1">
		<g>
			<path class="st2" d="M203.8,311.7c24.6,6.5,49.4,3.5,74.1-0.9c11.3-2,22.5-4.2,33.9-5.9c2.6-0.4,5.1-0.8,7.7-1.1
				c1.6-0.2,4.2-1.3-0.9,0.1c1.1-0.3,2.6-0.3,3.8-0.5c5.8-0.7,11.5-1.4,17.3-2c22.5-2.3,45.1-3.5,67.7-3.6
				c13.2-0.1,26.1-0.4,39.2-2.8c4.8-0.9,9.6-2.1,14.4-3.1c1.2-0.2,2.4-0.4,3.6-0.7c5.9-1.2-4.1,0.2-0.3,0.1c2.7-0.1,5.4-0.4,8.1-0.4
				c6.1,0,12.1,0.6,18.1,1.3c4.6,0.5-0.5,0-1.2-0.2c1.7,0.4,3.7,0.5,5.4,0.8c3,0.4,6,0.9,9,1.3c7.6,1,15.2,2.1,22.9,2.5
				c2.7,0.1,5.4,0.2,8.1,0.1c1.5,0,3-0.1,4.5-0.2c0.6-0.1,1.2-0.1,1.8-0.2c4.4-0.1,1.7-0.9-8.1-2.4c-3-3-6-6-9-9
				c0.1,0.3,0.3,0.6,0.4,1c-0.8-6.4-1.7-12.8-2.5-19.3c1.5-2.5,3.1-5,4.6-7.6c-1.4,1.4-1.3,1.3,0.5-0.2c4-2.7-0.7-0.1-0.9,0.2
				c0.3-0.5,6-1.9,2.1-1.1c-0.9,0.2-1.9,0.4-2.7,0.7c-3.9,1.1,1.8-0.3,2.4-0.2c-1.1-0.2-2.5,0.2-3.6,0.3c-3.2,0.2-6.4,0.2-9.5,0.3
				c-12,0.2-23.9,0.2-35.9,0.1c-24.6-0.3-49.2-1.4-73.7-2.4c-12.4-0.5-24.9-1.5-37.3-1.4c-12.8,0.1-25.6,2.2-38,5.3
				c-5.3,1.4-10.7,2.9-16,4.3c-2.7,0.7-5.3,1.3-8,1.9c-1.5,0.3-3,0.6-4.5,0.9c-0.8,0.1-6,1.1-2.2,0.4c4.2-0.7-2,0.2-2.3,0.2
				c-1.3,0.1-2.5,0.2-3.8,0.3c-2.8,0.2-5.7,0.3-8.5,0.3c-6,0.1-12-0.2-18-0.5c-13.3-0.7-26.6-1.9-39.9-1.4c-6.4,0.2-12.6,1.3-19,1.8
				c-1.2,0.1-2.6,0-3.8,0.2c-3-0.1-2.6,0,1.4,0.5c-0.5-0.1-0.9-0.2-1.4-0.3c-4.8-1.5,4.2,2.5,1.4,0.7c-1.6-1-0.9-0.3,2.2,1.9
				c-1.8-1.9-1.3-1.3,1.4,1.8c-5,12.2-10,24.5-14.9,36.7c9.4-3.7,18.7-7.4,28.4-10.3c4.8-1.4,9.7-2.4,14.6-3.4
				c2.8-0.4,2.4-0.4-1.1,0.1c1.2-0.1,2.5-0.3,3.7-0.3c2.5-0.2,4.9-0.3,7.4-0.2c2.2,0,5.3-0.2,7.4,0.5c-3.7-0.5-4.1-0.5-1.4-0.1
				c1.2,0.2,2.3,0.5,3.5,0.7c4.1,0.9,8.1,2.1,12.1,3.3c10.9,3.2,21.5,5.9,32.8,7.1c20.7,2.1,41.3-2.6,61.7-5.6
				c1.2-0.2,2.5-0.4,3.7-0.5c-3.6,0.5-4,0.5-1.1,0.2c2.5-0.2,4.9-0.5,7.4-0.7c4.9-0.4,9.9-0.5,14.9-0.3c2.4,0.1,5.5-0.1,7.7,0.6
				c-3.4-0.5-3.7-0.5-0.9-0.1c1.3,0.2,2.6,0.4,3.8,0.6c5.1,0.9,10.2,1.9,15.3,3c12.8,2.6,27.6-3.7,30.8-17.5
				c2.8-12.5-3.8-27.9-17.5-30.8c-17.5-3.6-35.3-7-53.3-5.7c-9.3,0.6-18.6,2.1-27.8,3.5c-3.7,0.6-7.4,1.2-11,1.8
				c-1.8,0.3-3.7,0.6-5.5,0.8c-0.6,0.1-3.8,0.5-0.3,0.1c3.6-0.5-0.6,0.1-1.3,0.1c-7.6,0.9-15.3,1.3-22.9,0.8c-0.7,0-3.2-0.5-3.7-0.3
				c0.2-0.1,4.8,0.9,2.1,0.3c-1.7-0.4-3.5-0.7-5.3-1c-3.8-0.9-7.5-1.9-11.2-3c-16.1-4.7-32.4-9-49.4-7.4c-20.1,1.9-38.4,8.2-57,15.6
				c-7.5,3-13,6.8-16.2,14.5c-3,7.1-2.9,15.5,1.3,22.2c9.2,14.8,26,21.5,43,19.8c12.4-1.3,24.5-2.1,37-1.5c26.1,1.2,51.3,3.1,77-3.1
				c11.6-2.8,23-6.3,34.8-8.5c2.4-0.4,2.3-1.5-1.2,0.2c1.2-0.6,3.5-0.3,4.8-0.4c2.9-0.2,5.8-0.2,8.7-0.2c6.5,0,13,0.4,19.5,0.7
				c25.9,1.1,51.8,2.4,77.7,2.9c12.6,0.3,25.2,0.4,37.9,0.3c12-0.1,25.1,0.5,36.7-2.9c20.2-6,39.6-28.5,23.6-49.1
				c-11.4-14.8-29.8-9.5-45.8-11c-1.2-0.1-2.4-0.2-3.6-0.4c-0.4,0-6.4-0.8-2.1-0.2c4.3,0.5-1.7-0.3-2.1-0.3
				c-1.2-0.2-2.4-0.4-3.6-0.5c-7.6-1.1-15.3-2.2-22.9-3c-13.5-1.3-26.8-0.2-40.1,2.7c-2.7,0.6-5.4,1.2-8.1,1.8
				c-1.5,0.3-3,0.6-4.5,0.9c-2,0.4-4.8,2,0.1,0.1c-2.2,0.8-5.4,0.5-7.7,0.6c-3.9,0.2-7.7,0.2-11.6,0.2c-12.3,0.1-24.5,0.2-36.8,0.8
				c-29.3,1.4-58.6,4.7-87.6,9.5c-6.9,1.1-13.7,2.4-20.6,3.7c-3.4,0.6-6.8,1.2-10.2,1.8c-1.5,0.3-3.1,0.5-4.6,0.7
				c-5.3,0.9,5-0.5-0.8,0.1c-6.8,0.7-13.5,1.3-20.4,1.1c-2.5-0.1-6.8-1.3-9.2-0.6c1,0.1,2,0.3,3,0.4c-0.9-0.1-1.8-0.3-2.7-0.5
				c-2.1-0.4-4.2-0.9-6.3-1.5c-12.6-3.3-27.7,4.2-30.8,17.5C183.4,294.1,190.3,308.2,203.8,311.7L203.8,311.7z"/>
		</g>
	</g>
</g>
<g id="Слой_1">
	<g>
		<path class="st2" d="M138.5,82.9c3.3,38.9,7.8,77.7,12.4,116.4c4.9,41.4,9.7,82.7,14.6,124.1c7.5,64.1,15.1,128.3,22.6,192.4
			c0.3-1.5,0.5-2.9,0.8-4.4"/>
		<g>
			<path class="st2" d="M136,82.9c4.8,56.4,11.9,112.5,18.5,168.6c6.6,56.4,13.2,112.7,19.9,169.1c3.7,31.7,7.5,63.5,11.2,95.2
				c0.3,2.5,4.4,3.7,4.9,0.7c0.3-1.5,0.5-2.9,0.8-4.4c0.5-3.1-4.3-4.5-4.8-1.3c-0.3,1.5-0.5,2.9-0.8,4.4c1.6,0.2,3.3,0.4,4.9,0.7
				c-13.2-112.7-26.6-225.5-39.7-338.2c-3.7-31.5-7.2-63.1-9.9-94.8C140.8,79.7,135.8,79.7,136,82.9L136,82.9z"/>
		</g>
	</g>
	<g>
		<path class="st3" d="M186.2,99.5c11.7,80.2,23.2,160.6,28.3,241.4c4.1,64.6,4.3,129.9,17.6,193.2"/>
		<g>
			<path class="st2" d="M183.8,100.2c8.4,57.2,16.6,114.4,22.4,171.8c5.8,56.5,7.3,113.2,11.4,169.9c2.2,31.2,5.7,62.3,12.1,92.9
				c0.7,3.1,5.5,1.8,4.8-1.3c-11.6-55.7-13.2-112.6-16.2-169.3c-3-57.1-8.9-114-16.4-170.7c-4.2-31.6-8.7-63.1-13.3-94.7
				C188.1,95.7,183.3,97,183.8,100.2L183.8,100.2z"/>
		</g>
	</g>
	<g>
		<g>
			<path class="st2" d="M209.7,266.5c85.7-6.9,171.6-12.3,257.6-16c24.2-1,48.5-2,72.7-2.8c3.2-0.1,3.2-5.1,0-5
				c-86,2.8-171.9,7.2-257.7,13.3c-24.2,1.7-48.4,3.5-72.5,5.5C206.5,261.8,206.5,266.8,209.7,266.5L209.7,266.5z"/>
		</g>
	</g>
	<g>
		<g>
			<path class="st2" d="M212.3,300c42,2.9,83.4-8.1,125.4-6.7c21.6,0.7,42.7,5.1,64.2,7.2c21.4,2.1,42.8,1.6,64.2,1
				c24.3-0.7,48.7-1.3,72.9,1.8c-0.7-1.3-1.4-2.5-2.2-3.8c-3.7,6.3-3.9,13.3-3.5,20.5c0.5,9.6,1,19.2,1.6,28.7
				c1.1,19.3,2.1,38.6,3.2,57.9c2.1,38,3.9,76,8.9,113.7c1.2,9.1,1.8,18.9,4.5,27.7c1.8,5.8,5.2,11.3,11.8,11.4c3.2,0,3.2-5,0-5
				c-7.3-0.1-8-12.1-8.9-17.3c-1.4-8.8-2.7-17.7-3.7-26.5c-2-16.9-3.4-33.9-4.6-50.8c-2.3-34-3.9-68-5.7-102
				c-0.5-9.6-1.1-19.3-1.6-28.9c-0.5-8.7-2.3-18.8,2.4-26.7c1.1-1.8-0.4-3.5-2.2-3.8c-42.7-5.6-85.6,0.9-128.4-2.1
				c-21.5-1.5-42.7-5.9-64.2-7.5c-21-1.5-42,0.3-62.8,2.6c-23.7,2.5-47.4,5.3-71.2,3.6C209.1,294.8,209.1,299.8,212.3,300L212.3,300
				z"/>
		</g>
	</g>
	<g>
		<g>
			<path class="st2" d="M565.2,91.6c19.1,116.6,23.3,234.9,28.4,352.7c1.4,33.3,3,66.6,5,99.9c0.2,3.2,5.2,3.2,5,0
				c-7-118.7-8.4-237.9-20.6-356.2c-3.4-32.7-7.6-65.3-12.9-97.7C569.5,87.1,564.7,88.4,565.2,91.6L565.2,91.6z"/>
		</g>
	</g>
	<g>
		<g>
			<path class="st3" d="M542.1,245.4c-3.4-50.2-6.8-100.5-10.2-150.7c-0.2-3.2-5.2-3.2-5,0c3.4,50.2,6.8,100.5,10.2,150.7
				C537.3,248.6,542.3,248.6,542.1,245.4L542.1,245.4z"/>
		</g>
	</g>
	<g>
		<linearGradient id="SVGID_1_" gradientUnits="userSpaceOnUse" x1="222.2861" y1="182.5839" x2="337.001" y2="182.5839">
			<stop  offset="0" style="stop-color:#2484C6"/>
			<stop  offset="1" style="stop-color:#2484C6;stop-opacity:0"/>
		</linearGradient>
		<path class="st4" d="M244.3,127.3c1.5,14.4,3.1,28.9,4.6,43.3c-7.4-0.3-14.2,5-17.6,11.6c-3.4,6.6-4,14.3-3.9,21.7
			c0.2,17.4,4.9,36.5,19.2,46.5c15.2,10.7,36.4,7.5,53.3-0.2c13.9-6.3,27-16,33.4-29.8c6.5-13.8,4.6-32.2-7.3-41.8
			c-10.4-8.4-25.1-8.2-38.5-7.6c-2.5-15.1-5.7-30.1-9.7-44.9c5.8,2.1,12.6,1,17.4-2.8c1.4-1.1,2.7-2.6,3.1-4.4
			c1-4.8-4.9-8.1-9.7-9.1c-16.8-3.5-34.2-1-51.2,1.5c-7,1-15.9,4.5-15.1,11.5c7.5,3.1,16.4,2.4,23.3-2"/>
		<g>
			<linearGradient id="SVGID_2_" gradientUnits="userSpaceOnUse" x1="221.7861" y1="182.6193" x2="337.501" y2="182.6193">
				<stop  offset="0" style="stop-color:#2484C6"/>
				<stop  offset="1" style="stop-color:#2484C6;stop-opacity:0"/>
			</linearGradient>
			<path class="st5" d="M241.8,127.3c1.5,14.4,3.1,28.9,4.6,43.3c0.8-0.8,1.7-1.7,2.5-2.5c-23.9,0.1-25.5,30.2-23.1,47.5
				c2.5,18.6,11.9,36.8,31.1,42.4c19.8,5.8,42.7-2.5,59-14c15.3-10.9,26.4-28,23-47.4c-1.7-9.9-7.6-18.8-16.7-23.4
				c-10.6-5.5-23.1-5.2-34.7-4.7c0.8,0.6,1.6,1.2,2.4,1.8c-2.5-15.1-5.7-30.1-9.7-44.9c-1,1-2.1,2.1-3.1,3.1
				c7.6,2.4,22.3,0.4,23.7-9.6c1.5-10.7-14.5-12.4-21.6-13c-14.1-1.3-28.6,0.6-42.5,2.9c-7.4,1.2-17.3,4.8-16.9,13.9
				c0.1,1.2,0.8,2,1.8,2.4c8.4,3.2,17.4,2.3,25.2-2.2c2.8-1.6,0.3-6-2.5-4.3c-6.7,3.9-14.1,4.5-21.3,1.7c0.6,0.8,1.2,1.6,1.8,2.4
				c-0.3-7.1,9.9-8.5,15.2-9.3c8.6-1.3,17.3-2.5,26-2.8c7.8-0.3,17-0.5,24.5,2.3c1.9,0.7,4.2,1.7,4.9,3.7c1.1,2.9-1.6,4.9-4,6.2
				c-4.1,2.2-8.6,2.3-12.9,0.9c-1.8-0.6-3.6,1.3-3.1,3.1c4,14.8,7.2,29.8,9.7,44.9c0.2,1,1.4,1.9,2.4,1.8
				c16.6-0.7,37.5-0.4,44.7,17.8c6.5,16.5-1.4,33.6-14,44.5c-12.8,11.1-30.8,18.9-47.9,18.9c-18.6,0.1-32.1-11.5-37.3-29
				c-4.5-15.1-8.1-52.5,15.9-52.6c1.2,0,2.6-1.1,2.5-2.5c-1.5-14.4-3.1-28.9-4.6-43.3C246.5,124.1,241.5,124.1,241.8,127.3
				L241.8,127.3z"/>
		</g>
	</g>
	<g>
		<linearGradient id="SVGID_3_" gradientUnits="userSpaceOnUse" x1="383.1494" y1="175.4765" x2="490.1505" y2="175.4765">
			<stop  offset="0" style="stop-color:#2484C6"/>
			<stop  offset="1" style="stop-color:#2484C6;stop-opacity:0"/>
		</linearGradient>
		<path class="st6" d="M482.9,217c-2.6,9.2-11.3,15.5-20.3,19c-23.4,9.1-51.9,3-69.5-14.8c-4-4-7.5-8.7-9.1-14.2
			c-2.7-9.6,1.2-20.1,7.5-27.9c7.2-8.9,18.9-15.3,30-12.4c-0.4-13,0-26,1-38.9c-11.5,2.4-24-0.3-33.3-7.4
			c18.4-13.9,44.2-10,66.7-5.3c3.8,0.8,8.7,3.6,7,7c-0.6,1.2-1.7,1.9-2.9,2.5c-4.4,2.3-9,4.1-13.8,5.4c0.5,13.2,1.4,26.3,2.9,39.4
			c0.2,1.5,0.4,3.1,1.5,4.2c1.5,1.5,4,1.2,6.1,0.9c12.3-1.3,25.4,5.2,30.8,16.3c5.4,11.1,2,26.1-8.3,33"/>
		<g>
			<linearGradient id="SVGID_4_" gradientUnits="userSpaceOnUse" x1="382.6494" y1="175.4714" x2="490.6505" y2="175.4714">
				<stop  offset="0" style="stop-color:#2484C6"/>
				<stop  offset="1" style="stop-color:#2484C6;stop-opacity:0"/>
			</linearGradient>
			<path class="st7" d="M480.5,216.4c-4.5,14.1-21.7,19.9-35,21.1c-13.3,1.2-26.9-1.8-38.4-8.6c-12.4-7.3-24.7-19.6-20.5-35.2
				c3.8-14.2,18.8-28.2,34.3-24.6c1.5,0.4,3.2-0.7,3.2-2.4c-0.3-13,0-26,1-38.9c0.1-1.7-1.7-2.7-3.2-2.4
				c-11.1,2.1-22.2-0.5-31.4-7.1c0,1.4,0,2.9,0,4.3c11.7-8.5,26-10.1,40.1-8.9c7.3,0.6,14.5,1.8,21.6,3.2c2.6,0.5,9.8,1,6.6,5.6
				c-0.9,1.3-4.7,2.3-6.1,2.8c-2.3,0.9-4.7,1.6-7.1,2.3c-1,0.3-1.9,1.3-1.8,2.4c0.5,12.8,1.3,25.7,2.8,38.4c0.4,3.3,0.9,6.9,4.5,8.3
				c4.1,1.6,9.3-0.2,13.6,0.6c9.8,1.7,19,8.3,22,18c3,9.5-0.4,20.7-8.6,26.5c-2.6,1.8-0.1,6.2,2.5,4.3c15.5-11,15.9-34.3,1.3-46.2
				c-3.5-2.8-7.4-5-11.7-6.3c-5.1-1.6-9.5-1.1-14.7-1.3c-4.6-0.2-4.1-5.1-4.4-8.6c-0.4-3.9-0.7-7.9-1-11.8
				c-0.6-7.2-0.9-14.4-1.2-21.7c-0.6,0.8-1.2,1.6-1.8,2.4c5.2-1.4,21.2-5,18.5-13.3c-2.4-7.4-15.3-7.7-21.4-8.7
				c-19-3.1-39.8-3.9-56.1,7.9c-1.6,1.2-1.6,3.2,0,4.3c10.3,7.4,22.8,10,35.3,7.6c-1.1-0.8-2.1-1.6-3.2-2.4c-1,12.9-1.3,25.9-1,38.9
				c1.1-0.8,2.1-1.6,3.2-2.4c-25.7-6-51.3,27.3-37.5,50.3c13.3,22.2,43.6,31.6,68,26.9c13.5-2.6,28.1-9.8,32.6-23.8
				C486.3,214.6,481.5,213.3,480.5,216.4L480.5,216.4z"/>
		</g>
	</g>
	<g>
		<linearGradient id="SVGID_5_" gradientUnits="userSpaceOnUse" x1="259.4275" y1="454.0411" x2="357.7059" y2="454.0411">
			<stop  offset="0" style="stop-color:#2484C6"/>
			<stop  offset="1" style="stop-color:#2484C6;stop-opacity:0"/>
		</linearGradient>
		<path class="st8" d="M284,538.9c-10.7-24.9-16.9-51.8-18.2-78.9c-0.4-8,1.8-18.5,9.7-19.3c3.6-0.3,8.1,1.4,10.3-1.6
			c0.6-0.8,0.8-1.9,1-2.9c1.4-9.7-2.3-19.8,0.4-29.2c1.7-6.1,5.9-12.7,2.7-18.1c-2.3-3.8-7.3-4.9-11.7-5c-4.4,0-9,0.6-13.1-1.1
			c-4.1-1.7-7.1-7-4.6-10.6c2-2.9,6.2-3.1,9.7-2.9c17.2,0.6,34.3,1.1,51.5,1.7c1.7,0.1,3.6,0.2,4.9,1.4c2.3,2.2,0.5,6.2-2.1,8.1
			c-2.6,1.9-5.9,3-7.7,5.6c-4.2,6,2.3,15.1-1.3,21.5c-0.7,1.3-1.9,2.4-2.4,3.9c-0.5,1.5-0.3,3.2,0,4.8c1.1,6.6,2.1,13.3,3.2,19.9
			c8-1.8,17.4-3.2,23.7,2c4.2,3.5,5.9,9.2,7.2,14.6c6.7,27.5,10.3,55.8,10.7,84.1"/>
		<g>
			<linearGradient id="SVGID_6_" gradientUnits="userSpaceOnUse" x1="258.9275" y1="453.9604" x2="358.2058" y2="453.9604">
				<stop  offset="0" style="stop-color:#2484C6"/>
				<stop  offset="1" style="stop-color:#2484C6;stop-opacity:0"/>
			</linearGradient>
			<path class="st9" d="M286.2,537.6c-10.2-24-16.4-49.7-17.8-75.8c-0.2-4.4-0.2-9,1.4-13.2c2.5-6.1,6.5-4.9,12-5.3
				c10.3-0.6,7.8-14,7.2-21c-0.5-6.2-0.6-11.9,1.5-17.8c1.6-4.6,3.9-9.4,2.5-14.3c-2.7-9.8-13.8-8.4-21.6-8.8
				c-3.1-0.2-6.3-0.6-8.2-3.3c-3-4.2,1-6.3,4.9-6.5c6.6-0.3,13.3,0.4,19.8,0.6c6.6,0.2,13.2,0.4,19.8,0.6c3,0.1,5.9,0.2,8.9,0.3
				c2.7,0.1,11.3-0.2,6.9,4.6c-3.3,3.6-8.3,4-10.1,9.2c-1.7,4.7,0.3,9.5,0.5,14.3c0.3,5.3-4.2,8.5-3.6,13.9
				c0.7,7.2,2.3,14.4,3.4,21.5c0.2,1.4,1.9,2,3.1,1.7c8.6-1.9,19.4-3.6,24.6,5.5c2.3,4,3.1,8.8,4.1,13.1c1.2,5.3,2.4,10.7,3.4,16.1
				c3.9,21,6,42.3,6.4,63.6c0.1,3.2,5.1,3.2,5,0c-0.4-25-3.2-50-8.5-74.4c-1.9-8.8-3.1-20.4-10.7-26.4c-7.3-5.8-17.2-4.1-25.6-2.3
				c1,0.6,2.1,1.2,3.1,1.7c-1.1-6.5-2.9-13.3-3.2-19.9c-0.2-4.3,2.4-5.9,3.3-9.7c0.5-2.1,0.3-4.4,0.1-6.5c-0.3-2.6-1.1-5.3-1-8
				c0.2-3.9,2.6-5.4,5.6-7.3c3.5-2.1,7.1-5.3,6.6-9.8c-0.4-3.8-3.6-5.3-7-5.8c-6.9-0.9-14.2-0.5-21.1-0.7
				c-7.3-0.2-14.5-0.5-21.8-0.7c-5.5-0.2-12.5-1.6-17.8,0.7c-8.6,3.8-5.1,14.4,2.1,17.4c5.5,2.3,11.5,0.4,17.2,1.5
				c9.5,1.8,6.5,10,4.3,16.6c-2,5.7-2.3,11.4-1.8,17.4c0.3,3.5,0.7,6.9,0.7,10.4c0,0.9,0.1,2.5-0.1,3.4c-1.4,5-3,3.8-6.4,3.7
				c-9.3-0.3-13.5,7.1-14.5,15.5c-0.8,6.3,0.1,12.9,0.8,19.2c0.8,7.6,2,15.1,3.5,22.6c3.2,15.3,8,30.2,14.1,44.6
				C283.1,543.1,287.4,540.5,286.2,537.6L286.2,537.6z"/>
		</g>
	</g>
	<g>
		<linearGradient id="SVGID_7_" gradientUnits="userSpaceOnUse" x1="421.0451" y1="450.6393" x2="504.2901" y2="450.6393">
			<stop  offset="0" style="stop-color:#2484C6"/>
			<stop  offset="1" style="stop-color:#2484C6;stop-opacity:0"/>
		</linearGradient>
		<path class="st10" d="M440.9,548.2c-6-2.3-8.9-9-10.8-15.2c-8.4-27.7-8.8-57.1-9.1-86.1c-0.1-7.2,0-15,4.3-20.9
			c4.3-5.9,14.4-7.8,18.4-1.8c3.2-15.5,5-31.2,5.3-47c-4.8,1-10.3,1.7-14.4-1.2c-6.8-5-3.3-16.9,4.3-20.7c7.6-3.8,16.6-2,24.9-0.2
			c5,1.1,10.1,2.2,15.1,3.3c2.6,0.6,5.4,1.2,7.4,3c4.9,4.2,2.6,13.1-3,16.3c-2.2,1.2-4.8,1.9-6.3,3.9c-1.4,1.8-1.3,4.3-1.3,6.6
			c0.4,12.7,0.9,25.5,1.3,38.2c5.5-0.9,11.1,2.5,14.3,7.1s4.5,10.2,5.7,15.7c6.6,32.1,8.7,65.2,6.1,97.9"/>
		<g>
			<linearGradient id="SVGID_8_" gradientUnits="userSpaceOnUse" x1="420.5451" y1="450.6975" x2="504.7901" y2="450.6975">
				<stop  offset="0" style="stop-color:#2484C6"/>
				<stop  offset="1" style="stop-color:#2484C6;stop-opacity:0"/>
			</linearGradient>
			<path class="st11" d="M442.2,546c-10-4.5-11.9-20.6-13.7-30.1c-2.5-12.4-3.6-25.1-4.2-37.7c-0.6-11.9-1-24-0.7-35.9
				c0.2-5.5,0.8-12.2,5.2-16.2c3.7-3.4,9.9-4.2,13.3,0c1.2,1.5,3.8,0.6,4.2-1.1c3.2-15.7,5-31.6,5.4-47.7c0-1.7-1.6-2.7-3.2-2.4
				c-5.7,1.1-14.6,1.7-14.8-6.2c-0.2-5.7,4-10.5,9.2-12.1c6.3-2,13.3-0.5,19.6,0.8c6.4,1.4,14.4,2,20.3,4.8c7,3.4,3.5,11.2-1.9,14
				c-4.2,2.2-7,4.1-7.4,9.2c-0.5,6.5,0.3,13.4,0.6,20c0.2,7,0.5,14,0.7,21c0,1.3,1.1,2.6,2.5,2.5c12.2-1.2,15.8,12.5,17.7,21.9
				c2.2,10.8,3.9,21.7,5,32.7c2.2,21.1,2.4,42.4,0.9,63.6c-0.2,3.2,4.8,3.2,5,0c1.9-25,1.1-50.2-2.2-75c-1.5-11-2.7-22.8-6.6-33.3
				c-3.1-8.4-10.2-15.8-19.8-14.8c0.8,0.8,1.7,1.7,2.5,2.5c-0.3-10.2-0.7-20.4-1-30.5c-0.2-5.3-1.8-11.4,3.3-14.7
				c2.6-1.6,4.9-2.4,6.8-5c3.2-4.3,4.2-10.7,0.7-15.2c-4.6-5.9-15.3-6.2-22-7.7c-12.7-2.8-31.3-6.5-37.5,8.7
				c-1.9,4.6-1.9,10.3,1.5,14.2c4.6,5.4,12.2,4.6,18.4,3.3c-1.1-0.8-2.1-1.6-3.2-2.4c-0.4,15.6-2.1,31-5.2,46.3
				c1.4-0.4,2.8-0.7,4.2-1.1c-6.3-7.9-18.6-4.1-23.2,3.6c-3.2,5.3-3.7,11.7-3.8,17.7c-0.1,8.3,0.1,16.6,0.3,24.9
				c0.4,15.9,1.5,31.9,4.5,47.6c2.1,11.1,4.4,28.7,16.2,34C442.6,551.7,445.1,547.3,442.2,546L442.2,546z"/>
		</g>
	</g>
	<g>
		<g>
			<path class="st12" d="M235.2,512.9c6.8-21.9,10.5-53.1-6.4-71.6c-16-17.6-41.8-17.5-62.4-25.9c-11.8-4.8-21.5-13.2-26.3-25.1
				c-4.7-11.6-4.1-24.6,1.8-35.7c5.9-11.1,16-18.9,28.1-22c13.1-3.3,26.3-1,39.1,2.6c9.8,2.8,25.1,4,28-9
				c2.9-12.9-10-20.7-20.7-22.9c-3.1-0.7-4.5,4.2-1.3,4.8c6.3,1.3,13.1,3.7,16.1,9.9c3.8,8-2.1,14.2-10.1,14.4
				c-6.5,0.1-12.8-2.9-19.1-4.3c-5.8-1.3-11.7-2.1-17.6-2.1c-21.2-0.1-40.8,10.6-49,30.7c-7.8,19.2-1.6,42.1,14.6,55
				c17.7,14.1,41.6,13.4,61.4,23c12.9,6.3,20.9,16.7,23.3,31c2.5,15.2,0.3,31.2-4.2,45.7C229.4,514.7,234.2,516,235.2,512.9
				L235.2,512.9z"/>
		</g>
	</g>
	<g>
		<g>
			<path class="st12" d="M161.1,271.8c-15.3-9.4-31.3-19.9-43.6-33.1c-5.8-6.2-11.4-14.2-11.1-23.2c0.3-8.9,7-16.3,13.3-22
				c14.1-12.7,31.3-16.7,49.9-17.2c14.1-0.4,32.9,1.6,41.2-12.5c7.8-13.2,0.3-29.8-14.3-33.5c-3.1-0.8-4.4,4-1.3,4.8
				c8.2,2.1,14.5,9.4,13.9,18.1c-0.6,9.2-7.8,15.3-16.4,16.9c-17.6,3.3-35.6-0.5-52.9,5.8c-13.4,4.8-26.4,14-34,26.3
				c-8.2,13.3-2.9,27.3,6.6,38.2c12.6,14.4,30.1,25.7,46.3,35.7C161.3,277.8,163.8,273.5,161.1,271.8L161.1,271.8z"/>
		</g>
	</g>
	<g>
		<g>
			<path class="st12" d="M144.7,133.4c-7.9-2-15.3-5.3-21.9-10.1c-3.3-2.4-6.3-5.1-9.1-8.1c-1.5-1.7-9.1-9.3-6.9-11.7
				c2.1-2.4-1.4-6-3.5-3.5c-6.3,7.3,6.2,18.6,11.2,23.1c8.2,7.4,18.2,12.6,28.9,15.3C146.5,139,147.8,134.2,144.7,133.4L144.7,133.4
				z"/>
		</g>
	</g>
	<g>
		<g>
			<path class="st12" d="M598.6,109.1c-5.8,15.5-14.2,30-24.9,42.6c-10.8,12.7-23.7,22-37.2,31.7c-11.9,8.5-23.8,19.8-24.6,35.4
				c-0.6,12.6,9.3,25.4,22.5,24.8c3.2-0.2,3.2-5.2,0-5c-7.5,0.4-13.8-4.8-16.4-11.8c-2.7-7.3-0.4-15.4,3.5-21.9
				c8-13.1,22.7-20.1,34.5-29.3c21.6-16.8,37.9-39.6,47.4-65.2C604.5,107.4,599.7,106.1,598.6,109.1L598.6,109.1z"/>
		</g>
	</g>
	<g>
		<g>
			<path class="st12" d="M593.3,323.7c5.3,9.5,11,19.6,10.9,30.8c-0.1,11.5-6.5,19-16.7,23.5c-8.5,3.7-17.2,6.3-25.3,11
				c-7.8,4.6-14.8,10.5-20,17.9c-10,14.1-13.8,34.4-7.1,50.6c7.8,18.9,29.3,15.1,45.9,17.2c11.7,1.5,25.2,4.6,34.4,12.4
				c4.1,3.5,7.5,8.5,6.8,14.1c-0.7,5.1-4.2,10-9.7,10c-3.2,0-3.2,5,0,5c7.4,0,12.9-5.8,14.4-12.8c1.7-8-2.5-15.4-8.5-20.3
				c-7.6-6.3-17.8-9.6-27.3-11.7c-11.3-2.5-22.7-1.7-34-3.4c-5-0.8-10-2.4-13.6-6.2c-4.2-4.5-5.8-11.3-6.4-17.3
				c-1-10.8,1.4-21.8,6.9-31.1c5.7-9.7,14.5-16.8,24.3-22c8.7-4.5,18.6-6.7,27-11.7c9-5.4,13.8-14.7,13.8-25.1
				c0.1-12.1-5.9-23.1-11.6-33.4C596.1,318.4,591.7,320.9,593.3,323.7L593.3,323.7z"/>
		</g>
	</g>
	<g>
		<linearGradient id="SVGID_9_" gradientUnits="userSpaceOnUse" x1="241.2558" y1="204.5954" x2="313.3152" y2="204.5954">
			<stop  offset="0" style="stop-color:#FFF33B"/>
			<stop  offset="5.948725e-02" style="stop-color:#FFE029"/>
			<stop  offset="0.1303" style="stop-color:#FFD218"/>
			<stop  offset="0.2032" style="stop-color:#FEC90F"/>
			<stop  offset="0.2809" style="stop-color:#FDC70C"/>
			<stop  offset="0.6685" style="stop-color:#F3903F"/>
			<stop  offset="0.8876" style="stop-color:#ED683C"/>
			<stop  offset="1" style="stop-color:#E93E3A"/>
		</linearGradient>
		<path class="st13" d="M286.5,229.5c-3.2,5.3-10,7.6-16.2,6.8c-6.1-0.8-11.6-4.2-16.4-8.1c-6.2-5.2-11.6-12.1-12.6-20.1
			c-1-8,3.8-17.1,11.7-18.7c1.2-0.2,2.5-0.3,3.6-0.9c5.3-3-0.4-13.8,5-16.6c2.6-1.4,5.9,0.6,7.4,3.2c1.5,2.6,1.9,5.6,3.3,8.3
			s4.4,4.9,7.2,3.9c3.8-1.4,4.7-7.8,8.8-7.7c4.3,0.1,5.4,7.7,9.7,7.5c2.4-0.1,4.2-2.9,6.6-2.3c0.9,0.2,1.7,0.9,2.3,1.7
			c9.8,11.1,8.1,30.3-3.5,39.5c-3.6,2.8-7.8,4.7-11.9,6.5c-5.5,2.5-11.2,4.9-17.3,5.4s-12.6-1.5-16.2-6.5"/>
		<g>
			<linearGradient id="SVGID_10_" gradientUnits="userSpaceOnUse" x1="240.7558" y1="204.5425" x2="313.8152" y2="204.5425">
				<stop  offset="0" style="stop-color:#FFF33B"/>
				<stop  offset="5.948725e-02" style="stop-color:#FFE029"/>
				<stop  offset="0.1303" style="stop-color:#FFD218"/>
				<stop  offset="0.2032" style="stop-color:#FEC90F"/>
				<stop  offset="0.2809" style="stop-color:#FDC70C"/>
				<stop  offset="0.6685" style="stop-color:#F3903F"/>
				<stop  offset="0.8876" style="stop-color:#ED683C"/>
				<stop  offset="1" style="stop-color:#E93E3A"/>
			</linearGradient>
			<path class="st14" d="M284.4,228.3c-12.4,17.9-42.3-7.7-40.5-24c0.5-4.1,2.5-8.4,6-10.8c2.8-1.9,6.6-1.4,9.1-3.6
				c1.7-1.4,2.4-3.5,2.6-5.6c0.3-2.2-1-7.3,0.4-9c1.4-1.9,4.2-0.1,5,1.1c0.7,1,1,2.4,1.5,3.5c0.6,1.6,1,3.3,1.9,4.7
				c1.5,2.8,4.3,5.2,7.6,5.3c2.4,0.1,4.3-1.1,5.9-2.8c0.9-0.9,1.4-2.1,2.3-3.1c2.2-2.6,3.2-1.8,5,0.6c1.3,1.7,2.6,3.6,4.7,4.4
				c2.9,1.1,4.3-0.8,6.9-1.3c4.1-0.8,6.5,6.4,7.3,9.4c1.1,4.2,1.2,8.6,0.3,12.8c-2.2,10.1-9.5,15.4-18.4,19.5
				c-9.8,4.4-23.7,10.4-32,0c-2-2.5-5.5,1-3.5,3.5c7.2,9,19.4,8.2,29.1,4.5c9.7-3.6,20.5-8,26-17.3c4.7-7.9,5.7-18.2,2.5-26.9
				c-1.3-3.6-3.5-8-6.8-10.2c-4-2.7-7.8,2.6-11,0.1c-2.7-2.1-3.2-5.6-7.1-6.1c-3.9-0.5-5.9,2.6-7.9,5.3c-5.4,7.2-7.9-5.6-10.3-9.1
				c-2.1-3.1-6.1-5.4-9.9-3.8c-2.9,1.2-4.1,4-4.3,7c-0.2,1.8,0,3.5,0,5.3c0,4.3-1.8,4.5-5.4,5.6c-8.1,2.5-12.8,11.4-12.4,19.5
				c0.8,20.3,34.8,45.7,49.9,23.9C290.5,228.2,286.2,225.6,284.4,228.3L284.4,228.3z"/>
		</g>
	</g>
	<g>
		<linearGradient id="SVGID_11_" gradientUnits="userSpaceOnUse" x1="394.315" y1="201.0228" x2="476.3017" y2="201.0228">
			<stop  offset="0" style="stop-color:#EE3278"/>
			<stop  offset="1" style="stop-color:#2484C6;stop-opacity:0"/>
		</linearGradient>
		<path class="st15" d="M414.5,179.6c-5.5,1.5-10.7,4.3-14.9,8.2c-1.7,1.5-3.3,3.3-4.2,5.4c-2.6,5.6-0.2,12.5,4.1,16.9
			c4.4,4.4,10.3,6.7,16.2,8.7c5.5,1.9,11.1,3.5,16.7,4.9c4.2,1.1,8.8,2,12.9,0.6c3.7-1.2,6.5-4,9.3-6.8c6.7-6.7,13.3-13.4,20-20
			c0.9-0.9,1.8-1.9,1.6-3.1c-0.1-0.9-0.8-1.6-1.5-2.2c-5.2-4.5-12.4-6.6-19.2-5.4c-3.4,0.6-6.9,1.9-10.1,0.7
			c-4.7-1.9-6.8-8.9-11.9-8.9c-3.2,0-6.9,2.9-9.2,0.6c-0.5-0.5-0.8-1.1-1.4-1.6c-2.9-2.2-5.6,4.5-9.3,4.4"/>
	</g>
	<g>
		<linearGradient id="SVGID_12_" gradientUnits="userSpaceOnUse" x1="429.8503" y1="492.0682" x2="488.2718" y2="492.0682">
			<stop  offset="0" style="stop-color:#73BF44"/>
			<stop  offset="1" style="stop-color:#2484C6;stop-opacity:0"/>
		</linearGradient>
		<path class="st16" d="M460.4,536.1c-2.7-0.5-5.4-1-8.1-1.5c-2.8-0.5-5.7-1.1-8-2.9c-2.7-2.1-4-5.4-5.1-8.6
			c-6.6-19-10.2-39.2-9.1-59.3c0.2-4.4,0.8-9.2,3.6-12.6s8.6-4.9,11.7-1.7c1.3,1.3,2.5,3.4,4.3,3.1c2.1-0.4,2.2-3.4,3.4-5.1
			c1.9-2.6,6.3-1.6,8.5,0.8c2.2,2.4,3.3,5.6,5.5,8.1c0.4,0.5,0.9,0.9,1.6,0.9c0.7,0,1.2-0.7,1.6-1.3c1.5-2.2,3-4.5,4.4-6.7
			c3.5,5.8,4.7,12.5,5.9,19.2c3.3,19,5.8,38.2,7.6,57.4c0.1,0.8,0.1,1.6-0.2,2.2c-0.4,0.8-1.3,1.2-2.2,1.6c-4.8,2-9.5,4-14.3,5.9
			c-6.2,2.6-14.5,4.8-18.9-0.4"/>
	</g>
	<g>
		<linearGradient id="SVGID_13_" gradientUnits="userSpaceOnUse" x1="279.0963" y1="491.9368" x2="345.5293" y2="491.9368">
			<stop  offset="0" style="stop-color:#81469B"/>
			<stop  offset="1" style="stop-color:#2484C6;stop-opacity:0"/>
		</linearGradient>
		<path class="st17" d="M291.5,525.7c-1.6-19.8-12.8-38.2-12.4-58c0.1-3,0.4-6,2-8.5c1.6-2.5,4.9-4.1,7.6-3c4.3,1.6,5.3,8.4,9.8,9.2
			c1.9-5.3,4.7-10.3,8.3-14.7c1.7,3.1,3.5,6.2,6.2,8.6c2.7,2.3,6.5,3.6,9.8,2.5c1.4-0.5,2.8-1.4,4.3-1.1c0.8,0.2,1.5,0.7,2.1,1.3
			c3.8,3.9,4.1,9.8,4.7,15.2c0.9,7.4,2.7,14.7,5.5,21.6c2.3,5.7,5.3,11.3,6,17.4s-1.6,13.1-7.2,15.7c-2.3,1.1-5,1.2-7.5,1.3
			c-12.6,0.6-25.3,0.2-37.9-1.2c-1.6-0.2-3.5-0.5-4.3-1.9c-0.5-0.9-0.4-2.1-0.3-3.1c0.3-3,0.7-6,1-9"/>
	</g>
	<g>
		<g>
			<linearGradient id="SVGID_14_" gradientUnits="userSpaceOnUse" x1="130.1983" y1="165.8732" x2="212.7937" y2="165.8732">
				<stop  offset="0" style="stop-color:#EE3278"/>
				<stop  offset="1" style="stop-color:#2484C6;stop-opacity:0"/>
			</linearGradient>
			<path class="st18" d="M136.4,184.4c-2-13.3,0-26.8,5.6-39c-1.5-0.2-3-0.4-4.6-0.6c2.5,13.8-2.7,27.1-7.7,39.7
				c-1.1,2.9,3,4,4.6,1.9c6.9-9,17.5-14.2,28.8-14.5c-0.4-1.6-0.8-3.1-1.3-4.7c-7.1,4.4-14.1,8.9-21.2,13.3
				c-2.3,1.4-0.8,5.7,1.9,4.6c13.2-5.3,27.8-4.2,40,3.3c0.2-1.5,0.4-3,0.6-4.6c-6.2,1.4-12.4,1.4-18.5-0.1c-1.4-0.4-2.8-0.8-4.2-1.3
				c0,0-3.5-1.6-3-0.7c-0.2-0.4,5.1-4.1,5.9-4.7c7.8-6.3,10.3-19.6,20.3-22.8c-1-0.6-2.1-1.2-3.1-1.7c1.3,9-4.8,17.5-13.5,19.6
				c1,1,2.1,2.1,3.1,3.1c2.2-6.5,7.1-11.2,11.9-15.8c-1.4-0.8-2.8-1.6-4.2-2.4c-2.2,6.4-5.1,12.4-8.7,18.1c-1.6,2.5,1.9,4.9,3.9,3
				c7.9-7.2,21.7-18.1,31.7-7.9c0.4-1.4,0.7-2.8,1.1-4.2c-5.3,2.1-10.6,2.8-16.3,2.3c0,1.7,0,3.3,0,5c2.8-0.1,20.4-2.9,20,2.2
				c-0.3,3.7-6.3,3.3-8.6,2.9c-3.5-0.7-6.6-2.5-9.3-4.9c-2.4-2.1-5.9,1.4-3.5,3.5c5.9,5.3,21.4,11.7,25.8,1c5.8-14.2-18-10-24.4-9.7
				c-3.2,0.2-3.2,4.7,0,5c6.1,0.5,11.9-0.3,17.6-2.5c1.7-0.7,2.5-2.7,1.1-4.2c-12.2-12.6-28.7-1.3-38.8,7.9c1.3,1,2.6,2,3.9,3
				c3.8-6.1,6.9-12.5,9.2-19.3c0.9-2.5-2.5-4.1-4.2-2.4c-5.5,5.3-10.6,10.7-13.2,18c-0.7,1.9,1.3,3.5,3.1,3.1
				c11.6-2.9,18.7-14.2,17-25.8c-0.2-1.3-1.9-2.1-3.1-1.7c-6.7,2.2-10.6,7.5-14.1,13.3c-2.1,3.5-4.1,7.1-7.3,9.8
				c-2.4,2-5.9,3.8-7.7,6.4c-3.5,5.1,3.6,7.7,7.4,8.9c7.7,2.5,15.8,2.6,23.7,0.9c2.2-0.5,2.3-3.5,0.6-4.6
				c-13.2-8.2-29.5-9.7-43.8-3.8c0.6,1.5,1.3,3,1.9,4.6c7.1-4.4,14.1-8.9,21.2-13.3c2-1.3,1.3-4.7-1.3-4.7
				c-13.3,0.3-25.1,6.4-33.2,16.9c1.5,0.6,3,1.3,4.6,1.9c5.4-13.6,10.4-27.6,7.7-42.4c-0.4-2-3.7-2.5-4.6-0.6
				c-6.2,13.6-8.3,28.1-6.1,42.8C132,188.9,136.8,187.6,136.4,184.4L136.4,184.4z"/>
		</g>
	</g>
	<g>
		<g>
			<linearGradient id="SVGID_15_" gradientUnits="userSpaceOnUse" x1="83.862" y1="233.6006" x2="143.3331" y2="233.6006">
				<stop  offset="0" style="stop-color:#EE3278"/>
				<stop  offset="1" style="stop-color:#2484C6;stop-opacity:0"/>
			</linearGradient>
			<path class="st19" d="M137.8,256.1c-8.3-7.1-19-10.6-29.9-9.2c-2.9,0.4-9.7,0.8-10.1,4.8c-0.5,4.6,9.1,8.3,12.2,9.7
				c5.2,2.4,10.9,3.9,16.6,2.9c3.5-0.6,9.1-2.4,8.8-6.9c-0.3-4.6-7.3-6.6-10.8-7.9c-6.3-2.3-13-3.1-19.6-2.6
				c0.8,0.8,1.7,1.7,2.5,2.5c0.5-5.2,5.8-12.6-2.1-15c-3.8-1.1-7.5-0.5-11.1-2.4c-4.1-2.2-7.1-5.9-7.3-10.6
				c-1.3,0.7-2.5,1.4-3.8,2.2c12.1,5.3,22.6,13.3,30.6,23.9c1.1-1.1,2.3-2.3,3.4-3.4c-6.8-4.9-12.9-10.9-17.6-17.9
				c-1.6-2.3-8.8-13.7-1.1-12.2c4.3,0.8,5.4,6.3,6.4,9.8c1.6-0.4,3.2-0.9,4.8-1.3c-1.4-3.7-2.4-7.4-3-11.3c-0.3-2.1-0.6-4.4-0.6-6.5
				c0-1.4-0.5-5.8,0.9-1.9c2.6,7.1,1.7,16.2,2.3,23.7c1,11.5,4.1,23,13.7,30.3c2,1.5,4.8-1.4,3.4-3.4c-2.1-3-3.7-6.2-4.7-9.8
				c-0.5-1.9-0.9-3.9-1-5.8c-0.1-1.2,0-2.5,0.2-3.7c0.1-2.2,1.2-2.9,3.4-2.1c3.4-0.1,3.1,0.6,3.8,3.5c0.5,2.1,0.7,4.3,1,6.5
				c0.4,4.1,0.5,8.2,0.4,12.3c1.7,0,3.3,0,5,0c-0.3-6.2,1.5-11.8,5.6-16.6c-1.3-0.2-2.6-0.3-3.9-0.5c5.5,10.4-0.7,23,4.7,33.7
				c1.4,2.9,5.8,0.3,4.3-2.5c-5.3-10.5,1-23-4.7-33.7c-0.7-1.3-2.9-1.7-3.9-0.5c-4.9,5.7-7.4,12.6-7,20.1c0.1,3.2,4.9,3.2,5,0
				c0.2-6.9,1.4-31.9-11.6-28.9c-13.1,3-5.4,23.8-0.7,30.6c1.1-1.1,2.3-2.3,3.4-3.4c-15.7-12-9.3-35.3-13.9-51.9
				c-0.7-2.4-1.8-4.9-4.7-5.1c-2.5-0.1-4.5,1.7-5.4,3.9c-2.5,7.1,0.8,17.8,3.2,24.5c1.1,3,5.7,1.8,4.8-1.3
				c-1.5-5.4-3.7-11.9-9.9-13.3c-4.4-1-9.4,1.1-10.1,5.9c-1,6.3,5,13.1,8.5,17.6c4.7,6,10.3,11.2,16.5,15.7c2,1.4,4.9-1.4,3.4-3.4
				c-8.5-11.2-19.5-20-32.4-25.7c-1.6-0.7-3.9,0.1-3.8,2.2c0.3,6.8,4.4,12.2,10.4,15.2c3,1.5,5.9,1.5,9,2.3c1.2,0.3,3.3,0.6,3.6,2.3
				c0.1,0.7-0.8,2.4-1.1,3.1c-0.6,1.7-1,3.3-1.2,5.1c-0.1,1.3,1.2,2.6,2.5,2.5c4.8-0.3,9.6-0.1,14.3,1.2c2,0.5,11.1,3,10.2,5.1
				c-0.7,1.6-6.4,1.5-7.9,1.4c-1.9-0.1-3.8-0.6-5.6-1.1c-2.6-0.8-5-2.1-7.4-3.4c-1.1-0.6-5.6-2.6-5.9-4c-0.2,0.8-0.4,1.6-0.6,2.4
				c1.4-1.5,6-1.7,7.9-1.8c3-0.2,6-0.1,8.9,0.5c5.7,1.1,10.9,3.7,15.3,7.5C136.7,261.8,140.2,258.2,137.8,256.1L137.8,256.1z"/>
		</g>
	</g>
	<g>
		<g>
			<linearGradient id="SVGID_16_" gradientUnits="userSpaceOnUse" x1="125.0099" y1="356.7551" x2="193.5323" y2="356.7551">
				<stop  offset="0" style="stop-color:#EE3278"/>
				<stop  offset="1" style="stop-color:#2484C6;stop-opacity:0"/>
			</linearGradient>
			<path class="st20" d="M144.3,396.2c-7.9-12.2-13.3-25.8-15.3-40.2c-0.5-3.5-0.8-7.1-0.9-10.7c0-0.9-0.2-6.6,0.9-5.1
				c0.8,1.2,0.7,3.7,0.9,5.1c1.4,7.7,2.7,15.4,4.1,23.1c1.6-0.4,3.2-0.9,4.8-1.3c-2.2-8.4-1.9-17.2,1.2-25.4
				c0.5-1.3,4-10.4,5.9-10.1c1.3,0.2,1.9,7.3,1.9,8.2c0,2.6-0.5,4.9-1.4,7.3c1.6,0.4,3.2,0.9,4.8,1.3c0.9-5.3,2.5-10.4,5.4-14.9
				c1.4-2.1,3.3-4.4,5.8-5.2c1.9-0.6,3.5-0.5,4.9,0.9c1.4,1.4,2.2,3.4-0.4,4.6c1.3,0.7,2.5,1.4,3.8,2.2c0.5-5.8,3.6-11.3,8.5-14.6
				c2.8-1.9,5.2-2.9,8.4-1.9c2.2-0.1,3.2,0.9,2.9,3.1c-0.3,0.8-0.6,1.7-0.9,2.5c-1.1,1.7-3.1,2.7-4.9,3.5c-2.9,1.3-0.4,5.6,2.5,4.3
				c4.6-2.1,8.7-6.1,8.2-11.6c-0.5-4.9-4.5-7.9-9.3-7.7c-11.4,0.5-19.5,12-20.4,22.4c-0.2,2,2.2,2.9,3.8,2.2
				c8.4-4.2,3-15.4-5.2-15.2c-11.2,0.2-16.4,15.1-17.9,24.1c-0.5,3.1,3.8,4.4,4.8,1.3c2.1-6,2.3-13.6-1-19.3
				c-2.8-4.7-6.6-3.4-9.4,0.4c-8.1,11.2-10.4,25.7-6.9,38.9c0.8,3.2,5.4,1.8,4.8-1.3c-1-5.5-2-11.1-2.9-16.6c-0.7-4-0.6-10-2.8-13.6
				c-1.3-2.1-3.8-2.9-6.1-1.9c-3.2,1.3-3.8,4.7-3.9,7.8c-0.5,19.6,6.3,39.7,16.9,56C141.7,401.4,146,398.9,144.3,396.2L144.3,396.2z
				"/>
		</g>
	</g>
	<g>
		<g>
			<linearGradient id="SVGID_17_" gradientUnits="userSpaceOnUse" x1="175.1855" y1="418.6744" x2="234.405" y2="418.6744">
				<stop  offset="0" style="stop-color:#EE3278"/>
				<stop  offset="1" style="stop-color:#2484C6;stop-opacity:0"/>
			</linearGradient>
			<path class="st21" d="M196,421.8c-9.5-4.7-17.3-14.4-17.7-25.3c0-0.8-0.3-2.9,0.3-3.5c1.5-1.4,3.3,1.2,3.8,2.1
				c1.5,2.8,2.9,5.6,4.3,8.4c3,5.8,6.1,11.7,9.1,17.5c1.4,2.7,5,0.7,4.6-1.9c-0.6-3.2-1.1-6.4-1.7-9.6c-0.1-0.6-0.4-5.8,1.4-5.3
				c0.5,0.2,2,4.8,2.2,5.4c2.3,6.1,3.8,12.5,4.9,18.9c0.4,2.8,5.1,2.1,4.9-0.7c-0.3-3.2-0.3-6.4,0-9.6c0.2-1.8,0.4-3.6,0.9-5.4
				c0.6-2.4,0.3-2.8,1.5-0.6c3.4,6.4,4.6,14.7,4.8,21.8c1.6-0.2,3.3-0.4,4.9-0.7c-0.1-1-0.8-3.7-0.2-4.6c1-0.2,1.9-0.5,2.9-0.7
				c0.1,0.5,0.3,1.1,0.4,1.6c1.1,2.1,0.8,6,1.1,8.3c0.5,4,1.3,7.7,3.3,11.2c1.6,2.8,5.9,0.3,4.3-2.5c-2.6-4.7-2.7-9.9-3.4-15.1
				c-0.5-3.3-0.9-7.9-4.5-9.4c-2.5-1-5.6,0.1-7.3,2c-2.5,2.9-2,6.9-1.5,10.4c0.4,2.8,5,2.1,4.9-0.7c-0.2-6-1.1-12-3-17.8
				c-1-3.2-2.7-10.4-6.7-11.4c-9-2.1-7.9,18.4-7.6,22.9c1.6-0.2,3.3-0.4,4.9-0.7c-1-6.4-2.6-12.8-4.9-18.9
				c-1.3-3.6-2.8-9.3-7.1-10.4c-11.4-2.8-5.3,18.2-4.6,22.5c1.5-0.6,3-1.3,4.6-1.9c-4.8-9.2-9-19.2-14.5-27.9c-3-4.7-9-5.8-11.5,0
				c-2.6,5.9,0.2,14,3,19.4c3.6,7,9.4,12.6,16.4,16.1C196.3,427.5,198.9,423.2,196,421.8L196,421.8z"/>
		</g>
	</g>
	<g>
		<g>
			<linearGradient id="SVGID_18_" gradientUnits="userSpaceOnUse" x1="535.3533" y1="392.6476" x2="588.0905" y2="392.6476">
				<stop  offset="0" style="stop-color:#EE3278"/>
				<stop  offset="1" style="stop-color:#2484C6;stop-opacity:0"/>
			</linearGradient>
			<path class="st22" d="M538.6,422.5c-1.1-19.3,3.2-38.3,12.6-55.3c-0.9,0.4-1.9,0.8-2.8,1.1c2.3,0.9,1.1,14.9,1,17.1
				c-0.1,5.5-0.3,11-0.7,16.5c-0.2,3.2,4.8,3.2,5,0c0.8-10,1.6-20.5,6.2-29.6c0.5-0.9,3.3-6.6,4.2-6.5c0.6,0.1,0.1,6.7,0,7.2
				c-0.6,6.1-2.5,11.8-5.3,17.2c1.6,0.4,3.1,0.8,4.7,1.3c1.3-9.8,5.8-18.6,12.7-25.5c-1.4-0.6-2.8-1.2-4.3-1.8
				c0.8,5.7,0.4,11.3-1.1,16.9c1.6,0.4,3.2,0.9,4.8,1.3c1.3-5.2,3.7-9.8,7.6-13.6c2.5-2.4,2.1-0.6,2,2.2c-0.1,1.8,0.1,6.7-1.3,7.8
				c1-0.1,2-0.3,3-0.4c-0.2-0.1-0.4-0.2-0.5-0.4c0.4,0.9,0.8,1.9,1.1,2.8c0.1-0.2,0.1-0.3,0.2-0.5c1.2-3-3.6-4.3-4.8-1.3
				c-0.1,0.2-0.1,0.3-0.2,0.5c-0.4,1.1,0.3,2.2,1.1,2.8c0.2,0.1,0.4,0.2,0.5,0.4c1,0.7,2.2,0.3,3-0.4c3-2.3,2.8-8.9,2.8-12.2
				c0-3,0.2-7.9-3.6-8.6c-3.7-0.7-7.4,4.1-9.4,6.5c-3.1,3.8-5.2,8.2-6.4,13c-0.8,3.1,3.9,4.4,4.8,1.3c1.7-6,2.2-12,1.3-18.2
				c-0.3-2-2.6-3.5-4.3-1.8c-7.9,8-12.7,17.9-14.1,29c-0.3,2.5,3.6,3.3,4.7,1.3c3.9-7.4,6.3-15.6,6.2-24c-0.1-4-2.3-10.8-7.7-7.5
				c-4.9,3.1-7.8,11.6-9.4,16.9c-2.3,7.7-2.9,15.8-3.5,23.8c1.7,0,3.3,0,5,0c0.6-8.4,0.9-16.8,0.7-25.3c-0.1-4.9,0.7-11-4.7-13.1
				c-1-0.4-2.3,0.3-2.8,1.1c-9.8,17.7-14.4,37.6-13.3,57.8C533.7,425.7,538.7,425.7,538.6,422.5L538.6,422.5z"/>
		</g>
	</g>
	<g>
		<g>
			<linearGradient id="SVGID_19_" gradientUnits="userSpaceOnUse" x1="594.1656" y1="319.1741" x2="615.5021" y2="319.1741">
				<stop  offset="0" style="stop-color:#EE3278"/>
				<stop  offset="1" style="stop-color:#2484C6;stop-opacity:0"/>
			</linearGradient>
			<path class="st23" d="M607.9,344.5c0,0,4.5-17,4.9-18.7c1.5-6.4,3.1-12.8,4.6-19.2c0.4-1.6-0.8-3.1-2.4-3.2
				c-5.3-0.3-7.6,4.9-9.4,9c-2.7,6-4.4,12.2-5.4,18.7c1.6,0.2,3.3,0.4,4.9,0.7c0.4-7.7,0.2-15.3-0.5-23c-0.2-2.2-3.5-3.7-4.7-1.3
				c-2.9,6.2-5.2,12.7-6.8,19.4c1.6,0.4,3.2,0.9,4.8,1.3c1.7-12.1,2.2-24.3,1.5-36.5c-0.2-2.6-4.5-3.6-4.9-0.7
				c-1.4,10.2-2.2,20.3-2.2,30.6c0,3.2,5,3.2,5,0c0-9.8,0.6-19.6,2-29.3c-1.6-0.2-3.3-0.4-4.9-0.7c0.7,11.8,0.3,23.5-1.3,35.2
				c-0.4,3.1,4,4.6,4.8,1.3c1.5-6.3,3.6-12.3,6.3-18.2c-1.6-0.4-3.1-0.8-4.7-1.3c0.7,7.7,0.9,15.3,0.5,23c-0.1,2.8,4.5,3.5,4.9,0.7
				c0.6-4.2,1.5-8.3,2.9-12.3c1-2.9,3.3-12,7.1-11.8c-0.8-1.1-1.6-2.1-2.4-3.2c-2.1,9-4.3,17.9-6.4,26.9c-0.9,3.9-2.6,8.2-2.9,12.2
				c-0.1,2,0.3,3.5,2.1,4.4C608.2,350.2,610.7,345.9,607.9,344.5L607.9,344.5z"/>
		</g>
	</g>
	<g>
		<g>
			<linearGradient id="SVGID_20_" gradientUnits="userSpaceOnUse" x1="518.7354" y1="176.9528" x2="564.2629" y2="176.9528">
				<stop  offset="0" style="stop-color:#EE3278"/>
				<stop  offset="1" style="stop-color:#2484C6;stop-opacity:0"/>
			</linearGradient>
			<path class="st24" d="M521.6,201.2c3-15.9,5-32.8,14-46.7c-1.5-0.2-3-0.4-4.6-0.6c1.7,6.1,0.3,12.2-0.8,18.3
				c-1,5.9-2.1,11.7-3.2,17.6c1.6,0.4,3.2,0.9,4.8,1.3c1.4-8.7,3.3-17.5,6.2-25.9c0.4-1.2,0.8-2.4,1.3-3.6c1.5,0.6,3,1.3,4.5,1.9
				c1,1.1,1.1,5.4,1.2,6.7c0.5,4.4,0.5,8.6-1.7,12.6c1.6,0.4,3.1,0.8,4.7,1.3c0.1-8.8,1.7-18.9,8.5-25.3c2-1.8,4.1-3.1,4.7,0.1
				c0.4,2.4-0.4,5.6-1.1,7.9c-1.5,5.5-4.4,10.3-8.5,14.3c-2.3,2.3,1.3,5.8,3.5,3.5c5.6-5.6,9.4-12.5,10.6-20.4
				c0.7-4.4,1.7-13.3-5.1-13.2c-6,0.1-11.3,7.6-13.5,12.4c-3,6.4-4,13.6-4.1,20.6c0,2.5,3.4,3.4,4.7,1.3c3.1-5.5,2.9-11.3,2.1-17.4
				c-0.7-4.9-2-11.3-7.9-12.2c-5.7-0.9-7.5,4.7-8.9,9c-2.6,8.2-4.5,16.5-5.9,25c-0.5,3.1,4.2,4.5,4.8,1.3c1.4-7.1,2.6-14.2,3.8-21.3
				c1-5.8,1.8-11.5,0.1-17.3c-0.6-2.1-3.4-2.4-4.6-0.6c-9.2,14.3-11.5,31.5-14.5,47.9C516.2,203.1,521.1,204.4,521.6,201.2
				L521.6,201.2z"/>
		</g>
	</g>
	<g>
		<g>
			<linearGradient id="SVGID_21_" gradientUnits="userSpaceOnUse" x1="539.3999" y1="164.011" x2="602.6857" y2="164.011">
				<stop  offset="0" style="stop-color:#EE3278"/>
				<stop  offset="1" style="stop-color:#2484C6;stop-opacity:0"/>
			</linearGradient>
			<path class="st25" d="M572.1,156.3c8.8-5.3,18.6-13.5,29-15c-0.9-1.2-1.9-2.4-2.8-3.7c-4.2,8.3-10.6,14.7-18.9,18.9
				c-2.5,1.2-0.7,5.6,1.9,4.6c3.4-1.3,7-2.6,10.6-3.2c3.6-0.5,11.1,0.9,5.6,5.6c-5.3,4.6-16,5.3-22.6,5.8c-3.2,0.2-3.3,5.1,0,5
				c2.3-0.1,9.1-0.5,7.6,4.1c-0.7,2-5.6,3.6-7.2,4.3c-4.3,1.7-8.7,3.1-13.4,3.6c-7.8,0.8-16.3-4.1-23.6,0c-2.8,1.6-0.3,5.9,2.5,4.3
				c4.1-2.3,8.7-0.2,12.9,0.5c3,0.4,5.9,0.5,8.9,0.2c6.5-0.7,13.4-2.9,19.1-6c3.6-2,7.1-5.5,5.8-10c-1.7-5.4-7.9-6.1-12.6-6
				c0,1.7,0,3.3,0,5c7.2-0.6,14.6-1.7,21.3-4.4c3.8-1.6,8-4.4,8.4-8.8c1.2-13-18.9-7.1-24.6-4.8c0.6,1.5,1.3,3,1.9,4.6
				c9-4.5,16.2-11.7,20.7-20.7c1-2.1-0.7-4-2.8-3.7c-10.9,1.6-21,9.9-30.2,15.5C566.8,153.7,569.3,158,572.1,156.3L572.1,156.3z"/>
		</g>
	</g>
	<g>
		<g>
			<linearGradient id="SVGID_22_" gradientUnits="userSpaceOnUse" x1="578.8656" y1="111.7842" x2="623.1254" y2="111.7842">
				<stop  offset="0" style="stop-color:#EE3278"/>
				<stop  offset="1" style="stop-color:#2484C6;stop-opacity:0"/>
			</linearGradient>
			<path class="st26" d="M584.9,140.1c-0.5-3.3-5.4-34.6-2.2-35.2c-1-0.6-2.1-1.2-3.1-1.7c3.6,9,5.8,18.2,6.3,27.9c1.7,0,3.3,0,5,0
				c-0.4-5.7-0.9-11.6,0.4-17.2c0.1-0.6,0.3-1.3,0.5-1.9c0.3-1.2,0.4-1.4,0.3-0.6c0.2,0,1.6,3.6,1.8,4c1.1,3.1,1.3,6.3,0.7,9.6
				c1.6,0,3.2,0,4.8,0c-1.5-8.1,0-16.5,3.9-23.8c1.4-2.7,13.1-18.9,16.6-14.5c0.8,1-1.1,5.9-1.5,7.1c-0.8,2.3-2,4.5-3.3,6.6
				c-2.2,3.5-4.9,6.7-7.8,9.7c-6,6.4-12.5,12.2-17.3,19.6c-1.8,2.7,2.6,5.2,4.3,2.5c6.9-10.6,17.7-18,24.6-28.6
				c2.8-4.3,11.2-20.9,2-23.1c-4.1-1-9.1,3.3-12,5.8c-3.7,3.1-6.9,7-9.3,11.2c-5.1,8.8-6.8,18.9-5,28.9c0.4,2.4,4.4,2.4,4.8,0
				c0.8-4.7,0.5-9.2-1.3-13.7c-1.1-2.7-3.3-7.5-7.1-6.8c-8,1.5-5.7,19.9-5.3,25.3c0.2,3.2,5.2,3.2,5,0c-0.6-10.1-2.7-19.9-6.5-29.2
				c-0.5-1.3-1.6-2-3.1-1.7c-6.2,1.2-4.4,9.9-4.1,14.2c0.6,9.1,1.6,18.1,2.9,27.1C580.6,144.6,585.4,143.3,584.9,140.1L584.9,140.1z
				"/>
		</g>
	</g>
</g>
</svg>
